<?xml version="1.0" encoding="utf-8" standalone="no"?>
<!DOCTYPE svg PUBLIC "-//W3C//DTD SVG 1.1//EN"
  "http://www.w3.org/Graphics/SVG/1.1/DTD/svg11.dtd">
<svg xmlns:xlink="http://www.w3.org/1999/xlink" width="437.136875pt" height="256.275937pt" viewBox="0 0 437.136875 256.275937" xmlns="http://www.w3.org/2000/svg" version="1.1">
 <metadata>
  <rdf:RDF xmlns:dc="http://purl.org/dc/elements/1.1/" xmlns:cc="http://creativecommons.org/ns#" xmlns:rdf="http://www.w3.org/1999/02/22-rdf-syntax-ns#">
   <cc:Work>
    <dc:type rdf:resource="http://purl.org/dc/dcmitype/StillImage"/>
    <dc:date>2026-05-25T18:53:42.451796</dc:date>
    <dc:format>image/svg+xml</dc:format>
    <dc:creator>
     <cc:Agent>
      <dc:title>Matplotlib v3.10.8, https://matplotlib.org/</dc:title>
     </cc:Agent>
    </dc:creator>
   </cc:Work>
  </rdf:RDF>
 </metadata>
 <defs>
  <style type="text/css">*{stroke-linejoin: round; stroke-linecap: butt}</style>
 </defs>
 <g id="figure_1">
  <g id="patch_1">
   <path d="M 0 256.275937 
L 437.136875 256.275937 
L 437.136875 0 
L 0 0 
z
" style="fill: #ffffff"/>
  </g>
  <g id="axes_1">
   <g id="patch_2">
    <path d="M 34.121875 218.07125 
L 429.936875 218.07125 
L 429.936875 17.14375 
L 34.121875 17.14375 
z
" style="fill: #ffffff"/>
   </g>
   <g id="patch_3">
    <path d="M 102.654563 218.07125 
L 106.185152 218.07125 
L 106.185152 215.865785 
L 102.654563 215.865785 
z
" clip-path="url(#p9ff3893c8e)" style="fill: #0072b2; opacity: 0.55; stroke: #000000; stroke-width: 0.4; stroke-linejoin: miter"/>
   </g>
   <g id="patch_4">
    <path d="M 106.185152 218.07125 
L 109.715741 218.07125 
L 109.715741 218.07125 
L 106.185152 218.07125 
z
" clip-path="url(#p9ff3893c8e)" style="fill: #0072b2; opacity: 0.55; stroke: #000000; stroke-width: 0.4; stroke-linejoin: miter"/>
   </g>
   <g id="patch_5">
    <path d="M 109.715741 218.07125 
L 113.24633 218.07125 
L 113.24633 205.941191 
L 109.715741 205.941191 
z
" clip-path="url(#p9ff3893c8e)" style="fill: #0072b2; opacity: 0.55; stroke: #000000; stroke-width: 0.4; stroke-linejoin: miter"/>
   </g>
   <g id="patch_6">
    <path d="M 113.24633 218.07125 
L 116.776919 218.07125 
L 116.776919 158.523687 
L 113.24633 158.523687 
z
" clip-path="url(#p9ff3893c8e)" style="fill: #0072b2; opacity: 0.55; stroke: #000000; stroke-width: 0.4; stroke-linejoin: miter"/>
   </g>
   <g id="patch_7">
    <path d="M 116.776919 218.07125 
L 120.307508 218.07125 
L 120.307508 197.11933 
L 116.776919 197.11933 
z
" clip-path="url(#p9ff3893c8e)" style="fill: #0072b2; opacity: 0.55; stroke: #000000; stroke-width: 0.4; stroke-linejoin: miter"/>
   </g>
   <g id="patch_8">
    <path d="M 120.307508 218.07125 
L 123.838097 218.07125 
L 123.838097 160.729152 
L 120.307508 160.729152 
z
" clip-path="url(#p9ff3893c8e)" style="fill: #0072b2; opacity: 0.55; stroke: #000000; stroke-width: 0.4; stroke-linejoin: miter"/>
   </g>
   <g id="patch_9">
    <path d="M 123.838097 218.07125 
L 127.368686 218.07125 
L 127.368686 213.660319 
L 123.838097 213.660319 
z
" clip-path="url(#p9ff3893c8e)" style="fill: #0072b2; opacity: 0.55; stroke: #000000; stroke-width: 0.4; stroke-linejoin: miter"/>
   </g>
   <g id="patch_10">
    <path d="M 127.368686 218.07125 
L 130.899275 218.07125 
L 130.899275 216.968517 
L 127.368686 216.968517 
z
" clip-path="url(#p9ff3893c8e)" style="fill: #0072b2; opacity: 0.55; stroke: #000000; stroke-width: 0.4; stroke-linejoin: miter"/>
   </g>
   <g id="patch_11">
    <path d="M 130.899275 218.07125 
L 134.429864 218.07125 
L 134.429864 216.968517 
L 130.899275 216.968517 
z
" clip-path="url(#p9ff3893c8e)" style="fill: #0072b2; opacity: 0.55; stroke: #000000; stroke-width: 0.4; stroke-linejoin: miter"/>
   </g>
   <g id="patch_12">
    <path d="M 134.429864 218.07125 
L 137.960453 218.07125 
L 137.960453 213.660319 
L 134.429864 213.660319 
z
" clip-path="url(#p9ff3893c8e)" style="fill: #0072b2; opacity: 0.55; stroke: #000000; stroke-width: 0.4; stroke-linejoin: miter"/>
   </g>
   <g id="patch_13">
    <path d="M 137.960453 218.07125 
L 141.491042 218.07125 
L 141.491042 216.968517 
L 137.960453 216.968517 
z
" clip-path="url(#p9ff3893c8e)" style="fill: #0072b2; opacity: 0.55; stroke: #000000; stroke-width: 0.4; stroke-linejoin: miter"/>
   </g>
   <g id="patch_14">
    <path d="M 141.491042 218.07125 
L 145.021631 218.07125 
L 145.021631 191.605666 
L 141.491042 191.605666 
z
" clip-path="url(#p9ff3893c8e)" style="fill: #0072b2; opacity: 0.55; stroke: #000000; stroke-width: 0.4; stroke-linejoin: miter"/>
   </g>
   <g id="patch_15">
    <path d="M 145.021631 218.07125 
L 148.55222 218.07125 
L 148.55222 216.968517 
L 145.021631 216.968517 
z
" clip-path="url(#p9ff3893c8e)" style="fill: #0072b2; opacity: 0.55; stroke: #000000; stroke-width: 0.4; stroke-linejoin: miter"/>
   </g>
   <g id="patch_16">
    <path d="M 148.55222 218.07125 
L 152.082809 218.07125 
L 152.082809 162.934618 
L 148.55222 162.934618 
z
" clip-path="url(#p9ff3893c8e)" style="fill: #0072b2; opacity: 0.55; stroke: #000000; stroke-width: 0.4; stroke-linejoin: miter"/>
   </g>
   <g id="patch_17">
    <path d="M 152.082809 218.07125 
L 155.613398 218.07125 
L 155.613398 218.07125 
L 152.082809 218.07125 
z
" clip-path="url(#p9ff3893c8e)" style="fill: #0072b2; opacity: 0.55; stroke: #000000; stroke-width: 0.4; stroke-linejoin: miter"/>
   </g>
   <g id="patch_18">
    <path d="M 155.613398 218.07125 
L 159.143987 218.07125 
L 159.143987 218.07125 
L 155.613398 218.07125 
z
" clip-path="url(#p9ff3893c8e)" style="fill: #0072b2; opacity: 0.55; stroke: #000000; stroke-width: 0.4; stroke-linejoin: miter"/>
   </g>
   <g id="patch_19">
    <path d="M 159.143987 218.07125 
L 162.674576 218.07125 
L 162.674576 216.968517 
L 159.143987 216.968517 
z
" clip-path="url(#p9ff3893c8e)" style="fill: #0072b2; opacity: 0.55; stroke: #000000; stroke-width: 0.4; stroke-linejoin: miter"/>
   </g>
   <g id="patch_20">
    <path d="M 162.674576 218.07125 
L 166.205165 218.07125 
L 166.205165 218.07125 
L 162.674576 218.07125 
z
" clip-path="url(#p9ff3893c8e)" style="fill: #0072b2; opacity: 0.55; stroke: #000000; stroke-width: 0.4; stroke-linejoin: miter"/>
   </g>
   <g id="patch_21">
    <path d="M 166.205165 218.07125 
L 169.735754 218.07125 
L 169.735754 191.605666 
L 166.205165 191.605666 
z
" clip-path="url(#p9ff3893c8e)" style="fill: #0072b2; opacity: 0.55; stroke: #000000; stroke-width: 0.4; stroke-linejoin: miter"/>
   </g>
   <g id="patch_22">
    <path d="M 169.735754 218.07125 
L 173.266343 218.07125 
L 173.266343 215.865785 
L 169.735754 215.865785 
z
" clip-path="url(#p9ff3893c8e)" style="fill: #0072b2; opacity: 0.55; stroke: #000000; stroke-width: 0.4; stroke-linejoin: miter"/>
   </g>
   <g id="patch_23">
    <path d="M 173.266343 218.07125 
L 176.796932 218.07125 
L 176.796932 218.07125 
L 173.266343 218.07125 
z
" clip-path="url(#p9ff3893c8e)" style="fill: #0072b2; opacity: 0.55; stroke: #000000; stroke-width: 0.4; stroke-linejoin: miter"/>
   </g>
   <g id="patch_24">
    <path d="M 176.796932 218.07125 
L 180.327521 218.07125 
L 180.327521 218.07125 
L 176.796932 218.07125 
z
" clip-path="url(#p9ff3893c8e)" style="fill: #0072b2; opacity: 0.55; stroke: #000000; stroke-width: 0.4; stroke-linejoin: miter"/>
   </g>
   <g id="patch_25">
    <path d="M 180.327521 218.07125 
L 183.85811 218.07125 
L 183.85811 218.07125 
L 180.327521 218.07125 
z
" clip-path="url(#p9ff3893c8e)" style="fill: #0072b2; opacity: 0.55; stroke: #000000; stroke-width: 0.4; stroke-linejoin: miter"/>
   </g>
   <g id="patch_26">
    <path d="M 183.85811 218.07125 
L 187.388699 218.07125 
L 187.388699 218.07125 
L 183.85811 218.07125 
z
" clip-path="url(#p9ff3893c8e)" style="fill: #0072b2; opacity: 0.55; stroke: #000000; stroke-width: 0.4; stroke-linejoin: miter"/>
   </g>
   <g id="patch_27">
    <path d="M 187.388699 218.07125 
L 190.919288 218.07125 
L 190.919288 218.07125 
L 187.388699 218.07125 
z
" clip-path="url(#p9ff3893c8e)" style="fill: #0072b2; opacity: 0.55; stroke: #000000; stroke-width: 0.4; stroke-linejoin: miter"/>
   </g>
   <g id="patch_28">
    <path d="M 190.919288 218.07125 
L 194.449877 218.07125 
L 194.449877 218.07125 
L 190.919288 218.07125 
z
" clip-path="url(#p9ff3893c8e)" style="fill: #0072b2; opacity: 0.55; stroke: #000000; stroke-width: 0.4; stroke-linejoin: miter"/>
   </g>
   <g id="patch_29">
    <path d="M 194.449877 218.07125 
L 197.980466 218.07125 
L 197.980466 218.07125 
L 194.449877 218.07125 
z
" clip-path="url(#p9ff3893c8e)" style="fill: #0072b2; opacity: 0.55; stroke: #000000; stroke-width: 0.4; stroke-linejoin: miter"/>
   </g>
   <g id="patch_30">
    <path d="M 197.980466 218.07125 
L 201.511055 218.07125 
L 201.511055 218.07125 
L 197.980466 218.07125 
z
" clip-path="url(#p9ff3893c8e)" style="fill: #0072b2; opacity: 0.55; stroke: #000000; stroke-width: 0.4; stroke-linejoin: miter"/>
   </g>
   <g id="patch_31">
    <path d="M 201.511055 218.07125 
L 205.041644 218.07125 
L 205.041644 218.07125 
L 201.511055 218.07125 
z
" clip-path="url(#p9ff3893c8e)" style="fill: #0072b2; opacity: 0.55; stroke: #000000; stroke-width: 0.4; stroke-linejoin: miter"/>
   </g>
   <g id="patch_32">
    <path d="M 205.041644 218.07125 
L 208.572233 218.07125 
L 208.572233 218.07125 
L 205.041644 218.07125 
z
" clip-path="url(#p9ff3893c8e)" style="fill: #0072b2; opacity: 0.55; stroke: #000000; stroke-width: 0.4; stroke-linejoin: miter"/>
   </g>
   <g id="patch_33">
    <path d="M 208.572233 218.07125 
L 212.102822 218.07125 
L 212.102822 216.968517 
L 208.572233 216.968517 
z
" clip-path="url(#p9ff3893c8e)" style="fill: #0072b2; opacity: 0.55; stroke: #000000; stroke-width: 0.4; stroke-linejoin: miter"/>
   </g>
   <g id="patch_34">
    <path d="M 212.102822 218.07125 
L 215.633411 218.07125 
L 215.633411 216.968517 
L 212.102822 216.968517 
z
" clip-path="url(#p9ff3893c8e)" style="fill: #0072b2; opacity: 0.55; stroke: #000000; stroke-width: 0.4; stroke-linejoin: miter"/>
   </g>
   <g id="patch_35">
    <path d="M 215.633411 218.07125 
L 219.164 218.07125 
L 219.164 218.07125 
L 215.633411 218.07125 
z
" clip-path="url(#p9ff3893c8e)" style="fill: #0072b2; opacity: 0.55; stroke: #000000; stroke-width: 0.4; stroke-linejoin: miter"/>
   </g>
   <g id="patch_36">
    <path d="M 219.164 218.07125 
L 222.694589 218.07125 
L 222.694589 216.968517 
L 219.164 216.968517 
z
" clip-path="url(#p9ff3893c8e)" style="fill: #0072b2; opacity: 0.55; stroke: #000000; stroke-width: 0.4; stroke-linejoin: miter"/>
   </g>
   <g id="patch_37">
    <path d="M 222.694589 218.07125 
L 226.225178 218.07125 
L 226.225178 173.961944 
L 222.694589 173.961944 
z
" clip-path="url(#p9ff3893c8e)" style="fill: #0072b2; opacity: 0.55; stroke: #000000; stroke-width: 0.4; stroke-linejoin: miter"/>
   </g>
   <g id="patch_38">
    <path d="M 226.225178 218.07125 
L 229.755767 218.07125 
L 229.755767 213.660319 
L 226.225178 213.660319 
z
" clip-path="url(#p9ff3893c8e)" style="fill: #0072b2; opacity: 0.55; stroke: #000000; stroke-width: 0.4; stroke-linejoin: miter"/>
   </g>
   <g id="patch_39">
    <path d="M 229.755767 218.07125 
L 233.286356 218.07125 
L 233.286356 216.968517 
L 229.755767 216.968517 
z
" clip-path="url(#p9ff3893c8e)" style="fill: #0072b2; opacity: 0.55; stroke: #000000; stroke-width: 0.4; stroke-linejoin: miter"/>
   </g>
   <g id="patch_40">
    <path d="M 233.286356 218.07125 
L 236.816945 218.07125 
L 236.816945 218.07125 
L 233.286356 218.07125 
z
" clip-path="url(#p9ff3893c8e)" style="fill: #0072b2; opacity: 0.55; stroke: #000000; stroke-width: 0.4; stroke-linejoin: miter"/>
   </g>
   <g id="patch_41">
    <path d="M 236.816945 218.07125 
L 240.347534 218.07125 
L 240.347534 218.07125 
L 236.816945 218.07125 
z
" clip-path="url(#p9ff3893c8e)" style="fill: #0072b2; opacity: 0.55; stroke: #000000; stroke-width: 0.4; stroke-linejoin: miter"/>
   </g>
   <g id="patch_42">
    <path d="M 240.347534 218.07125 
L 243.878123 218.07125 
L 243.878123 216.968517 
L 240.347534 216.968517 
z
" clip-path="url(#p9ff3893c8e)" style="fill: #0072b2; opacity: 0.55; stroke: #000000; stroke-width: 0.4; stroke-linejoin: miter"/>
   </g>
   <g id="patch_43">
    <path d="M 330.563481 218.07125 
L 332.598026 218.07125 
L 332.598026 122.391488 
L 330.563481 122.391488 
z
" clip-path="url(#p9ff3893c8e)" style="opacity: 0.55; stroke: #000000; stroke-width: 0.4; stroke-linejoin: miter"/>
   </g>
   <g id="patch_44">
    <path d="M 332.598026 218.07125 
L 334.632571 218.07125 
L 334.632571 218.07125 
L 332.598026 218.07125 
z
" clip-path="url(#p9ff3893c8e)" style="opacity: 0.55; stroke: #000000; stroke-width: 0.4; stroke-linejoin: miter"/>
   </g>
   <g id="patch_45">
    <path d="M 334.632571 218.07125 
L 336.667116 218.07125 
L 336.667116 218.07125 
L 334.632571 218.07125 
z
" clip-path="url(#p9ff3893c8e)" style="opacity: 0.55; stroke: #000000; stroke-width: 0.4; stroke-linejoin: miter"/>
   </g>
   <g id="patch_46">
    <path d="M 336.667116 218.07125 
L 338.701662 218.07125 
L 338.701662 218.07125 
L 336.667116 218.07125 
z
" clip-path="url(#p9ff3893c8e)" style="opacity: 0.55; stroke: #000000; stroke-width: 0.4; stroke-linejoin: miter"/>
   </g>
   <g id="patch_47">
    <path d="M 338.701662 218.07125 
L 340.736207 218.07125 
L 340.736207 218.07125 
L 338.701662 218.07125 
z
" clip-path="url(#p9ff3893c8e)" style="opacity: 0.55; stroke: #000000; stroke-width: 0.4; stroke-linejoin: miter"/>
   </g>
   <g id="patch_48">
    <path d="M 340.736207 218.07125 
L 342.770752 218.07125 
L 342.770752 218.07125 
L 340.736207 218.07125 
z
" clip-path="url(#p9ff3893c8e)" style="opacity: 0.55; stroke: #000000; stroke-width: 0.4; stroke-linejoin: miter"/>
   </g>
   <g id="patch_49">
    <path d="M 342.770752 218.07125 
L 344.805297 218.07125 
L 344.805297 218.07125 
L 342.770752 218.07125 
z
" clip-path="url(#p9ff3893c8e)" style="opacity: 0.55; stroke: #000000; stroke-width: 0.4; stroke-linejoin: miter"/>
   </g>
   <g id="patch_50">
    <path d="M 344.805297 218.07125 
L 346.839842 218.07125 
L 346.839842 218.07125 
L 344.805297 218.07125 
z
" clip-path="url(#p9ff3893c8e)" style="opacity: 0.55; stroke: #000000; stroke-width: 0.4; stroke-linejoin: miter"/>
   </g>
   <g id="patch_51">
    <path d="M 346.839842 218.07125 
L 348.874387 218.07125 
L 348.874387 26.711726 
L 346.839842 26.711726 
z
" clip-path="url(#p9ff3893c8e)" style="opacity: 0.55; stroke: #000000; stroke-width: 0.4; stroke-linejoin: miter"/>
   </g>
   <g id="patch_52">
    <path d="M 348.874387 218.07125 
L 350.908932 218.07125 
L 350.908932 218.07125 
L 348.874387 218.07125 
z
" clip-path="url(#p9ff3893c8e)" style="opacity: 0.55; stroke: #000000; stroke-width: 0.4; stroke-linejoin: miter"/>
   </g>
   <g id="patch_53">
    <path d="M 350.908932 218.07125 
L 352.943477 218.07125 
L 352.943477 218.07125 
L 350.908932 218.07125 
z
" clip-path="url(#p9ff3893c8e)" style="opacity: 0.55; stroke: #000000; stroke-width: 0.4; stroke-linejoin: miter"/>
   </g>
   <g id="patch_54">
    <path d="M 352.943477 218.07125 
L 354.978022 218.07125 
L 354.978022 218.07125 
L 352.943477 218.07125 
z
" clip-path="url(#p9ff3893c8e)" style="opacity: 0.55; stroke: #000000; stroke-width: 0.4; stroke-linejoin: miter"/>
   </g>
   <g id="patch_55">
    <path d="M 354.978022 218.07125 
L 357.012567 218.07125 
L 357.012567 218.07125 
L 354.978022 218.07125 
z
" clip-path="url(#p9ff3893c8e)" style="opacity: 0.55; stroke: #000000; stroke-width: 0.4; stroke-linejoin: miter"/>
   </g>
   <g id="patch_56">
    <path d="M 357.012567 218.07125 
L 359.047112 218.07125 
L 359.047112 218.07125 
L 357.012567 218.07125 
z
" clip-path="url(#p9ff3893c8e)" style="opacity: 0.55; stroke: #000000; stroke-width: 0.4; stroke-linejoin: miter"/>
   </g>
   <g id="patch_57">
    <path d="M 359.047112 218.07125 
L 361.081657 218.07125 
L 361.081657 218.07125 
L 359.047112 218.07125 
z
" clip-path="url(#p9ff3893c8e)" style="opacity: 0.55; stroke: #000000; stroke-width: 0.4; stroke-linejoin: miter"/>
   </g>
   <g id="patch_58">
    <path d="M 361.081657 218.07125 
L 363.116202 218.07125 
L 363.116202 218.07125 
L 361.081657 218.07125 
z
" clip-path="url(#p9ff3893c8e)" style="opacity: 0.55; stroke: #000000; stroke-width: 0.4; stroke-linejoin: miter"/>
   </g>
   <g id="patch_59">
    <path d="M 363.116202 218.07125 
L 365.150747 218.07125 
L 365.150747 218.07125 
L 363.116202 218.07125 
z
" clip-path="url(#p9ff3893c8e)" style="opacity: 0.55; stroke: #000000; stroke-width: 0.4; stroke-linejoin: miter"/>
   </g>
   <g id="patch_60">
    <path d="M 365.150747 218.07125 
L 367.185293 218.07125 
L 367.185293 218.07125 
L 365.150747 218.07125 
z
" clip-path="url(#p9ff3893c8e)" style="opacity: 0.55; stroke: #000000; stroke-width: 0.4; stroke-linejoin: miter"/>
   </g>
   <g id="patch_61">
    <path d="M 367.185293 218.07125 
L 369.219838 218.07125 
L 369.219838 218.07125 
L 367.185293 218.07125 
z
" clip-path="url(#p9ff3893c8e)" style="opacity: 0.55; stroke: #000000; stroke-width: 0.4; stroke-linejoin: miter"/>
   </g>
   <g id="patch_62">
    <path d="M 369.219838 218.07125 
L 371.254383 218.07125 
L 371.254383 122.391488 
L 369.219838 122.391488 
z
" clip-path="url(#p9ff3893c8e)" style="opacity: 0.55; stroke: #000000; stroke-width: 0.4; stroke-linejoin: miter"/>
   </g>
   <g id="patch_63">
    <path d="M 371.254383 218.07125 
L 373.288928 218.07125 
L 373.288928 218.07125 
L 371.254383 218.07125 
z
" clip-path="url(#p9ff3893c8e)" style="opacity: 0.55; stroke: #000000; stroke-width: 0.4; stroke-linejoin: miter"/>
   </g>
   <g id="patch_64">
    <path d="M 373.288928 218.07125 
L 375.323473 218.07125 
L 375.323473 218.07125 
L 373.288928 218.07125 
z
" clip-path="url(#p9ff3893c8e)" style="opacity: 0.55; stroke: #000000; stroke-width: 0.4; stroke-linejoin: miter"/>
   </g>
   <g id="patch_65">
    <path d="M 375.323473 218.07125 
L 377.358018 218.07125 
L 377.358018 218.07125 
L 375.323473 218.07125 
z
" clip-path="url(#p9ff3893c8e)" style="opacity: 0.55; stroke: #000000; stroke-width: 0.4; stroke-linejoin: miter"/>
   </g>
   <g id="patch_66">
    <path d="M 377.358018 218.07125 
L 379.392563 218.07125 
L 379.392563 218.07125 
L 377.358018 218.07125 
z
" clip-path="url(#p9ff3893c8e)" style="opacity: 0.55; stroke: #000000; stroke-width: 0.4; stroke-linejoin: miter"/>
   </g>
   <g id="patch_67">
    <path d="M 379.392563 218.07125 
L 381.427108 218.07125 
L 381.427108 122.391488 
L 379.392563 122.391488 
z
" clip-path="url(#p9ff3893c8e)" style="opacity: 0.55; stroke: #000000; stroke-width: 0.4; stroke-linejoin: miter"/>
   </g>
   <g id="patch_68">
    <path d="M 381.427108 218.07125 
L 383.461653 218.07125 
L 383.461653 218.07125 
L 381.427108 218.07125 
z
" clip-path="url(#p9ff3893c8e)" style="opacity: 0.55; stroke: #000000; stroke-width: 0.4; stroke-linejoin: miter"/>
   </g>
   <g id="patch_69">
    <path d="M 383.461653 218.07125 
L 385.496198 218.07125 
L 385.496198 218.07125 
L 383.461653 218.07125 
z
" clip-path="url(#p9ff3893c8e)" style="opacity: 0.55; stroke: #000000; stroke-width: 0.4; stroke-linejoin: miter"/>
   </g>
   <g id="patch_70">
    <path d="M 385.496198 218.07125 
L 387.530743 218.07125 
L 387.530743 218.07125 
L 385.496198 218.07125 
z
" clip-path="url(#p9ff3893c8e)" style="opacity: 0.55; stroke: #000000; stroke-width: 0.4; stroke-linejoin: miter"/>
   </g>
   <g id="patch_71">
    <path d="M 387.530743 218.07125 
L 389.565288 218.07125 
L 389.565288 218.07125 
L 387.530743 218.07125 
z
" clip-path="url(#p9ff3893c8e)" style="opacity: 0.55; stroke: #000000; stroke-width: 0.4; stroke-linejoin: miter"/>
   </g>
   <g id="patch_72">
    <path d="M 389.565288 218.07125 
L 391.599833 218.07125 
L 391.599833 218.07125 
L 389.565288 218.07125 
z
" clip-path="url(#p9ff3893c8e)" style="opacity: 0.55; stroke: #000000; stroke-width: 0.4; stroke-linejoin: miter"/>
   </g>
   <g id="patch_73">
    <path d="M 391.599833 218.07125 
L 393.634378 218.07125 
L 393.634378 218.07125 
L 391.599833 218.07125 
z
" clip-path="url(#p9ff3893c8e)" style="opacity: 0.55; stroke: #000000; stroke-width: 0.4; stroke-linejoin: miter"/>
   </g>
   <g id="patch_74">
    <path d="M 393.634378 218.07125 
L 395.668924 218.07125 
L 395.668924 218.07125 
L 393.634378 218.07125 
z
" clip-path="url(#p9ff3893c8e)" style="opacity: 0.55; stroke: #000000; stroke-width: 0.4; stroke-linejoin: miter"/>
   </g>
   <g id="patch_75">
    <path d="M 395.668924 218.07125 
L 397.703469 218.07125 
L 397.703469 218.07125 
L 395.668924 218.07125 
z
" clip-path="url(#p9ff3893c8e)" style="opacity: 0.55; stroke: #000000; stroke-width: 0.4; stroke-linejoin: miter"/>
   </g>
   <g id="patch_76">
    <path d="M 397.703469 218.07125 
L 399.738014 218.07125 
L 399.738014 218.07125 
L 397.703469 218.07125 
z
" clip-path="url(#p9ff3893c8e)" style="opacity: 0.55; stroke: #000000; stroke-width: 0.4; stroke-linejoin: miter"/>
   </g>
   <g id="patch_77">
    <path d="M 399.738014 218.07125 
L 401.772559 218.07125 
L 401.772559 218.07125 
L 399.738014 218.07125 
z
" clip-path="url(#p9ff3893c8e)" style="opacity: 0.55; stroke: #000000; stroke-width: 0.4; stroke-linejoin: miter"/>
   </g>
   <g id="patch_78">
    <path d="M 401.772559 218.07125 
L 403.807104 218.07125 
L 403.807104 218.07125 
L 401.772559 218.07125 
z
" clip-path="url(#p9ff3893c8e)" style="opacity: 0.55; stroke: #000000; stroke-width: 0.4; stroke-linejoin: miter"/>
   </g>
   <g id="patch_79">
    <path d="M 403.807104 218.07125 
L 405.841649 218.07125 
L 405.841649 218.07125 
L 403.807104 218.07125 
z
" clip-path="url(#p9ff3893c8e)" style="opacity: 0.55; stroke: #000000; stroke-width: 0.4; stroke-linejoin: miter"/>
   </g>
   <g id="patch_80">
    <path d="M 405.841649 218.07125 
L 407.876194 218.07125 
L 407.876194 218.07125 
L 405.841649 218.07125 
z
" clip-path="url(#p9ff3893c8e)" style="opacity: 0.55; stroke: #000000; stroke-width: 0.4; stroke-linejoin: miter"/>
   </g>
   <g id="patch_81">
    <path d="M 407.876194 218.07125 
L 409.910739 218.07125 
L 409.910739 218.07125 
L 407.876194 218.07125 
z
" clip-path="url(#p9ff3893c8e)" style="opacity: 0.55; stroke: #000000; stroke-width: 0.4; stroke-linejoin: miter"/>
   </g>
   <g id="patch_82">
    <path d="M 409.910739 218.07125 
L 411.945284 218.07125 
L 411.945284 122.391488 
L 409.910739 122.391488 
z
" clip-path="url(#p9ff3893c8e)" style="opacity: 0.55; stroke: #000000; stroke-width: 0.4; stroke-linejoin: miter"/>
   </g>
   <g id="patch_83">
    <path d="M 81.372547 218.07125 
L 83.007572 218.07125 
L 83.007572 99.012101 
L 81.372547 99.012101 
z
" clip-path="url(#p9ff3893c8e)" style="fill: #e69f00; opacity: 0.55; stroke: #000000; stroke-width: 0.4; stroke-linejoin: miter"/>
   </g>
   <g id="patch_84">
    <path d="M 83.007572 218.07125 
L 84.642598 218.07125 
L 84.642598 218.07125 
L 83.007572 218.07125 
z
" clip-path="url(#p9ff3893c8e)" style="fill: #e69f00; opacity: 0.55; stroke: #000000; stroke-width: 0.4; stroke-linejoin: miter"/>
   </g>
   <g id="patch_85">
    <path d="M 84.642598 218.07125 
L 86.277624 218.07125 
L 86.277624 218.07125 
L 84.642598 218.07125 
z
" clip-path="url(#p9ff3893c8e)" style="fill: #e69f00; opacity: 0.55; stroke: #000000; stroke-width: 0.4; stroke-linejoin: miter"/>
   </g>
   <g id="patch_86">
    <path d="M 86.277624 218.07125 
L 87.91265 218.07125 
L 87.91265 218.07125 
L 86.277624 218.07125 
z
" clip-path="url(#p9ff3893c8e)" style="fill: #e69f00; opacity: 0.55; stroke: #000000; stroke-width: 0.4; stroke-linejoin: miter"/>
   </g>
   <g id="patch_87">
    <path d="M 87.91265 218.07125 
L 89.547676 218.07125 
L 89.547676 218.07125 
L 87.91265 218.07125 
z
" clip-path="url(#p9ff3893c8e)" style="fill: #e69f00; opacity: 0.55; stroke: #000000; stroke-width: 0.4; stroke-linejoin: miter"/>
   </g>
   <g id="patch_88">
    <path d="M 89.547676 218.07125 
L 91.182702 218.07125 
L 91.182702 218.07125 
L 89.547676 218.07125 
z
" clip-path="url(#p9ff3893c8e)" style="fill: #e69f00; opacity: 0.55; stroke: #000000; stroke-width: 0.4; stroke-linejoin: miter"/>
   </g>
   <g id="patch_89">
    <path d="M 91.182702 218.07125 
L 92.817728 218.07125 
L 92.817728 218.07125 
L 91.182702 218.07125 
z
" clip-path="url(#p9ff3893c8e)" style="fill: #e69f00; opacity: 0.55; stroke: #000000; stroke-width: 0.4; stroke-linejoin: miter"/>
   </g>
   <g id="patch_90">
    <path d="M 92.817728 218.07125 
L 94.452753 218.07125 
L 94.452753 218.07125 
L 92.817728 218.07125 
z
" clip-path="url(#p9ff3893c8e)" style="fill: #e69f00; opacity: 0.55; stroke: #000000; stroke-width: 0.4; stroke-linejoin: miter"/>
   </g>
   <g id="patch_91">
    <path d="M 94.452753 218.07125 
L 96.087779 218.07125 
L 96.087779 218.07125 
L 94.452753 218.07125 
z
" clip-path="url(#p9ff3893c8e)" style="fill: #e69f00; opacity: 0.55; stroke: #000000; stroke-width: 0.4; stroke-linejoin: miter"/>
   </g>
   <g id="patch_92">
    <path d="M 96.087779 218.07125 
L 97.722805 218.07125 
L 97.722805 218.07125 
L 96.087779 218.07125 
z
" clip-path="url(#p9ff3893c8e)" style="fill: #e69f00; opacity: 0.55; stroke: #000000; stroke-width: 0.4; stroke-linejoin: miter"/>
   </g>
   <g id="patch_93">
    <path d="M 97.722805 218.07125 
L 99.357831 218.07125 
L 99.357831 218.07125 
L 97.722805 218.07125 
z
" clip-path="url(#p9ff3893c8e)" style="fill: #e69f00; opacity: 0.55; stroke: #000000; stroke-width: 0.4; stroke-linejoin: miter"/>
   </g>
   <g id="patch_94">
    <path d="M 99.357831 218.07125 
L 100.992857 218.07125 
L 100.992857 99.012101 
L 99.357831 99.012101 
z
" clip-path="url(#p9ff3893c8e)" style="fill: #e69f00; opacity: 0.55; stroke: #000000; stroke-width: 0.4; stroke-linejoin: miter"/>
   </g>
   <g id="patch_95">
    <path d="M 100.992857 218.07125 
L 102.627883 218.07125 
L 102.627883 99.012101 
L 100.992857 99.012101 
z
" clip-path="url(#p9ff3893c8e)" style="fill: #e69f00; opacity: 0.55; stroke: #000000; stroke-width: 0.4; stroke-linejoin: miter"/>
   </g>
   <g id="patch_96">
    <path d="M 102.627883 218.07125 
L 104.262909 218.07125 
L 104.262909 218.07125 
L 102.627883 218.07125 
z
" clip-path="url(#p9ff3893c8e)" style="fill: #e69f00; opacity: 0.55; stroke: #000000; stroke-width: 0.4; stroke-linejoin: miter"/>
   </g>
   <g id="patch_97">
    <path d="M 104.262909 218.07125 
L 105.897935 218.07125 
L 105.897935 218.07125 
L 104.262909 218.07125 
z
" clip-path="url(#p9ff3893c8e)" style="fill: #e69f00; opacity: 0.55; stroke: #000000; stroke-width: 0.4; stroke-linejoin: miter"/>
   </g>
   <g id="patch_98">
    <path d="M 105.897935 218.07125 
L 107.53296 218.07125 
L 107.53296 218.07125 
L 105.897935 218.07125 
z
" clip-path="url(#p9ff3893c8e)" style="fill: #e69f00; opacity: 0.55; stroke: #000000; stroke-width: 0.4; stroke-linejoin: miter"/>
   </g>
   <g id="patch_99">
    <path d="M 107.53296 218.07125 
L 109.167986 218.07125 
L 109.167986 218.07125 
L 107.53296 218.07125 
z
" clip-path="url(#p9ff3893c8e)" style="fill: #e69f00; opacity: 0.55; stroke: #000000; stroke-width: 0.4; stroke-linejoin: miter"/>
   </g>
   <g id="patch_100">
    <path d="M 109.167986 218.07125 
L 110.803012 218.07125 
L 110.803012 218.07125 
L 109.167986 218.07125 
z
" clip-path="url(#p9ff3893c8e)" style="fill: #e69f00; opacity: 0.55; stroke: #000000; stroke-width: 0.4; stroke-linejoin: miter"/>
   </g>
   <g id="patch_101">
    <path d="M 110.803012 218.07125 
L 112.438038 218.07125 
L 112.438038 218.07125 
L 110.803012 218.07125 
z
" clip-path="url(#p9ff3893c8e)" style="fill: #e69f00; opacity: 0.55; stroke: #000000; stroke-width: 0.4; stroke-linejoin: miter"/>
   </g>
   <g id="patch_102">
    <path d="M 112.438038 218.07125 
L 114.073064 218.07125 
L 114.073064 218.07125 
L 112.438038 218.07125 
z
" clip-path="url(#p9ff3893c8e)" style="fill: #e69f00; opacity: 0.55; stroke: #000000; stroke-width: 0.4; stroke-linejoin: miter"/>
   </g>
   <g id="patch_103">
    <path d="M 114.073064 218.07125 
L 115.70809 218.07125 
L 115.70809 218.07125 
L 114.073064 218.07125 
z
" clip-path="url(#p9ff3893c8e)" style="fill: #e69f00; opacity: 0.55; stroke: #000000; stroke-width: 0.4; stroke-linejoin: miter"/>
   </g>
   <g id="patch_104">
    <path d="M 115.70809 218.07125 
L 117.343116 218.07125 
L 117.343116 218.07125 
L 115.70809 218.07125 
z
" clip-path="url(#p9ff3893c8e)" style="fill: #e69f00; opacity: 0.55; stroke: #000000; stroke-width: 0.4; stroke-linejoin: miter"/>
   </g>
   <g id="patch_105">
    <path d="M 117.343116 218.07125 
L 118.978141 218.07125 
L 118.978141 218.07125 
L 117.343116 218.07125 
z
" clip-path="url(#p9ff3893c8e)" style="fill: #e69f00; opacity: 0.55; stroke: #000000; stroke-width: 0.4; stroke-linejoin: miter"/>
   </g>
   <g id="patch_106">
    <path d="M 118.978141 218.07125 
L 120.613167 218.07125 
L 120.613167 218.07125 
L 118.978141 218.07125 
z
" clip-path="url(#p9ff3893c8e)" style="fill: #e69f00; opacity: 0.55; stroke: #000000; stroke-width: 0.4; stroke-linejoin: miter"/>
   </g>
   <g id="patch_107">
    <path d="M 120.613167 218.07125 
L 122.248193 218.07125 
L 122.248193 99.012101 
L 120.613167 99.012101 
z
" clip-path="url(#p9ff3893c8e)" style="fill: #e69f00; opacity: 0.55; stroke: #000000; stroke-width: 0.4; stroke-linejoin: miter"/>
   </g>
   <g id="patch_108">
    <path d="M 122.248193 218.07125 
L 123.883219 218.07125 
L 123.883219 218.07125 
L 122.248193 218.07125 
z
" clip-path="url(#p9ff3893c8e)" style="fill: #e69f00; opacity: 0.55; stroke: #000000; stroke-width: 0.4; stroke-linejoin: miter"/>
   </g>
   <g id="patch_109">
    <path d="M 123.883219 218.07125 
L 125.518245 218.07125 
L 125.518245 218.07125 
L 123.883219 218.07125 
z
" clip-path="url(#p9ff3893c8e)" style="fill: #e69f00; opacity: 0.55; stroke: #000000; stroke-width: 0.4; stroke-linejoin: miter"/>
   </g>
   <g id="patch_110">
    <path d="M 125.518245 218.07125 
L 127.153271 218.07125 
L 127.153271 218.07125 
L 125.518245 218.07125 
z
" clip-path="url(#p9ff3893c8e)" style="fill: #e69f00; opacity: 0.55; stroke: #000000; stroke-width: 0.4; stroke-linejoin: miter"/>
   </g>
   <g id="patch_111">
    <path d="M 127.153271 218.07125 
L 128.788297 218.07125 
L 128.788297 218.07125 
L 127.153271 218.07125 
z
" clip-path="url(#p9ff3893c8e)" style="fill: #e69f00; opacity: 0.55; stroke: #000000; stroke-width: 0.4; stroke-linejoin: miter"/>
   </g>
   <g id="patch_112">
    <path d="M 128.788297 218.07125 
L 130.423323 218.07125 
L 130.423323 218.07125 
L 128.788297 218.07125 
z
" clip-path="url(#p9ff3893c8e)" style="fill: #e69f00; opacity: 0.55; stroke: #000000; stroke-width: 0.4; stroke-linejoin: miter"/>
   </g>
   <g id="patch_113">
    <path d="M 130.423323 218.07125 
L 132.058348 218.07125 
L 132.058348 218.07125 
L 130.423323 218.07125 
z
" clip-path="url(#p9ff3893c8e)" style="fill: #e69f00; opacity: 0.55; stroke: #000000; stroke-width: 0.4; stroke-linejoin: miter"/>
   </g>
   <g id="patch_114">
    <path d="M 132.058348 218.07125 
L 133.693374 218.07125 
L 133.693374 218.07125 
L 132.058348 218.07125 
z
" clip-path="url(#p9ff3893c8e)" style="fill: #e69f00; opacity: 0.55; stroke: #000000; stroke-width: 0.4; stroke-linejoin: miter"/>
   </g>
   <g id="patch_115">
    <path d="M 133.693374 218.07125 
L 135.3284 218.07125 
L 135.3284 218.07125 
L 133.693374 218.07125 
z
" clip-path="url(#p9ff3893c8e)" style="fill: #e69f00; opacity: 0.55; stroke: #000000; stroke-width: 0.4; stroke-linejoin: miter"/>
   </g>
   <g id="patch_116">
    <path d="M 135.3284 218.07125 
L 136.963426 218.07125 
L 136.963426 218.07125 
L 135.3284 218.07125 
z
" clip-path="url(#p9ff3893c8e)" style="fill: #e69f00; opacity: 0.55; stroke: #000000; stroke-width: 0.4; stroke-linejoin: miter"/>
   </g>
   <g id="patch_117">
    <path d="M 136.963426 218.07125 
L 138.598452 218.07125 
L 138.598452 99.012101 
L 136.963426 99.012101 
z
" clip-path="url(#p9ff3893c8e)" style="fill: #e69f00; opacity: 0.55; stroke: #000000; stroke-width: 0.4; stroke-linejoin: miter"/>
   </g>
   <g id="patch_118">
    <path d="M 138.598452 218.07125 
L 140.233478 218.07125 
L 140.233478 218.07125 
L 138.598452 218.07125 
z
" clip-path="url(#p9ff3893c8e)" style="fill: #e69f00; opacity: 0.55; stroke: #000000; stroke-width: 0.4; stroke-linejoin: miter"/>
   </g>
   <g id="patch_119">
    <path d="M 140.233478 218.07125 
L 141.868504 218.07125 
L 141.868504 218.07125 
L 140.233478 218.07125 
z
" clip-path="url(#p9ff3893c8e)" style="fill: #e69f00; opacity: 0.55; stroke: #000000; stroke-width: 0.4; stroke-linejoin: miter"/>
   </g>
   <g id="patch_120">
    <path d="M 141.868504 218.07125 
L 143.503529 218.07125 
L 143.503529 218.07125 
L 141.868504 218.07125 
z
" clip-path="url(#p9ff3893c8e)" style="fill: #e69f00; opacity: 0.55; stroke: #000000; stroke-width: 0.4; stroke-linejoin: miter"/>
   </g>
   <g id="patch_121">
    <path d="M 143.503529 218.07125 
L 145.138555 218.07125 
L 145.138555 218.07125 
L 143.503529 218.07125 
z
" clip-path="url(#p9ff3893c8e)" style="fill: #e69f00; opacity: 0.55; stroke: #000000; stroke-width: 0.4; stroke-linejoin: miter"/>
   </g>
   <g id="patch_122">
    <path d="M 145.138555 218.07125 
L 146.773581 218.07125 
L 146.773581 99.012101 
L 145.138555 99.012101 
z
" clip-path="url(#p9ff3893c8e)" style="fill: #e69f00; opacity: 0.55; stroke: #000000; stroke-width: 0.4; stroke-linejoin: miter"/>
   </g>
   <g id="patch_123">
    <path d="M 52.113466 218.07125 
L 56.942182 218.07125 
L 56.942182 214.846131 
L 52.113466 214.846131 
z
" clip-path="url(#p9ff3893c8e)" style="fill: #56b4e9; opacity: 0.55; stroke: #000000; stroke-width: 0.4; stroke-linejoin: miter"/>
   </g>
   <g id="patch_124">
    <path d="M 56.942182 218.07125 
L 61.770897 218.07125 
L 61.770897 215.652411 
L 56.942182 215.652411 
z
" clip-path="url(#p9ff3893c8e)" style="fill: #56b4e9; opacity: 0.55; stroke: #000000; stroke-width: 0.4; stroke-linejoin: miter"/>
   </g>
   <g id="patch_125">
    <path d="M 61.770897 218.07125 
L 66.599613 218.07125 
L 66.599613 214.846131 
L 61.770897 214.846131 
z
" clip-path="url(#p9ff3893c8e)" style="fill: #56b4e9; opacity: 0.55; stroke: #000000; stroke-width: 0.4; stroke-linejoin: miter"/>
   </g>
   <g id="patch_126">
    <path d="M 66.599613 218.07125 
L 71.428329 218.07125 
L 71.428329 210.008452 
L 66.599613 210.008452 
z
" clip-path="url(#p9ff3893c8e)" style="fill: #56b4e9; opacity: 0.55; stroke: #000000; stroke-width: 0.4; stroke-linejoin: miter"/>
   </g>
   <g id="patch_127">
    <path d="M 71.428329 218.07125 
L 76.257045 218.07125 
L 76.257045 210.814732 
L 71.428329 210.814732 
z
" clip-path="url(#p9ff3893c8e)" style="fill: #56b4e9; opacity: 0.55; stroke: #000000; stroke-width: 0.4; stroke-linejoin: miter"/>
   </g>
   <g id="patch_128">
    <path d="M 76.257045 218.07125 
L 81.08576 218.07125 
L 81.08576 210.814732 
L 76.257045 210.814732 
z
" clip-path="url(#p9ff3893c8e)" style="fill: #56b4e9; opacity: 0.55; stroke: #000000; stroke-width: 0.4; stroke-linejoin: miter"/>
   </g>
   <g id="patch_129">
    <path d="M 81.08576 218.07125 
L 85.914476 218.07125 
L 85.914476 210.008452 
L 81.08576 210.008452 
z
" clip-path="url(#p9ff3893c8e)" style="fill: #56b4e9; opacity: 0.55; stroke: #000000; stroke-width: 0.4; stroke-linejoin: miter"/>
   </g>
   <g id="patch_130">
    <path d="M 85.914476 218.07125 
L 90.743192 218.07125 
L 90.743192 210.814732 
L 85.914476 210.814732 
z
" clip-path="url(#p9ff3893c8e)" style="fill: #56b4e9; opacity: 0.55; stroke: #000000; stroke-width: 0.4; stroke-linejoin: miter"/>
   </g>
   <g id="patch_131">
    <path d="M 90.743192 218.07125 
L 95.571908 218.07125 
L 95.571908 205.977054 
L 90.743192 205.977054 
z
" clip-path="url(#p9ff3893c8e)" style="fill: #56b4e9; opacity: 0.55; stroke: #000000; stroke-width: 0.4; stroke-linejoin: miter"/>
   </g>
   <g id="patch_132">
    <path d="M 95.571908 218.07125 
L 100.400623 218.07125 
L 100.400623 207.589613 
L 95.571908 207.589613 
z
" clip-path="url(#p9ff3893c8e)" style="fill: #56b4e9; opacity: 0.55; stroke: #000000; stroke-width: 0.4; stroke-linejoin: miter"/>
   </g>
   <g id="patch_133">
    <path d="M 100.400623 218.07125 
L 105.229339 218.07125 
L 105.229339 206.783333 
L 100.400623 206.783333 
z
" clip-path="url(#p9ff3893c8e)" style="fill: #56b4e9; opacity: 0.55; stroke: #000000; stroke-width: 0.4; stroke-linejoin: miter"/>
   </g>
   <g id="patch_134">
    <path d="M 105.229339 218.07125 
L 110.058055 218.07125 
L 110.058055 205.170774 
L 105.229339 205.170774 
z
" clip-path="url(#p9ff3893c8e)" style="fill: #56b4e9; opacity: 0.55; stroke: #000000; stroke-width: 0.4; stroke-linejoin: miter"/>
   </g>
   <g id="patch_135">
    <path d="M 110.058055 218.07125 
L 114.886771 218.07125 
L 114.886771 205.977054 
L 110.058055 205.977054 
z
" clip-path="url(#p9ff3893c8e)" style="fill: #56b4e9; opacity: 0.55; stroke: #000000; stroke-width: 0.4; stroke-linejoin: miter"/>
   </g>
   <g id="patch_136">
    <path d="M 114.886771 218.07125 
L 119.715486 218.07125 
L 119.715486 201.139375 
L 114.886771 201.139375 
z
" clip-path="url(#p9ff3893c8e)" style="fill: #56b4e9; opacity: 0.55; stroke: #000000; stroke-width: 0.4; stroke-linejoin: miter"/>
   </g>
   <g id="patch_137">
    <path d="M 119.715486 218.07125 
L 124.544202 218.07125 
L 124.544202 200.333095 
L 119.715486 200.333095 
z
" clip-path="url(#p9ff3893c8e)" style="fill: #56b4e9; opacity: 0.55; stroke: #000000; stroke-width: 0.4; stroke-linejoin: miter"/>
   </g>
   <g id="patch_138">
    <path d="M 124.544202 218.07125 
L 129.372918 218.07125 
L 129.372918 204.364494 
L 124.544202 204.364494 
z
" clip-path="url(#p9ff3893c8e)" style="fill: #56b4e9; opacity: 0.55; stroke: #000000; stroke-width: 0.4; stroke-linejoin: miter"/>
   </g>
   <g id="patch_139">
    <path d="M 129.372918 218.07125 
L 134.201634 218.07125 
L 134.201634 210.008452 
L 129.372918 210.008452 
z
" clip-path="url(#p9ff3893c8e)" style="fill: #56b4e9; opacity: 0.55; stroke: #000000; stroke-width: 0.4; stroke-linejoin: miter"/>
   </g>
   <g id="patch_140">
    <path d="M 134.201634 218.07125 
L 139.03035 218.07125 
L 139.03035 209.202173 
L 134.201634 209.202173 
z
" clip-path="url(#p9ff3893c8e)" style="fill: #56b4e9; opacity: 0.55; stroke: #000000; stroke-width: 0.4; stroke-linejoin: miter"/>
   </g>
   <g id="patch_141">
    <path d="M 139.03035 218.07125 
L 143.859065 218.07125 
L 143.859065 205.977054 
L 139.03035 205.977054 
z
" clip-path="url(#p9ff3893c8e)" style="fill: #56b4e9; opacity: 0.55; stroke: #000000; stroke-width: 0.4; stroke-linejoin: miter"/>
   </g>
   <g id="patch_142">
    <path d="M 143.859065 218.07125 
L 148.687781 218.07125 
L 148.687781 211.621012 
L 143.859065 211.621012 
z
" clip-path="url(#p9ff3893c8e)" style="fill: #56b4e9; opacity: 0.55; stroke: #000000; stroke-width: 0.4; stroke-linejoin: miter"/>
   </g>
   <g id="patch_143">
    <path d="M 148.687781 218.07125 
L 153.516497 218.07125 
L 153.516497 210.008452 
L 148.687781 210.008452 
z
" clip-path="url(#p9ff3893c8e)" style="fill: #56b4e9; opacity: 0.55; stroke: #000000; stroke-width: 0.4; stroke-linejoin: miter"/>
   </g>
   <g id="patch_144">
    <path d="M 153.516497 218.07125 
L 158.345213 218.07125 
L 158.345213 209.202173 
L 153.516497 209.202173 
z
" clip-path="url(#p9ff3893c8e)" style="fill: #56b4e9; opacity: 0.55; stroke: #000000; stroke-width: 0.4; stroke-linejoin: miter"/>
   </g>
   <g id="patch_145">
    <path d="M 158.345213 218.07125 
L 163.173928 218.07125 
L 163.173928 211.621012 
L 158.345213 211.621012 
z
" clip-path="url(#p9ff3893c8e)" style="fill: #56b4e9; opacity: 0.55; stroke: #000000; stroke-width: 0.4; stroke-linejoin: miter"/>
   </g>
   <g id="patch_146">
    <path d="M 163.173928 218.07125 
L 168.002644 218.07125 
L 168.002644 214.846131 
L 163.173928 214.846131 
z
" clip-path="url(#p9ff3893c8e)" style="fill: #56b4e9; opacity: 0.55; stroke: #000000; stroke-width: 0.4; stroke-linejoin: miter"/>
   </g>
   <g id="patch_147">
    <path d="M 168.002644 218.07125 
L 172.83136 218.07125 
L 172.83136 210.814732 
L 168.002644 210.814732 
z
" clip-path="url(#p9ff3893c8e)" style="fill: #56b4e9; opacity: 0.55; stroke: #000000; stroke-width: 0.4; stroke-linejoin: miter"/>
   </g>
   <g id="patch_148">
    <path d="M 172.83136 218.07125 
L 177.660076 218.07125 
L 177.660076 215.652411 
L 172.83136 215.652411 
z
" clip-path="url(#p9ff3893c8e)" style="fill: #56b4e9; opacity: 0.55; stroke: #000000; stroke-width: 0.4; stroke-linejoin: miter"/>
   </g>
   <g id="patch_149">
    <path d="M 177.660076 218.07125 
L 182.488791 218.07125 
L 182.488791 213.233571 
L 177.660076 213.233571 
z
" clip-path="url(#p9ff3893c8e)" style="fill: #56b4e9; opacity: 0.55; stroke: #000000; stroke-width: 0.4; stroke-linejoin: miter"/>
   </g>
   <g id="patch_150">
    <path d="M 182.488791 218.07125 
L 187.317507 218.07125 
L 187.317507 215.652411 
L 182.488791 215.652411 
z
" clip-path="url(#p9ff3893c8e)" style="fill: #56b4e9; opacity: 0.55; stroke: #000000; stroke-width: 0.4; stroke-linejoin: miter"/>
   </g>
   <g id="patch_151">
    <path d="M 187.317507 218.07125 
L 192.146223 218.07125 
L 192.146223 216.45869 
L 187.317507 216.45869 
z
" clip-path="url(#p9ff3893c8e)" style="fill: #56b4e9; opacity: 0.55; stroke: #000000; stroke-width: 0.4; stroke-linejoin: miter"/>
   </g>
   <g id="patch_152">
    <path d="M 192.146223 218.07125 
L 196.974939 218.07125 
L 196.974939 216.45869 
L 192.146223 216.45869 
z
" clip-path="url(#p9ff3893c8e)" style="fill: #56b4e9; opacity: 0.55; stroke: #000000; stroke-width: 0.4; stroke-linejoin: miter"/>
   </g>
   <g id="patch_153">
    <path d="M 196.974939 218.07125 
L 201.803654 218.07125 
L 201.803654 217.26497 
L 196.974939 217.26497 
z
" clip-path="url(#p9ff3893c8e)" style="fill: #56b4e9; opacity: 0.55; stroke: #000000; stroke-width: 0.4; stroke-linejoin: miter"/>
   </g>
   <g id="patch_154">
    <path d="M 201.803654 218.07125 
L 206.63237 218.07125 
L 206.63237 217.26497 
L 201.803654 217.26497 
z
" clip-path="url(#p9ff3893c8e)" style="fill: #56b4e9; opacity: 0.55; stroke: #000000; stroke-width: 0.4; stroke-linejoin: miter"/>
   </g>
   <g id="patch_155">
    <path d="M 206.63237 218.07125 
L 211.461086 218.07125 
L 211.461086 217.26497 
L 206.63237 217.26497 
z
" clip-path="url(#p9ff3893c8e)" style="fill: #56b4e9; opacity: 0.55; stroke: #000000; stroke-width: 0.4; stroke-linejoin: miter"/>
   </g>
   <g id="patch_156">
    <path d="M 211.461086 218.07125 
L 216.289802 218.07125 
L 216.289802 217.26497 
L 211.461086 217.26497 
z
" clip-path="url(#p9ff3893c8e)" style="fill: #56b4e9; opacity: 0.55; stroke: #000000; stroke-width: 0.4; stroke-linejoin: miter"/>
   </g>
   <g id="patch_157">
    <path d="M 216.289802 218.07125 
L 221.118517 218.07125 
L 221.118517 218.07125 
L 216.289802 218.07125 
z
" clip-path="url(#p9ff3893c8e)" style="fill: #56b4e9; opacity: 0.55; stroke: #000000; stroke-width: 0.4; stroke-linejoin: miter"/>
   </g>
   <g id="patch_158">
    <path d="M 221.118517 218.07125 
L 225.947233 218.07125 
L 225.947233 218.07125 
L 221.118517 218.07125 
z
" clip-path="url(#p9ff3893c8e)" style="fill: #56b4e9; opacity: 0.55; stroke: #000000; stroke-width: 0.4; stroke-linejoin: miter"/>
   </g>
   <g id="patch_159">
    <path d="M 225.947233 218.07125 
L 230.775949 218.07125 
L 230.775949 216.45869 
L 225.947233 216.45869 
z
" clip-path="url(#p9ff3893c8e)" style="fill: #56b4e9; opacity: 0.55; stroke: #000000; stroke-width: 0.4; stroke-linejoin: miter"/>
   </g>
   <g id="patch_160">
    <path d="M 230.775949 218.07125 
L 235.604665 218.07125 
L 235.604665 218.07125 
L 230.775949 218.07125 
z
" clip-path="url(#p9ff3893c8e)" style="fill: #56b4e9; opacity: 0.55; stroke: #000000; stroke-width: 0.4; stroke-linejoin: miter"/>
   </g>
   <g id="patch_161">
    <path d="M 235.604665 218.07125 
L 240.43338 218.07125 
L 240.43338 218.07125 
L 235.604665 218.07125 
z
" clip-path="url(#p9ff3893c8e)" style="fill: #56b4e9; opacity: 0.55; stroke: #000000; stroke-width: 0.4; stroke-linejoin: miter"/>
   </g>
   <g id="patch_162">
    <path d="M 240.43338 218.07125 
L 245.262096 218.07125 
L 245.262096 217.26497 
L 240.43338 217.26497 
z
" clip-path="url(#p9ff3893c8e)" style="fill: #56b4e9; opacity: 0.55; stroke: #000000; stroke-width: 0.4; stroke-linejoin: miter"/>
   </g>
   <g id="matplotlib.axis_1">
    <g id="xtick_1">
     <g id="line2d_1">
      <path d="M 47.876666 218.07125 
L 47.876666 17.14375 
" clip-path="url(#p9ff3893c8e)" style="fill: none; stroke-dasharray: 2.96,1.28; stroke-dashoffset: 0; stroke: #b0b0b0; stroke-opacity: 0.3; stroke-width: 0.8"/>
     </g>
     <g id="line2d_2">
      <defs>
       <path id="m6b02143777" d="M 0 0 
L 0 3.5 
" style="stroke: #000000; stroke-width: 0.8"/>
      </defs>
      <g>
       <use xlink:href="#m6b02143777" x="47.876666" y="218.07125" style="stroke: #000000; stroke-width: 0.8"/>
      </g>
     </g>
     <g id="text_1">
      <!-- 0 -->
      <g transform="translate(45.376666 232.015) scale(0.1 -0.1)">
       <defs>
        <path id="TimesNewRomanPSMT-30" d="M 231 2094 
Q 231 2819 450 3342 
Q 669 3866 1031 4122 
Q 1313 4325 1613 4325 
Q 2100 4325 2488 3828 
Q 2972 3213 2972 2159 
Q 2972 1422 2759 906 
Q 2547 391 2217 158 
Q 1888 -75 1581 -75 
Q 975 -75 572 641 
Q 231 1244 231 2094 
z
M 844 2016 
Q 844 1141 1059 588 
Q 1238 122 1591 122 
Q 1759 122 1940 273 
Q 2122 425 2216 781 
Q 2359 1319 2359 2297 
Q 2359 3022 2209 3506 
Q 2097 3866 1919 4016 
Q 1791 4119 1609 4119 
Q 1397 4119 1231 3928 
Q 1006 3669 925 3112 
Q 844 2556 844 2016 
z
" transform="scale(0.015625)"/>
       </defs>
       <use xlink:href="#TimesNewRomanPSMT-30"/>
      </g>
     </g>
    </g>
    <g id="xtick_2">
     <g id="line2d_3">
      <path d="M 103.607089 218.07125 
L 103.607089 17.14375 
" clip-path="url(#p9ff3893c8e)" style="fill: none; stroke-dasharray: 2.96,1.28; stroke-dashoffset: 0; stroke: #b0b0b0; stroke-opacity: 0.3; stroke-width: 0.8"/>
     </g>
     <g id="line2d_4">
      <g>
       <use xlink:href="#m6b02143777" x="103.607089" y="218.07125" style="stroke: #000000; stroke-width: 0.8"/>
      </g>
     </g>
     <g id="text_2">
      <!-- 1 -->
      <g transform="translate(101.107089 232.015) scale(0.1 -0.1)">
       <defs>
        <path id="TimesNewRomanPSMT-31" d="M 750 3822 
L 1781 4325 
L 1884 4325 
L 1884 747 
Q 1884 391 1914 303 
Q 1944 216 2037 169 
Q 2131 122 2419 116 
L 2419 0 
L 825 0 
L 825 116 
Q 1125 122 1212 167 
Q 1300 213 1334 289 
Q 1369 366 1369 747 
L 1369 3034 
Q 1369 3497 1338 3628 
Q 1316 3728 1258 3775 
Q 1200 3822 1119 3822 
Q 1003 3822 797 3725 
L 750 3822 
z
" transform="scale(0.015625)"/>
       </defs>
       <use xlink:href="#TimesNewRomanPSMT-31"/>
      </g>
     </g>
    </g>
    <g id="xtick_3">
     <g id="line2d_5">
      <path d="M 159.337513 218.07125 
L 159.337513 17.14375 
" clip-path="url(#p9ff3893c8e)" style="fill: none; stroke-dasharray: 2.96,1.28; stroke-dashoffset: 0; stroke: #b0b0b0; stroke-opacity: 0.3; stroke-width: 0.8"/>
     </g>
     <g id="line2d_6">
      <g>
       <use xlink:href="#m6b02143777" x="159.337513" y="218.07125" style="stroke: #000000; stroke-width: 0.8"/>
      </g>
     </g>
     <g id="text_3">
      <!-- 2 -->
      <g transform="translate(156.837513 232.015) scale(0.1 -0.1)">
       <defs>
        <path id="TimesNewRomanPSMT-32" d="M 2934 816 
L 2638 0 
L 138 0 
L 138 116 
Q 1241 1122 1691 1759 
Q 2141 2397 2141 2925 
Q 2141 3328 1894 3587 
Q 1647 3847 1303 3847 
Q 991 3847 742 3664 
Q 494 3481 375 3128 
L 259 3128 
Q 338 3706 661 4015 
Q 984 4325 1469 4325 
Q 1984 4325 2329 3994 
Q 2675 3663 2675 3213 
Q 2675 2891 2525 2569 
Q 2294 2063 1775 1497 
Q 997 647 803 472 
L 1909 472 
Q 2247 472 2383 497 
Q 2519 522 2628 598 
Q 2738 675 2819 816 
L 2934 816 
z
" transform="scale(0.015625)"/>
       </defs>
       <use xlink:href="#TimesNewRomanPSMT-32"/>
      </g>
     </g>
    </g>
    <g id="xtick_4">
     <g id="line2d_7">
      <path d="M 215.067937 218.07125 
L 215.067937 17.14375 
" clip-path="url(#p9ff3893c8e)" style="fill: none; stroke-dasharray: 2.96,1.28; stroke-dashoffset: 0; stroke: #b0b0b0; stroke-opacity: 0.3; stroke-width: 0.8"/>
     </g>
     <g id="line2d_8">
      <g>
       <use xlink:href="#m6b02143777" x="215.067937" y="218.07125" style="stroke: #000000; stroke-width: 0.8"/>
      </g>
     </g>
     <g id="text_4">
      <!-- 3 -->
      <g transform="translate(212.567937 232.015) scale(0.1 -0.1)">
       <defs>
        <path id="TimesNewRomanPSMT-33" d="M 325 3431 
Q 506 3859 782 4092 
Q 1059 4325 1472 4325 
Q 1981 4325 2253 3994 
Q 2459 3747 2459 3466 
Q 2459 3003 1878 2509 
Q 2269 2356 2469 2072 
Q 2669 1788 2669 1403 
Q 2669 853 2319 450 
Q 1863 -75 997 -75 
Q 569 -75 414 31 
Q 259 138 259 259 
Q 259 350 332 419 
Q 406 488 509 488 
Q 588 488 669 463 
Q 722 447 909 348 
Q 1097 250 1169 231 
Q 1284 197 1416 197 
Q 1734 197 1970 444 
Q 2206 691 2206 1028 
Q 2206 1275 2097 1509 
Q 2016 1684 1919 1775 
Q 1784 1900 1550 2001 
Q 1316 2103 1072 2103 
L 972 2103 
L 972 2197 
Q 1219 2228 1467 2375 
Q 1716 2522 1828 2728 
Q 1941 2934 1941 3181 
Q 1941 3503 1739 3701 
Q 1538 3900 1238 3900 
Q 753 3900 428 3381 
L 325 3431 
z
" transform="scale(0.015625)"/>
       </defs>
       <use xlink:href="#TimesNewRomanPSMT-33"/>
      </g>
     </g>
    </g>
    <g id="xtick_5">
     <g id="line2d_9">
      <path d="M 270.798361 218.07125 
L 270.798361 17.14375 
" clip-path="url(#p9ff3893c8e)" style="fill: none; stroke-dasharray: 2.96,1.28; stroke-dashoffset: 0; stroke: #b0b0b0; stroke-opacity: 0.3; stroke-width: 0.8"/>
     </g>
     <g id="line2d_10">
      <g>
       <use xlink:href="#m6b02143777" x="270.798361" y="218.07125" style="stroke: #000000; stroke-width: 0.8"/>
      </g>
     </g>
     <g id="text_5">
      <!-- 4 -->
      <g transform="translate(268.298361 232.015) scale(0.1 -0.1)">
       <defs>
        <path id="TimesNewRomanPSMT-34" d="M 2978 1563 
L 2978 1119 
L 2409 1119 
L 2409 0 
L 1894 0 
L 1894 1119 
L 100 1119 
L 100 1519 
L 2066 4325 
L 2409 4325 
L 2409 1563 
L 2978 1563 
z
M 1894 1563 
L 1894 3666 
L 406 1563 
L 1894 1563 
z
" transform="scale(0.015625)"/>
       </defs>
       <use xlink:href="#TimesNewRomanPSMT-34"/>
      </g>
     </g>
    </g>
    <g id="xtick_6">
     <g id="line2d_11">
      <path d="M 326.528784 218.07125 
L 326.528784 17.14375 
" clip-path="url(#p9ff3893c8e)" style="fill: none; stroke-dasharray: 2.96,1.28; stroke-dashoffset: 0; stroke: #b0b0b0; stroke-opacity: 0.3; stroke-width: 0.8"/>
     </g>
     <g id="line2d_12">
      <g>
       <use xlink:href="#m6b02143777" x="326.528784" y="218.07125" style="stroke: #000000; stroke-width: 0.8"/>
      </g>
     </g>
     <g id="text_6">
      <!-- 5 -->
      <g transform="translate(324.028784 232.015) scale(0.1 -0.1)">
       <defs>
        <path id="TimesNewRomanPSMT-35" d="M 2778 4238 
L 2534 3706 
L 1259 3706 
L 981 3138 
Q 1809 3016 2294 2522 
Q 2709 2097 2709 1522 
Q 2709 1188 2573 903 
Q 2438 619 2231 419 
Q 2025 219 1772 97 
Q 1413 -75 1034 -75 
Q 653 -75 479 54 
Q 306 184 306 341 
Q 306 428 378 495 
Q 450 563 559 563 
Q 641 563 702 538 
Q 763 513 909 409 
Q 1144 247 1384 247 
Q 1750 247 2026 523 
Q 2303 800 2303 1197 
Q 2303 1581 2056 1914 
Q 1809 2247 1375 2428 
Q 1034 2569 447 2591 
L 1259 4238 
L 2778 4238 
z
" transform="scale(0.015625)"/>
       </defs>
       <use xlink:href="#TimesNewRomanPSMT-35"/>
      </g>
     </g>
    </g>
    <g id="xtick_7">
     <g id="line2d_13">
      <path d="M 382.259208 218.07125 
L 382.259208 17.14375 
" clip-path="url(#p9ff3893c8e)" style="fill: none; stroke-dasharray: 2.96,1.28; stroke-dashoffset: 0; stroke: #b0b0b0; stroke-opacity: 0.3; stroke-width: 0.8"/>
     </g>
     <g id="line2d_14">
      <g>
       <use xlink:href="#m6b02143777" x="382.259208" y="218.07125" style="stroke: #000000; stroke-width: 0.8"/>
      </g>
     </g>
     <g id="text_7">
      <!-- 6 -->
      <g transform="translate(379.759208 232.015) scale(0.1 -0.1)">
       <defs>
        <path id="TimesNewRomanPSMT-36" d="M 2869 4325 
L 2869 4209 
Q 2456 4169 2195 4045 
Q 1934 3922 1679 3669 
Q 1425 3416 1258 3105 
Q 1091 2794 978 2366 
Q 1428 2675 1881 2675 
Q 2316 2675 2634 2325 
Q 2953 1975 2953 1425 
Q 2953 894 2631 456 
Q 2244 -75 1606 -75 
Q 1172 -75 869 213 
Q 275 772 275 1663 
Q 275 2231 503 2743 
Q 731 3256 1154 3653 
Q 1578 4050 1965 4187 
Q 2353 4325 2688 4325 
L 2869 4325 
z
M 925 2138 
Q 869 1716 869 1456 
Q 869 1156 980 804 
Q 1091 453 1309 247 
Q 1469 100 1697 100 
Q 1969 100 2183 356 
Q 2397 613 2397 1088 
Q 2397 1622 2184 2012 
Q 1972 2403 1581 2403 
Q 1463 2403 1327 2353 
Q 1191 2303 925 2138 
z
" transform="scale(0.015625)"/>
       </defs>
       <use xlink:href="#TimesNewRomanPSMT-36"/>
      </g>
     </g>
    </g>
    <g id="text_8">
     <!-- |h_eff|  (T-region users) -->
     <g transform="translate(175.802813 246.486562) scale(0.12 -0.12)">
      <defs>
       <path id="TimesNewRomanPSMT-7c" d="M 763 4444 
L 763 -1381 
L 503 -1381 
L 503 4444 
L 763 4444 
z
" transform="scale(0.015625)"/>
       <path id="TimesNewRomanPSMT-68" d="M 1041 4444 
L 1041 2350 
Q 1388 2731 1591 2839 
Q 1794 2947 1997 2947 
Q 2241 2947 2416 2812 
Q 2591 2678 2675 2391 
Q 2734 2191 2734 1659 
L 2734 647 
Q 2734 375 2778 275 
Q 2809 200 2884 156 
Q 2959 113 3159 113 
L 3159 0 
L 1753 0 
L 1753 113 
L 1819 113 
Q 2019 113 2097 173 
Q 2175 234 2206 353 
Q 2216 403 2216 647 
L 2216 1659 
Q 2216 2128 2167 2275 
Q 2119 2422 2012 2495 
Q 1906 2569 1756 2569 
Q 1603 2569 1437 2487 
Q 1272 2406 1041 2159 
L 1041 647 
Q 1041 353 1073 281 
Q 1106 209 1195 161 
Q 1284 113 1503 113 
L 1503 0 
L 84 0 
L 84 113 
Q 275 113 384 172 
Q 447 203 484 290 
Q 522 378 522 647 
L 522 3238 
Q 522 3728 498 3840 
Q 475 3953 426 3993 
Q 378 4034 297 4034 
Q 231 4034 84 3984 
L 41 4094 
L 897 4444 
L 1041 4444 
z
" transform="scale(0.015625)"/>
       <path id="TimesNewRomanPSMT-5f" d="M 3256 -1381 
L -53 -1381 
L -53 -1119 
L 3256 -1119 
L 3256 -1381 
z
" transform="scale(0.015625)"/>
       <path id="TimesNewRomanPSMT-65" d="M 681 1784 
Q 678 1147 991 784 
Q 1303 422 1725 422 
Q 2006 422 2214 576 
Q 2422 731 2563 1106 
L 2659 1044 
Q 2594 616 2278 264 
Q 1963 -88 1488 -88 
Q 972 -88 605 314 
Q 238 716 238 1394 
Q 238 2128 614 2539 
Q 991 2950 1559 2950 
Q 2041 2950 2350 2633 
Q 2659 2316 2659 1784 
L 681 1784 
z
M 681 1966 
L 2006 1966 
Q 1991 2241 1941 2353 
Q 1863 2528 1708 2628 
Q 1553 2728 1384 2728 
Q 1125 2728 920 2526 
Q 716 2325 681 1966 
z
" transform="scale(0.015625)"/>
       <path id="TimesNewRomanPSMT-66" d="M 1319 2638 
L 1319 756 
Q 1319 356 1406 250 
Q 1522 113 1716 113 
L 1975 113 
L 1975 0 
L 266 0 
L 266 113 
L 394 113 
Q 519 113 622 175 
Q 725 238 764 344 
Q 803 450 803 756 
L 803 2638 
L 247 2638 
L 247 2863 
L 803 2863 
L 803 3050 
Q 803 3478 940 3775 
Q 1078 4072 1361 4255 
Q 1644 4438 1997 4438 
Q 2325 4438 2600 4225 
Q 2781 4084 2781 3909 
Q 2781 3816 2700 3733 
Q 2619 3650 2525 3650 
Q 2453 3650 2373 3701 
Q 2294 3753 2178 3923 
Q 2063 4094 1966 4153 
Q 1869 4213 1750 4213 
Q 1606 4213 1506 4136 
Q 1406 4059 1362 3898 
Q 1319 3738 1319 3069 
L 1319 2863 
L 2056 2863 
L 2056 2638 
L 1319 2638 
z
" transform="scale(0.015625)"/>
       <path id="TimesNewRomanPSMT-20" transform="scale(0.015625)"/>
       <path id="TimesNewRomanPSMT-28" d="M 1988 -1253 
L 1988 -1369 
Q 1516 -1131 1200 -813 
Q 750 -359 506 256 
Q 263 872 263 1534 
Q 263 2503 741 3301 
Q 1219 4100 1988 4444 
L 1988 4313 
Q 1603 4100 1356 3731 
Q 1109 3363 987 2797 
Q 866 2231 866 1616 
Q 866 947 969 400 
Q 1050 -31 1165 -292 
Q 1281 -553 1476 -793 
Q 1672 -1034 1988 -1253 
z
" transform="scale(0.015625)"/>
       <path id="TimesNewRomanPSMT-54" d="M 3703 4238 
L 3750 3244 
L 3631 3244 
Q 3597 3506 3538 3619 
Q 3441 3800 3280 3886 
Q 3119 3972 2856 3972 
L 2259 3972 
L 2259 734 
Q 2259 344 2344 247 
Q 2463 116 2709 116 
L 2856 116 
L 2856 0 
L 1059 0 
L 1059 116 
L 1209 116 
Q 1478 116 1591 278 
Q 1659 378 1659 734 
L 1659 3972 
L 1150 3972 
Q 853 3972 728 3928 
Q 566 3869 450 3700 
Q 334 3531 313 3244 
L 194 3244 
L 244 4238 
L 3703 4238 
z
" transform="scale(0.015625)"/>
       <path id="TimesNewRomanPSMT-2d" d="M 259 1672 
L 1875 1672 
L 1875 1200 
L 259 1200 
L 259 1672 
z
" transform="scale(0.015625)"/>
       <path id="TimesNewRomanPSMT-72" d="M 1038 2947 
L 1038 2303 
Q 1397 2947 1775 2947 
Q 1947 2947 2059 2842 
Q 2172 2738 2172 2600 
Q 2172 2478 2090 2393 
Q 2009 2309 1897 2309 
Q 1788 2309 1652 2417 
Q 1516 2525 1450 2525 
Q 1394 2525 1328 2463 
Q 1188 2334 1038 2041 
L 1038 669 
Q 1038 431 1097 309 
Q 1138 225 1241 169 
Q 1344 113 1538 113 
L 1538 0 
L 72 0 
L 72 113 
Q 291 113 397 181 
Q 475 231 506 341 
Q 522 394 522 644 
L 522 1753 
Q 522 2253 501 2348 
Q 481 2444 426 2487 
Q 372 2531 291 2531 
Q 194 2531 72 2484 
L 41 2597 
L 906 2947 
L 1038 2947 
z
" transform="scale(0.015625)"/>
       <path id="TimesNewRomanPSMT-67" d="M 966 1044 
Q 703 1172 562 1401 
Q 422 1631 422 1909 
Q 422 2334 742 2640 
Q 1063 2947 1563 2947 
Q 1972 2947 2272 2747 
L 2878 2747 
Q 3013 2747 3034 2739 
Q 3056 2731 3066 2713 
Q 3084 2684 3084 2613 
Q 3084 2531 3069 2500 
Q 3059 2484 3036 2475 
Q 3013 2466 2878 2466 
L 2506 2466 
Q 2681 2241 2681 1891 
Q 2681 1491 2375 1206 
Q 2069 922 1553 922 
Q 1341 922 1119 984 
Q 981 866 932 777 
Q 884 688 884 625 
Q 884 572 936 522 
Q 988 472 1138 450 
Q 1225 438 1575 428 
Q 2219 413 2409 384 
Q 2700 344 2873 169 
Q 3047 -6 3047 -263 
Q 3047 -616 2716 -925 
Q 2228 -1381 1444 -1381 
Q 841 -1381 425 -1109 
Q 191 -953 191 -784 
Q 191 -709 225 -634 
Q 278 -519 444 -313 
Q 466 -284 763 25 
Q 600 122 533 198 
Q 466 275 466 372 
Q 466 481 555 628 
Q 644 775 966 1044 
z
M 1509 2797 
Q 1278 2797 1122 2612 
Q 966 2428 966 2047 
Q 966 1553 1178 1281 
Q 1341 1075 1591 1075 
Q 1828 1075 1981 1253 
Q 2134 1431 2134 1813 
Q 2134 2309 1919 2591 
Q 1759 2797 1509 2797 
z
M 934 0 
Q 788 -159 713 -296 
Q 638 -434 638 -550 
Q 638 -700 819 -813 
Q 1131 -1006 1722 -1006 
Q 2284 -1006 2551 -807 
Q 2819 -609 2819 -384 
Q 2819 -222 2659 -153 
Q 2497 -84 2016 -72 
Q 1313 -53 934 0 
z
" transform="scale(0.015625)"/>
       <path id="TimesNewRomanPSMT-69" d="M 928 4444 
Q 1059 4444 1151 4351 
Q 1244 4259 1244 4128 
Q 1244 3997 1151 3903 
Q 1059 3809 928 3809 
Q 797 3809 703 3903 
Q 609 3997 609 4128 
Q 609 4259 701 4351 
Q 794 4444 928 4444 
z
M 1188 2947 
L 1188 647 
Q 1188 378 1227 289 
Q 1266 200 1342 156 
Q 1419 113 1622 113 
L 1622 0 
L 231 0 
L 231 113 
Q 441 113 512 153 
Q 584 194 626 287 
Q 669 381 669 647 
L 669 1750 
Q 669 2216 641 2353 
Q 619 2453 572 2492 
Q 525 2531 444 2531 
Q 356 2531 231 2484 
L 188 2597 
L 1050 2947 
L 1188 2947 
z
" transform="scale(0.015625)"/>
       <path id="TimesNewRomanPSMT-6f" d="M 1600 2947 
Q 2250 2947 2644 2453 
Q 2978 2031 2978 1484 
Q 2978 1100 2793 706 
Q 2609 313 2286 112 
Q 1963 -88 1566 -88 
Q 919 -88 538 428 
Q 216 863 216 1403 
Q 216 1797 411 2186 
Q 606 2575 925 2761 
Q 1244 2947 1600 2947 
z
M 1503 2744 
Q 1338 2744 1170 2645 
Q 1003 2547 900 2300 
Q 797 2053 797 1666 
Q 797 1041 1045 587 
Q 1294 134 1700 134 
Q 2003 134 2200 384 
Q 2397 634 2397 1244 
Q 2397 2006 2069 2444 
Q 1847 2744 1503 2744 
z
" transform="scale(0.015625)"/>
       <path id="TimesNewRomanPSMT-6e" d="M 1034 2341 
Q 1538 2947 1994 2947 
Q 2228 2947 2397 2830 
Q 2566 2713 2666 2444 
Q 2734 2256 2734 1869 
L 2734 647 
Q 2734 375 2778 278 
Q 2813 200 2889 156 
Q 2966 113 3172 113 
L 3172 0 
L 1756 0 
L 1756 113 
L 1816 113 
Q 2016 113 2095 173 
Q 2175 234 2206 353 
Q 2219 400 2219 647 
L 2219 1819 
Q 2219 2209 2117 2386 
Q 2016 2563 1775 2563 
Q 1403 2563 1034 2156 
L 1034 647 
Q 1034 356 1069 288 
Q 1113 197 1189 155 
Q 1266 113 1500 113 
L 1500 0 
L 84 0 
L 84 113 
L 147 113 
Q 366 113 442 223 
Q 519 334 519 647 
L 519 1709 
Q 519 2225 495 2337 
Q 472 2450 423 2490 
Q 375 2531 294 2531 
Q 206 2531 84 2484 
L 38 2597 
L 900 2947 
L 1034 2947 
L 1034 2341 
z
" transform="scale(0.015625)"/>
       <path id="TimesNewRomanPSMT-75" d="M 2709 2863 
L 2709 1128 
Q 2709 631 2732 520 
Q 2756 409 2807 365 
Q 2859 322 2928 322 
Q 3025 322 3147 375 
L 3191 266 
L 2334 -88 
L 2194 -88 
L 2194 519 
Q 1825 119 1631 15 
Q 1438 -88 1222 -88 
Q 981 -88 804 51 
Q 628 191 559 409 
Q 491 628 491 1028 
L 491 2306 
Q 491 2509 447 2587 
Q 403 2666 317 2708 
Q 231 2750 6 2747 
L 6 2863 
L 1009 2863 
L 1009 947 
Q 1009 547 1148 422 
Q 1288 297 1484 297 
Q 1619 297 1789 381 
Q 1959 466 2194 703 
L 2194 2325 
Q 2194 2569 2105 2655 
Q 2016 2741 1734 2747 
L 1734 2863 
L 2709 2863 
z
" transform="scale(0.015625)"/>
       <path id="TimesNewRomanPSMT-73" d="M 2050 2947 
L 2050 1972 
L 1947 1972 
Q 1828 2431 1642 2597 
Q 1456 2763 1169 2763 
Q 950 2763 815 2647 
Q 681 2531 681 2391 
Q 681 2216 781 2091 
Q 878 1963 1175 1819 
L 1631 1597 
Q 2266 1288 2266 781 
Q 2266 391 1970 151 
Q 1675 -88 1309 -88 
Q 1047 -88 709 6 
Q 606 38 541 38 
Q 469 38 428 -44 
L 325 -44 
L 325 978 
L 428 978 
Q 516 541 762 319 
Q 1009 97 1316 97 
Q 1531 97 1667 223 
Q 1803 350 1803 528 
Q 1803 744 1651 891 
Q 1500 1038 1047 1263 
Q 594 1488 453 1669 
Q 313 1847 313 2119 
Q 313 2472 555 2709 
Q 797 2947 1181 2947 
Q 1350 2947 1591 2875 
Q 1750 2828 1803 2828 
Q 1853 2828 1881 2850 
Q 1909 2872 1947 2947 
L 2050 2947 
z
" transform="scale(0.015625)"/>
       <path id="TimesNewRomanPSMT-29" d="M 144 4313 
L 144 4444 
Q 619 4209 934 3891 
Q 1381 3434 1625 2820 
Q 1869 2206 1869 1541 
Q 1869 572 1392 -226 
Q 916 -1025 144 -1369 
L 144 -1253 
Q 528 -1038 776 -670 
Q 1025 -303 1145 264 
Q 1266 831 1266 1447 
Q 1266 2113 1163 2663 
Q 1084 3094 967 3353 
Q 850 3613 656 3853 
Q 463 4094 144 4313 
z
" transform="scale(0.015625)"/>
      </defs>
      <use xlink:href="#TimesNewRomanPSMT-7c"/>
      <use xlink:href="#TimesNewRomanPSMT-68" transform="translate(20.019531 0)"/>
      <use xlink:href="#TimesNewRomanPSMT-5f" transform="translate(70.019531 0)"/>
      <use xlink:href="#TimesNewRomanPSMT-65" transform="translate(120.019531 0)"/>
      <use xlink:href="#TimesNewRomanPSMT-66" transform="translate(164.404297 0)"/>
      <use xlink:href="#TimesNewRomanPSMT-66" transform="translate(195.955078 0)"/>
      <use xlink:href="#TimesNewRomanPSMT-7c" transform="translate(229.255859 0)"/>
      <use xlink:href="#TimesNewRomanPSMT-20" transform="translate(249.275391 0)"/>
      <use xlink:href="#TimesNewRomanPSMT-20" transform="translate(274.275391 0)"/>
      <use xlink:href="#TimesNewRomanPSMT-28" transform="translate(299.275391 0)"/>
      <use xlink:href="#TimesNewRomanPSMT-54" transform="translate(332.576172 0)"/>
      <use xlink:href="#TimesNewRomanPSMT-2d" transform="translate(384.535156 0)"/>
      <use xlink:href="#TimesNewRomanPSMT-72" transform="translate(417.835938 0)"/>
      <use xlink:href="#TimesNewRomanPSMT-65" transform="translate(451.136719 0)"/>
      <use xlink:href="#TimesNewRomanPSMT-67" transform="translate(495.521484 0)"/>
      <use xlink:href="#TimesNewRomanPSMT-69" transform="translate(545.521484 0)"/>
      <use xlink:href="#TimesNewRomanPSMT-6f" transform="translate(573.304688 0)"/>
      <use xlink:href="#TimesNewRomanPSMT-6e" transform="translate(623.304688 0)"/>
      <use xlink:href="#TimesNewRomanPSMT-20" transform="translate(673.304688 0)"/>
      <use xlink:href="#TimesNewRomanPSMT-75" transform="translate(698.304688 0)"/>
      <use xlink:href="#TimesNewRomanPSMT-73" transform="translate(748.304688 0)"/>
      <use xlink:href="#TimesNewRomanPSMT-65" transform="translate(787.220703 0)"/>
      <use xlink:href="#TimesNewRomanPSMT-72" transform="translate(831.605469 0)"/>
      <use xlink:href="#TimesNewRomanPSMT-73" transform="translate(864.90625 0)"/>
      <use xlink:href="#TimesNewRomanPSMT-29" transform="translate(903.822266 0)"/>
     </g>
    </g>
    <g id="text_9">
     <!-- 1e−6 -->
     <g transform="translate(409.85875 244.097813) scale(0.1 -0.1)">
      <defs>
       <path id="TimesNewRomanPSMT-2212" d="M 3484 2000 
L 116 2000 
L 116 2256 
L 3484 2256 
L 3484 2000 
z
" transform="scale(0.015625)"/>
      </defs>
      <use xlink:href="#TimesNewRomanPSMT-31"/>
      <use xlink:href="#TimesNewRomanPSMT-65" transform="translate(50 0)"/>
      <use xlink:href="#TimesNewRomanPSMT-2212" transform="translate(94.384766 0)"/>
      <use xlink:href="#TimesNewRomanPSMT-36" transform="translate(150.78125 0)"/>
     </g>
    </g>
   </g>
   <g id="matplotlib.axis_2">
    <g id="ytick_1">
     <g id="line2d_15">
      <path d="M 34.121875 218.07125 
L 429.936875 218.07125 
" clip-path="url(#p9ff3893c8e)" style="fill: none; stroke-dasharray: 2.96,1.28; stroke-dashoffset: 0; stroke: #b0b0b0; stroke-opacity: 0.3; stroke-width: 0.8"/>
     </g>
     <g id="line2d_16">
      <defs>
       <path id="m30be8f4865" d="M 0 0 
L -3.5 0 
" style="stroke: #000000; stroke-width: 0.8"/>
      </defs>
      <g>
       <use xlink:href="#m30be8f4865" x="34.121875" y="218.07125" style="stroke: #000000; stroke-width: 0.8"/>
      </g>
     </g>
     <g id="text_10">
      <!-- 0 -->
      <g transform="translate(22.121875 221.543125) scale(0.1 -0.1)">
       <use xlink:href="#TimesNewRomanPSMT-30"/>
      </g>
     </g>
    </g>
    <g id="ytick_2">
     <g id="line2d_17">
      <path d="M 34.121875 176.155591 
L 429.936875 176.155591 
" clip-path="url(#p9ff3893c8e)" style="fill: none; stroke-dasharray: 2.96,1.28; stroke-dashoffset: 0; stroke: #b0b0b0; stroke-opacity: 0.3; stroke-width: 0.8"/>
     </g>
     <g id="line2d_18">
      <g>
       <use xlink:href="#m30be8f4865" x="34.121875" y="176.155591" style="stroke: #000000; stroke-width: 0.8"/>
      </g>
     </g>
     <g id="text_11">
      <!-- 2 -->
      <g transform="translate(22.121875 179.627466) scale(0.1 -0.1)">
       <use xlink:href="#TimesNewRomanPSMT-32"/>
      </g>
     </g>
    </g>
    <g id="ytick_3">
     <g id="line2d_19">
      <path d="M 34.121875 134.239931 
L 429.936875 134.239931 
" clip-path="url(#p9ff3893c8e)" style="fill: none; stroke-dasharray: 2.96,1.28; stroke-dashoffset: 0; stroke: #b0b0b0; stroke-opacity: 0.3; stroke-width: 0.8"/>
     </g>
     <g id="line2d_20">
      <g>
       <use xlink:href="#m30be8f4865" x="34.121875" y="134.239931" style="stroke: #000000; stroke-width: 0.8"/>
      </g>
     </g>
     <g id="text_12">
      <!-- 4 -->
      <g transform="translate(22.121875 137.711806) scale(0.1 -0.1)">
       <use xlink:href="#TimesNewRomanPSMT-34"/>
      </g>
     </g>
    </g>
    <g id="ytick_4">
     <g id="line2d_21">
      <path d="M 34.121875 92.324272 
L 429.936875 92.324272 
" clip-path="url(#p9ff3893c8e)" style="fill: none; stroke-dasharray: 2.96,1.28; stroke-dashoffset: 0; stroke: #b0b0b0; stroke-opacity: 0.3; stroke-width: 0.8"/>
     </g>
     <g id="line2d_22">
      <g>
       <use xlink:href="#m30be8f4865" x="34.121875" y="92.324272" style="stroke: #000000; stroke-width: 0.8"/>
      </g>
     </g>
     <g id="text_13">
      <!-- 6 -->
      <g transform="translate(22.121875 95.796147) scale(0.1 -0.1)">
       <use xlink:href="#TimesNewRomanPSMT-36"/>
      </g>
     </g>
    </g>
    <g id="ytick_5">
     <g id="line2d_23">
      <path d="M 34.121875 50.408613 
L 429.936875 50.408613 
" clip-path="url(#p9ff3893c8e)" style="fill: none; stroke-dasharray: 2.96,1.28; stroke-dashoffset: 0; stroke: #b0b0b0; stroke-opacity: 0.3; stroke-width: 0.8"/>
     </g>
     <g id="line2d_24">
      <g>
       <use xlink:href="#m30be8f4865" x="34.121875" y="50.408613" style="stroke: #000000; stroke-width: 0.8"/>
      </g>
     </g>
     <g id="text_14">
      <!-- 8 -->
      <g transform="translate(22.121875 53.880488) scale(0.1 -0.1)">
       <defs>
        <path id="TimesNewRomanPSMT-38" d="M 1228 2134 
Q 725 2547 579 2797 
Q 434 3047 434 3316 
Q 434 3728 753 4026 
Q 1072 4325 1600 4325 
Q 2113 4325 2425 4047 
Q 2738 3769 2738 3413 
Q 2738 3175 2569 2928 
Q 2400 2681 1866 2347 
Q 2416 1922 2594 1678 
Q 2831 1359 2831 1006 
Q 2831 559 2490 242 
Q 2150 -75 1597 -75 
Q 994 -75 656 303 
Q 388 606 388 966 
Q 388 1247 577 1523 
Q 766 1800 1228 2134 
z
M 1719 2469 
Q 2094 2806 2194 3001 
Q 2294 3197 2294 3444 
Q 2294 3772 2109 3958 
Q 1925 4144 1606 4144 
Q 1288 4144 1088 3959 
Q 888 3775 888 3528 
Q 888 3366 970 3203 
Q 1053 3041 1206 2894 
L 1719 2469 
z
M 1375 2016 
Q 1116 1797 991 1539 
Q 866 1281 866 981 
Q 866 578 1086 336 
Q 1306 94 1647 94 
Q 1984 94 2187 284 
Q 2391 475 2391 747 
Q 2391 972 2272 1150 
Q 2050 1481 1375 2016 
z
" transform="scale(0.015625)"/>
       </defs>
       <use xlink:href="#TimesNewRomanPSMT-38"/>
      </g>
     </g>
    </g>
    <g id="text_15">
     <!-- Density -->
     <g transform="translate(15.5325 136.273125) rotate(-90) scale(0.12 -0.12)">
      <defs>
       <path id="TimesNewRomanPSMT-44" d="M 109 0 
L 109 116 
L 269 116 
Q 538 116 650 288 
Q 719 391 719 750 
L 719 3488 
Q 719 3884 631 3984 
Q 509 4122 269 4122 
L 109 4122 
L 109 4238 
L 1834 4238 
Q 2784 4238 3279 4022 
Q 3775 3806 4076 3303 
Q 4378 2800 4378 2141 
Q 4378 1256 3841 663 
Q 3238 0 2003 0 
L 109 0 
z
M 1319 306 
Q 1716 219 1984 219 
Q 2709 219 3187 728 
Q 3666 1238 3666 2109 
Q 3666 2988 3187 3494 
Q 2709 4000 1959 4000 
Q 1678 4000 1319 3909 
L 1319 306 
z
" transform="scale(0.015625)"/>
       <path id="TimesNewRomanPSMT-74" d="M 1031 3803 
L 1031 2863 
L 1700 2863 
L 1700 2644 
L 1031 2644 
L 1031 788 
Q 1031 509 1111 412 
Q 1191 316 1316 316 
Q 1419 316 1516 380 
Q 1613 444 1666 569 
L 1788 569 
Q 1678 263 1478 108 
Q 1278 -47 1066 -47 
Q 922 -47 784 33 
Q 647 113 581 261 
Q 516 409 516 719 
L 516 2644 
L 63 2644 
L 63 2747 
Q 234 2816 414 2980 
Q 594 3144 734 3369 
Q 806 3488 934 3803 
L 1031 3803 
z
" transform="scale(0.015625)"/>
       <path id="TimesNewRomanPSMT-79" d="M 38 2863 
L 1372 2863 
L 1372 2747 
L 1306 2747 
Q 1166 2747 1095 2686 
Q 1025 2625 1025 2534 
Q 1025 2413 1128 2197 
L 1825 753 
L 2466 2334 
Q 2519 2463 2519 2588 
Q 2519 2644 2497 2672 
Q 2472 2706 2419 2726 
Q 2366 2747 2231 2747 
L 2231 2863 
L 3163 2863 
L 3163 2747 
Q 3047 2734 2984 2696 
Q 2922 2659 2847 2556 
Q 2819 2513 2741 2316 
L 1575 -541 
Q 1406 -956 1132 -1168 
Q 859 -1381 606 -1381 
Q 422 -1381 303 -1275 
Q 184 -1169 184 -1031 
Q 184 -900 270 -820 
Q 356 -741 506 -741 
Q 609 -741 788 -809 
Q 913 -856 944 -856 
Q 1038 -856 1148 -759 
Q 1259 -663 1372 -384 
L 1575 113 
L 547 2272 
Q 500 2369 397 2513 
Q 319 2622 269 2659 
Q 197 2709 38 2747 
L 38 2863 
z
" transform="scale(0.015625)"/>
      </defs>
      <use xlink:href="#TimesNewRomanPSMT-44"/>
      <use xlink:href="#TimesNewRomanPSMT-65" transform="translate(72.216797 0)"/>
      <use xlink:href="#TimesNewRomanPSMT-6e" transform="translate(116.601562 0)"/>
      <use xlink:href="#TimesNewRomanPSMT-73" transform="translate(166.601562 0)"/>
      <use xlink:href="#TimesNewRomanPSMT-69" transform="translate(205.517578 0)"/>
      <use xlink:href="#TimesNewRomanPSMT-74" transform="translate(233.300781 0)"/>
      <use xlink:href="#TimesNewRomanPSMT-79" transform="translate(261.083984 0)"/>
     </g>
    </g>
    <g id="text_16">
     <!-- 1e6 -->
     <g transform="translate(34.121875 14.14375) scale(0.1 -0.1)">
      <use xlink:href="#TimesNewRomanPSMT-31"/>
      <use xlink:href="#TimesNewRomanPSMT-65" transform="translate(50 0)"/>
      <use xlink:href="#TimesNewRomanPSMT-36" transform="translate(94.384766 0)"/>
     </g>
    </g>
   </g>
   <g id="patch_163">
    <path d="M 34.121875 218.07125 
L 34.121875 17.14375 
" style="fill: none; stroke: #000000; stroke-width: 0.8; stroke-linejoin: miter; stroke-linecap: square"/>
   </g>
   <g id="patch_164">
    <path d="M 429.936875 218.07125 
L 429.936875 17.14375 
" style="fill: none; stroke: #000000; stroke-width: 0.8; stroke-linejoin: miter; stroke-linecap: square"/>
   </g>
   <g id="patch_165">
    <path d="M 34.121875 218.07125 
L 429.936875 218.07125 
" style="fill: none; stroke: #000000; stroke-width: 0.8; stroke-linejoin: miter; stroke-linecap: square"/>
   </g>
   <g id="patch_166">
    <path d="M 34.121875 17.14375 
L 429.936875 17.14375 
" style="fill: none; stroke: #000000; stroke-width: 0.8; stroke-linejoin: miter; stroke-linecap: square"/>
   </g>
   <g id="legend_1">
    <g id="patch_167">
     <path d="M 41.121875 81.71875 
L 130.334375 81.71875 
Q 132.334375 81.71875 132.334375 79.71875 
L 132.334375 24.14375 
Q 132.334375 22.14375 130.334375 22.14375 
L 41.121875 22.14375 
Q 39.121875 22.14375 39.121875 24.14375 
L 39.121875 79.71875 
Q 39.121875 81.71875 41.121875 81.71875 
z
" style="fill: #ffffff; opacity: 0.8; stroke: #cccccc; stroke-linejoin: miter"/>
    </g>
    <g id="patch_168">
     <path d="M 43.121875 33.14375 
L 63.121875 33.14375 
L 63.121875 26.14375 
L 43.121875 26.14375 
z
" style="fill: #0072b2; opacity: 0.55; stroke: #000000; stroke-width: 0.4; stroke-linejoin: miter"/>
    </g>
    <g id="text_17">
     <!-- Learned -->
     <g transform="translate(71.121875 33.14375) scale(0.1 -0.1)">
      <defs>
       <path id="TimesNewRomanPSMT-4c" d="M 3669 1172 
L 3772 1150 
L 3409 0 
L 128 0 
L 128 116 
L 288 116 
Q 556 116 672 291 
Q 738 391 738 753 
L 738 3488 
Q 738 3884 650 3984 
Q 528 4122 288 4122 
L 128 4122 
L 128 4238 
L 2047 4238 
L 2047 4122 
Q 1709 4125 1573 4059 
Q 1438 3994 1388 3894 
Q 1338 3794 1338 3416 
L 1338 753 
Q 1338 494 1388 397 
Q 1425 331 1503 300 
Q 1581 269 1991 269 
L 2300 269 
Q 2788 269 2984 341 
Q 3181 413 3343 595 
Q 3506 778 3669 1172 
z
" transform="scale(0.015625)"/>
       <path id="TimesNewRomanPSMT-61" d="M 1822 413 
Q 1381 72 1269 19 
Q 1100 -59 909 -59 
Q 613 -59 420 144 
Q 228 347 228 678 
Q 228 888 322 1041 
Q 450 1253 767 1440 
Q 1084 1628 1822 1897 
L 1822 2009 
Q 1822 2438 1686 2597 
Q 1550 2756 1291 2756 
Q 1094 2756 978 2650 
Q 859 2544 859 2406 
L 866 2225 
Q 866 2081 792 2003 
Q 719 1925 600 1925 
Q 484 1925 411 2006 
Q 338 2088 338 2228 
Q 338 2497 613 2722 
Q 888 2947 1384 2947 
Q 1766 2947 2009 2819 
Q 2194 2722 2281 2516 
Q 2338 2381 2338 1966 
L 2338 994 
Q 2338 584 2353 492 
Q 2369 400 2405 369 
Q 2441 338 2488 338 
Q 2538 338 2575 359 
Q 2641 400 2828 588 
L 2828 413 
Q 2478 -56 2159 -56 
Q 2006 -56 1915 50 
Q 1825 156 1822 413 
z
M 1822 616 
L 1822 1706 
Q 1350 1519 1213 1441 
Q 966 1303 859 1153 
Q 753 1003 753 825 
Q 753 600 887 451 
Q 1022 303 1197 303 
Q 1434 303 1822 616 
z
" transform="scale(0.015625)"/>
       <path id="TimesNewRomanPSMT-64" d="M 2222 322 
Q 2013 103 1813 7 
Q 1613 -88 1381 -88 
Q 913 -88 563 304 
Q 213 697 213 1313 
Q 213 1928 600 2439 
Q 988 2950 1597 2950 
Q 1975 2950 2222 2709 
L 2222 3238 
Q 2222 3728 2198 3840 
Q 2175 3953 2125 3993 
Q 2075 4034 2000 4034 
Q 1919 4034 1784 3984 
L 1744 4094 
L 2597 4444 
L 2738 4444 
L 2738 1134 
Q 2738 631 2761 520 
Q 2784 409 2836 365 
Q 2888 322 2956 322 
Q 3041 322 3181 375 
L 3216 266 
L 2366 -88 
L 2222 -88 
L 2222 322 
z
M 2222 541 
L 2222 2016 
Q 2203 2228 2109 2403 
Q 2016 2578 1861 2667 
Q 1706 2756 1559 2756 
Q 1284 2756 1069 2509 
Q 784 2184 784 1559 
Q 784 928 1059 592 
Q 1334 256 1672 256 
Q 1956 256 2222 541 
z
" transform="scale(0.015625)"/>
      </defs>
      <use xlink:href="#TimesNewRomanPSMT-4c"/>
      <use xlink:href="#TimesNewRomanPSMT-65" transform="translate(61.083984 0)"/>
      <use xlink:href="#TimesNewRomanPSMT-61" transform="translate(105.46875 0)"/>
      <use xlink:href="#TimesNewRomanPSMT-72" transform="translate(149.853516 0)"/>
      <use xlink:href="#TimesNewRomanPSMT-6e" transform="translate(183.154297 0)"/>
      <use xlink:href="#TimesNewRomanPSMT-65" transform="translate(233.154297 0)"/>
      <use xlink:href="#TimesNewRomanPSMT-64" transform="translate(277.539062 0)"/>
     </g>
    </g>
    <g id="patch_169">
     <path d="M 43.121875 47.282812 
L 63.121875 47.282812 
L 63.121875 40.282812 
L 43.121875 40.282812 
z
" style="opacity: 0.55; stroke: #000000; stroke-width: 0.4; stroke-linejoin: miter"/>
    </g>
    <g id="text_18">
     <!-- AnalyticalRIS -->
     <g transform="translate(71.121875 47.282812) scale(0.1 -0.1)">
      <defs>
       <path id="TimesNewRomanPSMT-41" d="M 2928 1419 
L 1288 1419 
L 1000 750 
Q 894 503 894 381 
Q 894 284 986 211 
Q 1078 138 1384 116 
L 1384 0 
L 50 0 
L 50 116 
Q 316 163 394 238 
Q 553 388 747 847 
L 2238 4334 
L 2347 4334 
L 3822 809 
Q 4000 384 4145 257 
Q 4291 131 4550 116 
L 4550 0 
L 2878 0 
L 2878 116 
Q 3131 128 3220 200 
Q 3309 272 3309 375 
Q 3309 513 3184 809 
L 2928 1419 
z
M 2841 1650 
L 2122 3363 
L 1384 1650 
L 2841 1650 
z
" transform="scale(0.015625)"/>
       <path id="TimesNewRomanPSMT-6c" d="M 1184 4444 
L 1184 647 
Q 1184 378 1223 290 
Q 1263 203 1344 158 
Q 1425 113 1647 113 
L 1647 0 
L 244 0 
L 244 113 
Q 441 113 512 153 
Q 584 194 625 287 
Q 666 381 666 647 
L 666 3247 
Q 666 3731 644 3842 
Q 622 3953 573 3993 
Q 525 4034 450 4034 
Q 369 4034 244 3984 
L 191 4094 
L 1044 4444 
L 1184 4444 
z
" transform="scale(0.015625)"/>
       <path id="TimesNewRomanPSMT-63" d="M 2631 1088 
Q 2516 522 2178 217 
Q 1841 -88 1431 -88 
Q 944 -88 581 321 
Q 219 731 219 1428 
Q 219 2103 620 2525 
Q 1022 2947 1584 2947 
Q 2006 2947 2278 2723 
Q 2550 2500 2550 2259 
Q 2550 2141 2473 2067 
Q 2397 1994 2259 1994 
Q 2075 1994 1981 2113 
Q 1928 2178 1911 2362 
Q 1894 2547 1784 2644 
Q 1675 2738 1481 2738 
Q 1169 2738 978 2506 
Q 725 2200 725 1697 
Q 725 1184 976 792 
Q 1228 400 1656 400 
Q 1963 400 2206 609 
Q 2378 753 2541 1131 
L 2631 1088 
z
" transform="scale(0.015625)"/>
       <path id="TimesNewRomanPSMT-52" d="M 4325 0 
L 3194 0 
L 1759 1981 
Q 1600 1975 1500 1975 
Q 1459 1975 1412 1976 
Q 1366 1978 1316 1981 
L 1316 750 
Q 1316 350 1403 253 
Q 1522 116 1759 116 
L 1925 116 
L 1925 0 
L 109 0 
L 109 116 
L 269 116 
Q 538 116 653 291 
Q 719 388 719 750 
L 719 3488 
Q 719 3888 631 3984 
Q 509 4122 269 4122 
L 109 4122 
L 109 4238 
L 1653 4238 
Q 2328 4238 2648 4139 
Q 2969 4041 3192 3777 
Q 3416 3513 3416 3147 
Q 3416 2756 3161 2468 
Q 2906 2181 2372 2063 
L 3247 847 
Q 3547 428 3762 290 
Q 3978 153 4325 116 
L 4325 0 
z
M 1316 2178 
Q 1375 2178 1419 2176 
Q 1463 2175 1491 2175 
Q 2097 2175 2405 2437 
Q 2713 2700 2713 3106 
Q 2713 3503 2464 3751 
Q 2216 4000 1806 4000 
Q 1625 4000 1316 3941 
L 1316 2178 
z
" transform="scale(0.015625)"/>
       <path id="TimesNewRomanPSMT-49" d="M 1975 116 
L 1975 0 
L 159 0 
L 159 116 
L 309 116 
Q 572 116 691 269 
Q 766 369 766 750 
L 766 3488 
Q 766 3809 725 3913 
Q 694 3991 597 4047 
Q 459 4122 309 4122 
L 159 4122 
L 159 4238 
L 1975 4238 
L 1975 4122 
L 1822 4122 
Q 1563 4122 1444 3969 
Q 1366 3869 1366 3488 
L 1366 750 
Q 1366 428 1406 325 
Q 1438 247 1538 191 
Q 1672 116 1822 116 
L 1975 116 
z
" transform="scale(0.015625)"/>
       <path id="TimesNewRomanPSMT-53" d="M 2934 4334 
L 2934 2869 
L 2819 2869 
Q 2763 3291 2617 3541 
Q 2472 3791 2203 3937 
Q 1934 4084 1647 4084 
Q 1322 4084 1109 3886 
Q 897 3688 897 3434 
Q 897 3241 1031 3081 
Q 1225 2847 1953 2456 
Q 2547 2138 2764 1967 
Q 2981 1797 3098 1565 
Q 3216 1334 3216 1081 
Q 3216 600 2842 251 
Q 2469 -97 1881 -97 
Q 1697 -97 1534 -69 
Q 1438 -53 1133 45 
Q 828 144 747 144 
Q 669 144 623 97 
Q 578 50 556 -97 
L 441 -97 
L 441 1356 
L 556 1356 
Q 638 900 775 673 
Q 913 447 1195 297 
Q 1478 147 1816 147 
Q 2206 147 2432 353 
Q 2659 559 2659 841 
Q 2659 997 2573 1156 
Q 2488 1316 2306 1453 
Q 2184 1547 1640 1851 
Q 1097 2156 867 2337 
Q 638 2519 519 2737 
Q 400 2956 400 3219 
Q 400 3675 750 4004 
Q 1100 4334 1641 4334 
Q 1978 4334 2356 4169 
Q 2531 4091 2603 4091 
Q 2684 4091 2736 4139 
Q 2788 4188 2819 4334 
L 2934 4334 
z
" transform="scale(0.015625)"/>
      </defs>
      <use xlink:href="#TimesNewRomanPSMT-41"/>
      <use xlink:href="#TimesNewRomanPSMT-6e" transform="translate(72.216797 0)"/>
      <use xlink:href="#TimesNewRomanPSMT-61" transform="translate(122.216797 0)"/>
      <use xlink:href="#TimesNewRomanPSMT-6c" transform="translate(166.601562 0)"/>
      <use xlink:href="#TimesNewRomanPSMT-79" transform="translate(194.384766 0)"/>
      <use xlink:href="#TimesNewRomanPSMT-74" transform="translate(244.384766 0)"/>
      <use xlink:href="#TimesNewRomanPSMT-69" transform="translate(272.167969 0)"/>
      <use xlink:href="#TimesNewRomanPSMT-63" transform="translate(299.951172 0)"/>
      <use xlink:href="#TimesNewRomanPSMT-61" transform="translate(344.335938 0)"/>
      <use xlink:href="#TimesNewRomanPSMT-6c" transform="translate(388.720703 0)"/>
      <use xlink:href="#TimesNewRomanPSMT-52" transform="translate(416.503906 0)"/>
      <use xlink:href="#TimesNewRomanPSMT-49" transform="translate(483.203125 0)"/>
      <use xlink:href="#TimesNewRomanPSMT-53" transform="translate(516.503906 0)"/>
     </g>
    </g>
    <g id="patch_170">
     <path d="M 43.121875 61.440625 
L 63.121875 61.440625 
L 63.121875 54.440625 
L 43.121875 54.440625 
z
" style="fill: #e69f00; opacity: 0.55; stroke: #000000; stroke-width: 0.4; stroke-linejoin: miter"/>
    </g>
    <g id="text_19">
     <!-- FixedRIS -->
     <g transform="translate(71.121875 61.440625) scale(0.1 -0.1)">
      <defs>
       <path id="TimesNewRomanPSMT-46" d="M 1309 4006 
L 1309 2341 
L 2081 2341 
Q 2347 2341 2470 2458 
Q 2594 2575 2634 2922 
L 2750 2922 
L 2750 1488 
L 2634 1488 
Q 2631 1734 2570 1850 
Q 2509 1966 2401 2023 
Q 2294 2081 2081 2081 
L 1309 2081 
L 1309 750 
Q 1309 428 1350 325 
Q 1381 247 1481 191 
Q 1619 116 1769 116 
L 1922 116 
L 1922 0 
L 103 0 
L 103 116 
L 253 116 
Q 516 116 634 269 
Q 709 369 709 750 
L 709 3488 
Q 709 3809 669 3913 
Q 638 3991 541 4047 
Q 406 4122 253 4122 
L 103 4122 
L 103 4238 
L 3256 4238 
L 3297 3306 
L 3188 3306 
Q 3106 3603 2998 3742 
Q 2891 3881 2733 3943 
Q 2575 4006 2244 4006 
L 1309 4006 
z
" transform="scale(0.015625)"/>
       <path id="TimesNewRomanPSMT-78" d="M 84 2863 
L 1431 2863 
L 1431 2747 
Q 1303 2747 1251 2703 
Q 1200 2659 1200 2588 
Q 1200 2513 1309 2356 
Q 1344 2306 1413 2200 
L 1616 1875 
L 1850 2200 
Q 2075 2509 2075 2591 
Q 2075 2656 2022 2701 
Q 1969 2747 1850 2747 
L 1850 2863 
L 2819 2863 
L 2819 2747 
Q 2666 2738 2553 2663 
Q 2400 2556 2134 2200 
L 1744 1678 
L 2456 653 
Q 2719 275 2831 198 
Q 2944 122 3122 113 
L 3122 0 
L 1772 0 
L 1772 113 
Q 1913 113 1991 175 
Q 2050 219 2050 291 
Q 2050 363 1850 653 
L 1431 1266 
L 972 653 
Q 759 369 759 316 
Q 759 241 829 180 
Q 900 119 1041 113 
L 1041 0 
L 106 0 
L 106 113 
Q 219 128 303 191 
Q 422 281 703 653 
L 1303 1450 
L 759 2238 
Q 528 2575 401 2661 
Q 275 2747 84 2747 
L 84 2863 
z
" transform="scale(0.015625)"/>
      </defs>
      <use xlink:href="#TimesNewRomanPSMT-46"/>
      <use xlink:href="#TimesNewRomanPSMT-69" transform="translate(55.615234 0)"/>
      <use xlink:href="#TimesNewRomanPSMT-78" transform="translate(83.398438 0)"/>
      <use xlink:href="#TimesNewRomanPSMT-65" transform="translate(133.398438 0)"/>
      <use xlink:href="#TimesNewRomanPSMT-64" transform="translate(177.783203 0)"/>
      <use xlink:href="#TimesNewRomanPSMT-52" transform="translate(227.783203 0)"/>
      <use xlink:href="#TimesNewRomanPSMT-49" transform="translate(294.482422 0)"/>
      <use xlink:href="#TimesNewRomanPSMT-53" transform="translate(327.783203 0)"/>
     </g>
    </g>
    <g id="patch_171">
     <path d="M 43.121875 75.579687 
L 63.121875 75.579687 
L 63.121875 68.579687 
L 43.121875 68.579687 
z
" style="fill: #56b4e9; opacity: 0.55; stroke: #000000; stroke-width: 0.4; stroke-linejoin: miter"/>
    </g>
    <g id="text_20">
     <!-- RandomRIS -->
     <g transform="translate(71.121875 75.579687) scale(0.1 -0.1)">
      <defs>
       <path id="TimesNewRomanPSMT-6d" d="M 1050 2338 
Q 1363 2650 1419 2697 
Q 1559 2816 1721 2881 
Q 1884 2947 2044 2947 
Q 2313 2947 2506 2790 
Q 2700 2634 2766 2338 
Q 3088 2713 3309 2830 
Q 3531 2947 3766 2947 
Q 3994 2947 4170 2830 
Q 4347 2713 4450 2447 
Q 4519 2266 4519 1878 
L 4519 647 
Q 4519 378 4559 278 
Q 4591 209 4675 161 
Q 4759 113 4950 113 
L 4950 0 
L 3538 0 
L 3538 113 
L 3597 113 
Q 3781 113 3884 184 
Q 3956 234 3988 344 
Q 4000 397 4000 647 
L 4000 1878 
Q 4000 2228 3916 2372 
Q 3794 2572 3525 2572 
Q 3359 2572 3192 2489 
Q 3025 2406 2788 2181 
L 2781 2147 
L 2788 2013 
L 2788 647 
Q 2788 353 2820 281 
Q 2853 209 2943 161 
Q 3034 113 3253 113 
L 3253 0 
L 1806 0 
L 1806 113 
Q 2044 113 2133 169 
Q 2222 225 2256 338 
Q 2272 391 2272 647 
L 2272 1878 
Q 2272 2228 2169 2381 
Q 2031 2581 1784 2581 
Q 1616 2581 1450 2491 
Q 1191 2353 1050 2181 
L 1050 647 
Q 1050 366 1089 281 
Q 1128 197 1204 155 
Q 1281 113 1516 113 
L 1516 0 
L 100 0 
L 100 113 
Q 297 113 375 155 
Q 453 197 493 289 
Q 534 381 534 647 
L 534 1741 
Q 534 2213 506 2350 
Q 484 2453 437 2492 
Q 391 2531 309 2531 
Q 222 2531 100 2484 
L 53 2597 
L 916 2947 
L 1050 2947 
L 1050 2338 
z
" transform="scale(0.015625)"/>
      </defs>
      <use xlink:href="#TimesNewRomanPSMT-52"/>
      <use xlink:href="#TimesNewRomanPSMT-61" transform="translate(66.699219 0)"/>
      <use xlink:href="#TimesNewRomanPSMT-6e" transform="translate(111.083984 0)"/>
      <use xlink:href="#TimesNewRomanPSMT-64" transform="translate(161.083984 0)"/>
      <use xlink:href="#TimesNewRomanPSMT-6f" transform="translate(211.083984 0)"/>
      <use xlink:href="#TimesNewRomanPSMT-6d" transform="translate(261.083984 0)"/>
      <use xlink:href="#TimesNewRomanPSMT-52" transform="translate(338.867188 0)"/>
      <use xlink:href="#TimesNewRomanPSMT-49" transform="translate(405.566406 0)"/>
      <use xlink:href="#TimesNewRomanPSMT-53" transform="translate(438.867188 0)"/>
     </g>
    </g>
   </g>
  </g>
 </g>
 <defs>
  <clipPath id="p9ff3893c8e">
   <rect x="34.121875" y="17.14375" width="395.815" height="200.9275"/>
  </clipPath>
 </defs>
</svg>
