<?xml version="1.0" encoding="utf-8" standalone="no"?>
<!DOCTYPE svg PUBLIC "-//W3C//DTD SVG 1.1//EN"
  "http://www.w3.org/Graphics/SVG/1.1/DTD/svg11.dtd">
<svg xmlns:xlink="http://www.w3.org/1999/xlink" width="408.411875pt" height="255.097813pt" viewBox="0 0 408.411875 255.097813" xmlns="http://www.w3.org/2000/svg" version="1.1">
 <metadata>
  <rdf:RDF xmlns:dc="http://purl.org/dc/elements/1.1/" xmlns:cc="http://creativecommons.org/ns#" xmlns:rdf="http://www.w3.org/1999/02/22-rdf-syntax-ns#">
   <cc:Work>
    <dc:type rdf:resource="http://purl.org/dc/dcmitype/StillImage"/>
    <dc:date>2026-05-25T18:49:41.067870</dc:date>
    <dc:format>image/svg+xml</dc:format>
    <dc:creator>
     <cc:Agent>
      <dc:title>Matplotlib v3.10.8, https://matplotlib.org/</dc:title>
     </cc:Agent>
    </dc:creator>
   </cc:Work>
  </rdf:RDF>
 </metadata>
 <defs>
  <style type="text/css">*{stroke-linejoin: round; stroke-linecap: butt}</style>
 </defs>
 <g id="figure_1">
  <g id="patch_1">
   <path d="M 0 255.097813 
L 408.411875 255.097813 
L 408.411875 0 
L 0 0 
z
" style="fill: #ffffff"/>
  </g>
  <g id="axes_1">
   <g id="patch_2">
    <path d="M 41.621875 216.415 
L 401.211875 216.415 
L 401.211875 7.2 
L 41.621875 7.2 
z
" style="fill: #ffffff"/>
   </g>
   <g id="matplotlib.axis_1">
    <g id="xtick_1">
     <g id="line2d_1">
      <path d="M 57.966875 216.415 
L 57.966875 7.2 
" clip-path="url(#p799e776ed7)" style="fill: none; stroke-dasharray: 2.96,1.28; stroke-dashoffset: 0; stroke: #b0b0b0; stroke-opacity: 0.3; stroke-width: 0.8"/>
     </g>
     <g id="line2d_2">
      <defs>
       <path id="m078bb0e71d" d="M 0 0 
L 0 3.5 
" style="stroke: #000000; stroke-width: 0.8"/>
      </defs>
      <g>
       <use xlink:href="#m078bb0e71d" x="57.966875" y="216.415" style="stroke: #000000; stroke-width: 0.8"/>
      </g>
     </g>
     <g id="text_1">
      <!-- 10 -->
      <g transform="translate(52.966875 230.35875) scale(0.1 -0.1)">
       <defs>
        <path id="TimesNewRomanPSMT-31" d="M 750 3822 
L 1781 4325 
L 1884 4325 
L 1884 747 
Q 1884 391 1914 303 
Q 1944 216 2037 169 
Q 2131 122 2419 116 
L 2419 0 
L 825 0 
L 825 116 
Q 1125 122 1212 167 
Q 1300 213 1334 289 
Q 1369 366 1369 747 
L 1369 3034 
Q 1369 3497 1338 3628 
Q 1316 3728 1258 3775 
Q 1200 3822 1119 3822 
Q 1003 3822 797 3725 
L 750 3822 
z
" transform="scale(0.015625)"/>
        <path id="TimesNewRomanPSMT-30" d="M 231 2094 
Q 231 2819 450 3342 
Q 669 3866 1031 4122 
Q 1313 4325 1613 4325 
Q 2100 4325 2488 3828 
Q 2972 3213 2972 2159 
Q 2972 1422 2759 906 
Q 2547 391 2217 158 
Q 1888 -75 1581 -75 
Q 975 -75 572 641 
Q 231 1244 231 2094 
z
M 844 2016 
Q 844 1141 1059 588 
Q 1238 122 1591 122 
Q 1759 122 1940 273 
Q 2122 425 2216 781 
Q 2359 1319 2359 2297 
Q 2359 3022 2209 3506 
Q 2097 3866 1919 4016 
Q 1791 4119 1609 4119 
Q 1397 4119 1231 3928 
Q 1006 3669 925 3112 
Q 844 2556 844 2016 
z
" transform="scale(0.015625)"/>
       </defs>
       <use xlink:href="#TimesNewRomanPSMT-31"/>
       <use xlink:href="#TimesNewRomanPSMT-30" transform="translate(50 0)"/>
      </g>
     </g>
    </g>
    <g id="xtick_2">
     <g id="line2d_3">
      <path d="M 123.346875 216.415 
L 123.346875 7.2 
" clip-path="url(#p799e776ed7)" style="fill: none; stroke-dasharray: 2.96,1.28; stroke-dashoffset: 0; stroke: #b0b0b0; stroke-opacity: 0.3; stroke-width: 0.8"/>
     </g>
     <g id="line2d_4">
      <g>
       <use xlink:href="#m078bb0e71d" x="123.346875" y="216.415" style="stroke: #000000; stroke-width: 0.8"/>
      </g>
     </g>
     <g id="text_2">
      <!-- 15 -->
      <g transform="translate(118.346875 230.35875) scale(0.1 -0.1)">
       <defs>
        <path id="TimesNewRomanPSMT-35" d="M 2778 4238 
L 2534 3706 
L 1259 3706 
L 981 3138 
Q 1809 3016 2294 2522 
Q 2709 2097 2709 1522 
Q 2709 1188 2573 903 
Q 2438 619 2231 419 
Q 2025 219 1772 97 
Q 1413 -75 1034 -75 
Q 653 -75 479 54 
Q 306 184 306 341 
Q 306 428 378 495 
Q 450 563 559 563 
Q 641 563 702 538 
Q 763 513 909 409 
Q 1144 247 1384 247 
Q 1750 247 2026 523 
Q 2303 800 2303 1197 
Q 2303 1581 2056 1914 
Q 1809 2247 1375 2428 
Q 1034 2569 447 2591 
L 1259 4238 
L 2778 4238 
z
" transform="scale(0.015625)"/>
       </defs>
       <use xlink:href="#TimesNewRomanPSMT-31"/>
       <use xlink:href="#TimesNewRomanPSMT-35" transform="translate(50 0)"/>
      </g>
     </g>
    </g>
    <g id="xtick_3">
     <g id="line2d_5">
      <path d="M 188.726875 216.415 
L 188.726875 7.2 
" clip-path="url(#p799e776ed7)" style="fill: none; stroke-dasharray: 2.96,1.28; stroke-dashoffset: 0; stroke: #b0b0b0; stroke-opacity: 0.3; stroke-width: 0.8"/>
     </g>
     <g id="line2d_6">
      <g>
       <use xlink:href="#m078bb0e71d" x="188.726875" y="216.415" style="stroke: #000000; stroke-width: 0.8"/>
      </g>
     </g>
     <g id="text_3">
      <!-- 20 -->
      <g transform="translate(183.726875 230.35875) scale(0.1 -0.1)">
       <defs>
        <path id="TimesNewRomanPSMT-32" d="M 2934 816 
L 2638 0 
L 138 0 
L 138 116 
Q 1241 1122 1691 1759 
Q 2141 2397 2141 2925 
Q 2141 3328 1894 3587 
Q 1647 3847 1303 3847 
Q 991 3847 742 3664 
Q 494 3481 375 3128 
L 259 3128 
Q 338 3706 661 4015 
Q 984 4325 1469 4325 
Q 1984 4325 2329 3994 
Q 2675 3663 2675 3213 
Q 2675 2891 2525 2569 
Q 2294 2063 1775 1497 
Q 997 647 803 472 
L 1909 472 
Q 2247 472 2383 497 
Q 2519 522 2628 598 
Q 2738 675 2819 816 
L 2934 816 
z
" transform="scale(0.015625)"/>
       </defs>
       <use xlink:href="#TimesNewRomanPSMT-32"/>
       <use xlink:href="#TimesNewRomanPSMT-30" transform="translate(50 0)"/>
      </g>
     </g>
    </g>
    <g id="xtick_4">
     <g id="line2d_7">
      <path d="M 254.106875 216.415 
L 254.106875 7.2 
" clip-path="url(#p799e776ed7)" style="fill: none; stroke-dasharray: 2.96,1.28; stroke-dashoffset: 0; stroke: #b0b0b0; stroke-opacity: 0.3; stroke-width: 0.8"/>
     </g>
     <g id="line2d_8">
      <g>
       <use xlink:href="#m078bb0e71d" x="254.106875" y="216.415" style="stroke: #000000; stroke-width: 0.8"/>
      </g>
     </g>
     <g id="text_4">
      <!-- 25 -->
      <g transform="translate(249.106875 230.35875) scale(0.1 -0.1)">
       <use xlink:href="#TimesNewRomanPSMT-32"/>
       <use xlink:href="#TimesNewRomanPSMT-35" transform="translate(50 0)"/>
      </g>
     </g>
    </g>
    <g id="xtick_5">
     <g id="line2d_9">
      <path d="M 319.486875 216.415 
L 319.486875 7.2 
" clip-path="url(#p799e776ed7)" style="fill: none; stroke-dasharray: 2.96,1.28; stroke-dashoffset: 0; stroke: #b0b0b0; stroke-opacity: 0.3; stroke-width: 0.8"/>
     </g>
     <g id="line2d_10">
      <g>
       <use xlink:href="#m078bb0e71d" x="319.486875" y="216.415" style="stroke: #000000; stroke-width: 0.8"/>
      </g>
     </g>
     <g id="text_5">
      <!-- 30 -->
      <g transform="translate(314.486875 230.35875) scale(0.1 -0.1)">
       <defs>
        <path id="TimesNewRomanPSMT-33" d="M 325 3431 
Q 506 3859 782 4092 
Q 1059 4325 1472 4325 
Q 1981 4325 2253 3994 
Q 2459 3747 2459 3466 
Q 2459 3003 1878 2509 
Q 2269 2356 2469 2072 
Q 2669 1788 2669 1403 
Q 2669 853 2319 450 
Q 1863 -75 997 -75 
Q 569 -75 414 31 
Q 259 138 259 259 
Q 259 350 332 419 
Q 406 488 509 488 
Q 588 488 669 463 
Q 722 447 909 348 
Q 1097 250 1169 231 
Q 1284 197 1416 197 
Q 1734 197 1970 444 
Q 2206 691 2206 1028 
Q 2206 1275 2097 1509 
Q 2016 1684 1919 1775 
Q 1784 1900 1550 2001 
Q 1316 2103 1072 2103 
L 972 2103 
L 972 2197 
Q 1219 2228 1467 2375 
Q 1716 2522 1828 2728 
Q 1941 2934 1941 3181 
Q 1941 3503 1739 3701 
Q 1538 3900 1238 3900 
Q 753 3900 428 3381 
L 325 3431 
z
" transform="scale(0.015625)"/>
       </defs>
       <use xlink:href="#TimesNewRomanPSMT-33"/>
       <use xlink:href="#TimesNewRomanPSMT-30" transform="translate(50 0)"/>
      </g>
     </g>
    </g>
    <g id="xtick_6">
     <g id="line2d_11">
      <path d="M 384.866875 216.415 
L 384.866875 7.2 
" clip-path="url(#p799e776ed7)" style="fill: none; stroke-dasharray: 2.96,1.28; stroke-dashoffset: 0; stroke: #b0b0b0; stroke-opacity: 0.3; stroke-width: 0.8"/>
     </g>
     <g id="line2d_12">
      <g>
       <use xlink:href="#m078bb0e71d" x="384.866875" y="216.415" style="stroke: #000000; stroke-width: 0.8"/>
      </g>
     </g>
     <g id="text_6">
      <!-- 35 -->
      <g transform="translate(379.866875 230.35875) scale(0.1 -0.1)">
       <use xlink:href="#TimesNewRomanPSMT-33"/>
       <use xlink:href="#TimesNewRomanPSMT-35" transform="translate(50 0)"/>
      </g>
     </g>
    </g>
    <g id="text_7">
     <!-- $P_{\max}$ (dBm) -->
     <g transform="translate(191.296875 245.257813) scale(0.12 -0.12)">
      <defs>
       <path id="DejaVuSans-Oblique-50" d="M 1081 4666 
L 2541 4666 
Q 3178 4666 3512 4369 
Q 3847 4072 3847 3500 
Q 3847 2731 3353 2303 
Q 2859 1875 1966 1875 
L 1172 1875 
L 806 0 
L 172 0 
L 1081 4666 
z
M 1613 4147 
L 1275 2394 
L 2069 2394 
Q 2606 2394 2893 2669 
Q 3181 2944 3181 3456 
Q 3181 3784 2986 3965 
Q 2791 4147 2438 4147 
L 1613 4147 
z
" transform="scale(0.015625)"/>
       <path id="DejaVuSans-6d" d="M 3328 2828 
Q 3544 3216 3844 3400 
Q 4144 3584 4550 3584 
Q 5097 3584 5394 3201 
Q 5691 2819 5691 2113 
L 5691 0 
L 5113 0 
L 5113 2094 
Q 5113 2597 4934 2840 
Q 4756 3084 4391 3084 
Q 3944 3084 3684 2787 
Q 3425 2491 3425 1978 
L 3425 0 
L 2847 0 
L 2847 2094 
Q 2847 2600 2669 2842 
Q 2491 3084 2119 3084 
Q 1678 3084 1418 2786 
Q 1159 2488 1159 1978 
L 1159 0 
L 581 0 
L 581 3500 
L 1159 3500 
L 1159 2956 
Q 1356 3278 1631 3431 
Q 1906 3584 2284 3584 
Q 2666 3584 2933 3390 
Q 3200 3197 3328 2828 
z
" transform="scale(0.015625)"/>
       <path id="DejaVuSans-61" d="M 2194 1759 
Q 1497 1759 1228 1600 
Q 959 1441 959 1056 
Q 959 750 1161 570 
Q 1363 391 1709 391 
Q 2188 391 2477 730 
Q 2766 1069 2766 1631 
L 2766 1759 
L 2194 1759 
z
M 3341 1997 
L 3341 0 
L 2766 0 
L 2766 531 
Q 2569 213 2275 61 
Q 1981 -91 1556 -91 
Q 1019 -91 701 211 
Q 384 513 384 1019 
Q 384 1609 779 1909 
Q 1175 2209 1959 2209 
L 2766 2209 
L 2766 2266 
Q 2766 2663 2505 2880 
Q 2244 3097 1772 3097 
Q 1472 3097 1187 3025 
Q 903 2953 641 2809 
L 641 3341 
Q 956 3463 1253 3523 
Q 1550 3584 1831 3584 
Q 2591 3584 2966 3190 
Q 3341 2797 3341 1997 
z
" transform="scale(0.015625)"/>
       <path id="DejaVuSans-78" d="M 3513 3500 
L 2247 1797 
L 3578 0 
L 2900 0 
L 1881 1375 
L 863 0 
L 184 0 
L 1544 1831 
L 300 3500 
L 978 3500 
L 1906 2253 
L 2834 3500 
L 3513 3500 
z
" transform="scale(0.015625)"/>
       <path id="TimesNewRomanPSMT-20" transform="scale(0.015625)"/>
       <path id="TimesNewRomanPSMT-28" d="M 1988 -1253 
L 1988 -1369 
Q 1516 -1131 1200 -813 
Q 750 -359 506 256 
Q 263 872 263 1534 
Q 263 2503 741 3301 
Q 1219 4100 1988 4444 
L 1988 4313 
Q 1603 4100 1356 3731 
Q 1109 3363 987 2797 
Q 866 2231 866 1616 
Q 866 947 969 400 
Q 1050 -31 1165 -292 
Q 1281 -553 1476 -793 
Q 1672 -1034 1988 -1253 
z
" transform="scale(0.015625)"/>
       <path id="TimesNewRomanPSMT-64" d="M 2222 322 
Q 2013 103 1813 7 
Q 1613 -88 1381 -88 
Q 913 -88 563 304 
Q 213 697 213 1313 
Q 213 1928 600 2439 
Q 988 2950 1597 2950 
Q 1975 2950 2222 2709 
L 2222 3238 
Q 2222 3728 2198 3840 
Q 2175 3953 2125 3993 
Q 2075 4034 2000 4034 
Q 1919 4034 1784 3984 
L 1744 4094 
L 2597 4444 
L 2738 4444 
L 2738 1134 
Q 2738 631 2761 520 
Q 2784 409 2836 365 
Q 2888 322 2956 322 
Q 3041 322 3181 375 
L 3216 266 
L 2366 -88 
L 2222 -88 
L 2222 322 
z
M 2222 541 
L 2222 2016 
Q 2203 2228 2109 2403 
Q 2016 2578 1861 2667 
Q 1706 2756 1559 2756 
Q 1284 2756 1069 2509 
Q 784 2184 784 1559 
Q 784 928 1059 592 
Q 1334 256 1672 256 
Q 1956 256 2222 541 
z
" transform="scale(0.015625)"/>
       <path id="TimesNewRomanPSMT-42" d="M 2956 2163 
Q 3397 2069 3616 1863 
Q 3919 1575 3919 1159 
Q 3919 844 3719 555 
Q 3519 266 3170 133 
Q 2822 0 2106 0 
L 106 0 
L 106 116 
L 266 116 
Q 531 116 647 284 
Q 719 394 719 750 
L 719 3488 
Q 719 3881 628 3984 
Q 506 4122 266 4122 
L 106 4122 
L 106 4238 
L 1938 4238 
Q 2450 4238 2759 4163 
Q 3228 4050 3475 3764 
Q 3722 3478 3722 3106 
Q 3722 2788 3528 2536 
Q 3334 2284 2956 2163 
z
M 1319 2331 
Q 1434 2309 1582 2298 
Q 1731 2288 1909 2288 
Q 2366 2288 2595 2386 
Q 2825 2484 2947 2687 
Q 3069 2891 3069 3131 
Q 3069 3503 2766 3765 
Q 2463 4028 1881 4028 
Q 1569 4028 1319 3959 
L 1319 2331 
z
M 1319 306 
Q 1681 222 2034 222 
Q 2600 222 2897 476 
Q 3194 731 3194 1106 
Q 3194 1353 3059 1581 
Q 2925 1809 2622 1940 
Q 2319 2072 1872 2072 
Q 1678 2072 1540 2065 
Q 1403 2059 1319 2044 
L 1319 306 
z
" transform="scale(0.015625)"/>
       <path id="TimesNewRomanPSMT-6d" d="M 1050 2338 
Q 1363 2650 1419 2697 
Q 1559 2816 1721 2881 
Q 1884 2947 2044 2947 
Q 2313 2947 2506 2790 
Q 2700 2634 2766 2338 
Q 3088 2713 3309 2830 
Q 3531 2947 3766 2947 
Q 3994 2947 4170 2830 
Q 4347 2713 4450 2447 
Q 4519 2266 4519 1878 
L 4519 647 
Q 4519 378 4559 278 
Q 4591 209 4675 161 
Q 4759 113 4950 113 
L 4950 0 
L 3538 0 
L 3538 113 
L 3597 113 
Q 3781 113 3884 184 
Q 3956 234 3988 344 
Q 4000 397 4000 647 
L 4000 1878 
Q 4000 2228 3916 2372 
Q 3794 2572 3525 2572 
Q 3359 2572 3192 2489 
Q 3025 2406 2788 2181 
L 2781 2147 
L 2788 2013 
L 2788 647 
Q 2788 353 2820 281 
Q 2853 209 2943 161 
Q 3034 113 3253 113 
L 3253 0 
L 1806 0 
L 1806 113 
Q 2044 113 2133 169 
Q 2222 225 2256 338 
Q 2272 391 2272 647 
L 2272 1878 
Q 2272 2228 2169 2381 
Q 2031 2581 1784 2581 
Q 1616 2581 1450 2491 
Q 1191 2353 1050 2181 
L 1050 647 
Q 1050 366 1089 281 
Q 1128 197 1204 155 
Q 1281 113 1516 113 
L 1516 0 
L 100 0 
L 100 113 
Q 297 113 375 155 
Q 453 197 493 289 
Q 534 381 534 647 
L 534 1741 
Q 534 2213 506 2350 
Q 484 2453 437 2492 
Q 391 2531 309 2531 
Q 222 2531 100 2484 
L 53 2597 
L 916 2947 
L 1050 2947 
L 1050 2338 
z
" transform="scale(0.015625)"/>
       <path id="TimesNewRomanPSMT-29" d="M 144 4313 
L 144 4444 
Q 619 4209 934 3891 
Q 1381 3434 1625 2820 
Q 1869 2206 1869 1541 
Q 1869 572 1392 -226 
Q 916 -1025 144 -1369 
L 144 -1253 
Q 528 -1038 776 -670 
Q 1025 -303 1145 264 
Q 1266 831 1266 1447 
Q 1266 2113 1163 2663 
Q 1084 3094 967 3353 
Q 850 3613 656 3853 
Q 463 4094 144 4313 
z
" transform="scale(0.015625)"/>
      </defs>
      <use xlink:href="#DejaVuSans-Oblique-50" transform="translate(0 0.09375)"/>
      <use xlink:href="#DejaVuSans-6d" transform="translate(60.302734 -16.3125) scale(0.7)"/>
      <use xlink:href="#DejaVuSans-61" transform="translate(128.491211 -16.3125) scale(0.7)"/>
      <use xlink:href="#DejaVuSans-78" transform="translate(171.386719 -16.3125) scale(0.7)"/>
      <use xlink:href="#TimesNewRomanPSMT-20" transform="translate(215.546875 0.09375)"/>
      <use xlink:href="#TimesNewRomanPSMT-28" transform="translate(240.546875 0.09375)"/>
      <use xlink:href="#TimesNewRomanPSMT-64" transform="translate(273.847656 0.09375)"/>
      <use xlink:href="#TimesNewRomanPSMT-42" transform="translate(323.847656 0.09375)"/>
      <use xlink:href="#TimesNewRomanPSMT-6d" transform="translate(390.546875 0.09375)"/>
      <use xlink:href="#TimesNewRomanPSMT-29" transform="translate(468.330078 0.09375)"/>
     </g>
    </g>
   </g>
   <g id="matplotlib.axis_2">
    <g id="ytick_1">
     <g id="line2d_13">
      <path d="M 41.621875 205.163688 
L 401.211875 205.163688 
" clip-path="url(#p799e776ed7)" style="fill: none; stroke-dasharray: 2.96,1.28; stroke-dashoffset: 0; stroke: #b0b0b0; stroke-opacity: 0.3; stroke-width: 0.8"/>
     </g>
     <g id="line2d_14">
      <defs>
       <path id="mcb3cf268d5" d="M 0 0 
L -3.5 0 
" style="stroke: #000000; stroke-width: 0.8"/>
      </defs>
      <g>
       <use xlink:href="#mcb3cf268d5" x="41.621875" y="205.163688" style="stroke: #000000; stroke-width: 0.8"/>
      </g>
     </g>
     <g id="text_8">
      <!-- 0.0 -->
      <g transform="translate(22.121875 208.635563) scale(0.1 -0.1)">
       <defs>
        <path id="TimesNewRomanPSMT-2e" d="M 800 606 
Q 947 606 1047 504 
Q 1147 403 1147 259 
Q 1147 116 1045 14 
Q 944 -88 800 -88 
Q 656 -88 554 14 
Q 453 116 453 259 
Q 453 406 554 506 
Q 656 606 800 606 
z
" transform="scale(0.015625)"/>
       </defs>
       <use xlink:href="#TimesNewRomanPSMT-30"/>
       <use xlink:href="#TimesNewRomanPSMT-2e" transform="translate(50 0)"/>
       <use xlink:href="#TimesNewRomanPSMT-30" transform="translate(75 0)"/>
      </g>
     </g>
    </g>
    <g id="ytick_2">
     <g id="line2d_15">
      <path d="M 41.621875 167.472905 
L 401.211875 167.472905 
" clip-path="url(#p799e776ed7)" style="fill: none; stroke-dasharray: 2.96,1.28; stroke-dashoffset: 0; stroke: #b0b0b0; stroke-opacity: 0.3; stroke-width: 0.8"/>
     </g>
     <g id="line2d_16">
      <g>
       <use xlink:href="#mcb3cf268d5" x="41.621875" y="167.472905" style="stroke: #000000; stroke-width: 0.8"/>
      </g>
     </g>
     <g id="text_9">
      <!-- 0.2 -->
      <g transform="translate(22.121875 170.94478) scale(0.1 -0.1)">
       <use xlink:href="#TimesNewRomanPSMT-30"/>
       <use xlink:href="#TimesNewRomanPSMT-2e" transform="translate(50 0)"/>
       <use xlink:href="#TimesNewRomanPSMT-32" transform="translate(75 0)"/>
      </g>
     </g>
    </g>
    <g id="ytick_3">
     <g id="line2d_17">
      <path d="M 41.621875 129.782122 
L 401.211875 129.782122 
" clip-path="url(#p799e776ed7)" style="fill: none; stroke-dasharray: 2.96,1.28; stroke-dashoffset: 0; stroke: #b0b0b0; stroke-opacity: 0.3; stroke-width: 0.8"/>
     </g>
     <g id="line2d_18">
      <g>
       <use xlink:href="#mcb3cf268d5" x="41.621875" y="129.782122" style="stroke: #000000; stroke-width: 0.8"/>
      </g>
     </g>
     <g id="text_10">
      <!-- 0.4 -->
      <g transform="translate(22.121875 133.253997) scale(0.1 -0.1)">
       <defs>
        <path id="TimesNewRomanPSMT-34" d="M 2978 1563 
L 2978 1119 
L 2409 1119 
L 2409 0 
L 1894 0 
L 1894 1119 
L 100 1119 
L 100 1519 
L 2066 4325 
L 2409 4325 
L 2409 1563 
L 2978 1563 
z
M 1894 1563 
L 1894 3666 
L 406 1563 
L 1894 1563 
z
" transform="scale(0.015625)"/>
       </defs>
       <use xlink:href="#TimesNewRomanPSMT-30"/>
       <use xlink:href="#TimesNewRomanPSMT-2e" transform="translate(50 0)"/>
       <use xlink:href="#TimesNewRomanPSMT-34" transform="translate(75 0)"/>
      </g>
     </g>
    </g>
    <g id="ytick_4">
     <g id="line2d_19">
      <path d="M 41.621875 92.091339 
L 401.211875 92.091339 
" clip-path="url(#p799e776ed7)" style="fill: none; stroke-dasharray: 2.96,1.28; stroke-dashoffset: 0; stroke: #b0b0b0; stroke-opacity: 0.3; stroke-width: 0.8"/>
     </g>
     <g id="line2d_20">
      <g>
       <use xlink:href="#mcb3cf268d5" x="41.621875" y="92.091339" style="stroke: #000000; stroke-width: 0.8"/>
      </g>
     </g>
     <g id="text_11">
      <!-- 0.6 -->
      <g transform="translate(22.121875 95.563214) scale(0.1 -0.1)">
       <defs>
        <path id="TimesNewRomanPSMT-36" d="M 2869 4325 
L 2869 4209 
Q 2456 4169 2195 4045 
Q 1934 3922 1679 3669 
Q 1425 3416 1258 3105 
Q 1091 2794 978 2366 
Q 1428 2675 1881 2675 
Q 2316 2675 2634 2325 
Q 2953 1975 2953 1425 
Q 2953 894 2631 456 
Q 2244 -75 1606 -75 
Q 1172 -75 869 213 
Q 275 772 275 1663 
Q 275 2231 503 2743 
Q 731 3256 1154 3653 
Q 1578 4050 1965 4187 
Q 2353 4325 2688 4325 
L 2869 4325 
z
M 925 2138 
Q 869 1716 869 1456 
Q 869 1156 980 804 
Q 1091 453 1309 247 
Q 1469 100 1697 100 
Q 1969 100 2183 356 
Q 2397 613 2397 1088 
Q 2397 1622 2184 2012 
Q 1972 2403 1581 2403 
Q 1463 2403 1327 2353 
Q 1191 2303 925 2138 
z
" transform="scale(0.015625)"/>
       </defs>
       <use xlink:href="#TimesNewRomanPSMT-30"/>
       <use xlink:href="#TimesNewRomanPSMT-2e" transform="translate(50 0)"/>
       <use xlink:href="#TimesNewRomanPSMT-36" transform="translate(75 0)"/>
      </g>
     </g>
    </g>
    <g id="ytick_5">
     <g id="line2d_21">
      <path d="M 41.621875 54.400556 
L 401.211875 54.400556 
" clip-path="url(#p799e776ed7)" style="fill: none; stroke-dasharray: 2.96,1.28; stroke-dashoffset: 0; stroke: #b0b0b0; stroke-opacity: 0.3; stroke-width: 0.8"/>
     </g>
     <g id="line2d_22">
      <g>
       <use xlink:href="#mcb3cf268d5" x="41.621875" y="54.400556" style="stroke: #000000; stroke-width: 0.8"/>
      </g>
     </g>
     <g id="text_12">
      <!-- 0.8 -->
      <g transform="translate(22.121875 57.872431) scale(0.1 -0.1)">
       <defs>
        <path id="TimesNewRomanPSMT-38" d="M 1228 2134 
Q 725 2547 579 2797 
Q 434 3047 434 3316 
Q 434 3728 753 4026 
Q 1072 4325 1600 4325 
Q 2113 4325 2425 4047 
Q 2738 3769 2738 3413 
Q 2738 3175 2569 2928 
Q 2400 2681 1866 2347 
Q 2416 1922 2594 1678 
Q 2831 1359 2831 1006 
Q 2831 559 2490 242 
Q 2150 -75 1597 -75 
Q 994 -75 656 303 
Q 388 606 388 966 
Q 388 1247 577 1523 
Q 766 1800 1228 2134 
z
M 1719 2469 
Q 2094 2806 2194 3001 
Q 2294 3197 2294 3444 
Q 2294 3772 2109 3958 
Q 1925 4144 1606 4144 
Q 1288 4144 1088 3959 
Q 888 3775 888 3528 
Q 888 3366 970 3203 
Q 1053 3041 1206 2894 
L 1719 2469 
z
M 1375 2016 
Q 1116 1797 991 1539 
Q 866 1281 866 981 
Q 866 578 1086 336 
Q 1306 94 1647 94 
Q 1984 94 2187 284 
Q 2391 475 2391 747 
Q 2391 972 2272 1150 
Q 2050 1481 1375 2016 
z
" transform="scale(0.015625)"/>
       </defs>
       <use xlink:href="#TimesNewRomanPSMT-30"/>
       <use xlink:href="#TimesNewRomanPSMT-2e" transform="translate(50 0)"/>
       <use xlink:href="#TimesNewRomanPSMT-38" transform="translate(75 0)"/>
      </g>
     </g>
    </g>
    <g id="ytick_6">
     <g id="line2d_23">
      <path d="M 41.621875 16.709773 
L 401.211875 16.709773 
" clip-path="url(#p799e776ed7)" style="fill: none; stroke-dasharray: 2.96,1.28; stroke-dashoffset: 0; stroke: #b0b0b0; stroke-opacity: 0.3; stroke-width: 0.8"/>
     </g>
     <g id="line2d_24">
      <g>
       <use xlink:href="#mcb3cf268d5" x="41.621875" y="16.709773" style="stroke: #000000; stroke-width: 0.8"/>
      </g>
     </g>
     <g id="text_13">
      <!-- 1.0 -->
      <g transform="translate(22.121875 20.181648) scale(0.1 -0.1)">
       <use xlink:href="#TimesNewRomanPSMT-31"/>
       <use xlink:href="#TimesNewRomanPSMT-2e" transform="translate(50 0)"/>
       <use xlink:href="#TimesNewRomanPSMT-30" transform="translate(75 0)"/>
      </g>
     </g>
    </g>
    <g id="text_14">
     <!-- QoS satisfaction probability -->
     <g transform="translate(15.5325 179.132188) rotate(-90) scale(0.12 -0.12)">
      <defs>
       <path id="TimesNewRomanPSMT-51" d="M 2819 -47 
Q 3138 -597 3508 -856 
Q 3878 -1116 4350 -1153 
L 4350 -1253 
Q 3919 -1238 3428 -1080 
Q 2938 -922 2498 -642 
Q 2059 -363 1741 -47 
Q 1291 134 1028 338 
Q 647 641 436 1083 
Q 225 1525 225 2128 
Q 225 3078 840 3706 
Q 1456 4334 2331 4334 
Q 3163 4334 3770 3704 
Q 4378 3075 4378 2116 
Q 4378 1338 3945 750 
Q 3513 163 2819 -47 
z
M 2294 4094 
Q 1725 4094 1378 3688 
Q 941 3178 941 2128 
Q 941 1100 1384 544 
Q 1728 116 2294 116 
Q 2881 116 3241 544 
Q 3663 1050 3663 2038 
Q 3663 2797 3431 3316 
Q 3253 3716 2958 3905 
Q 2663 4094 2294 4094 
z
" transform="scale(0.015625)"/>
       <path id="TimesNewRomanPSMT-6f" d="M 1600 2947 
Q 2250 2947 2644 2453 
Q 2978 2031 2978 1484 
Q 2978 1100 2793 706 
Q 2609 313 2286 112 
Q 1963 -88 1566 -88 
Q 919 -88 538 428 
Q 216 863 216 1403 
Q 216 1797 411 2186 
Q 606 2575 925 2761 
Q 1244 2947 1600 2947 
z
M 1503 2744 
Q 1338 2744 1170 2645 
Q 1003 2547 900 2300 
Q 797 2053 797 1666 
Q 797 1041 1045 587 
Q 1294 134 1700 134 
Q 2003 134 2200 384 
Q 2397 634 2397 1244 
Q 2397 2006 2069 2444 
Q 1847 2744 1503 2744 
z
" transform="scale(0.015625)"/>
       <path id="TimesNewRomanPSMT-53" d="M 2934 4334 
L 2934 2869 
L 2819 2869 
Q 2763 3291 2617 3541 
Q 2472 3791 2203 3937 
Q 1934 4084 1647 4084 
Q 1322 4084 1109 3886 
Q 897 3688 897 3434 
Q 897 3241 1031 3081 
Q 1225 2847 1953 2456 
Q 2547 2138 2764 1967 
Q 2981 1797 3098 1565 
Q 3216 1334 3216 1081 
Q 3216 600 2842 251 
Q 2469 -97 1881 -97 
Q 1697 -97 1534 -69 
Q 1438 -53 1133 45 
Q 828 144 747 144 
Q 669 144 623 97 
Q 578 50 556 -97 
L 441 -97 
L 441 1356 
L 556 1356 
Q 638 900 775 673 
Q 913 447 1195 297 
Q 1478 147 1816 147 
Q 2206 147 2432 353 
Q 2659 559 2659 841 
Q 2659 997 2573 1156 
Q 2488 1316 2306 1453 
Q 2184 1547 1640 1851 
Q 1097 2156 867 2337 
Q 638 2519 519 2737 
Q 400 2956 400 3219 
Q 400 3675 750 4004 
Q 1100 4334 1641 4334 
Q 1978 4334 2356 4169 
Q 2531 4091 2603 4091 
Q 2684 4091 2736 4139 
Q 2788 4188 2819 4334 
L 2934 4334 
z
" transform="scale(0.015625)"/>
       <path id="TimesNewRomanPSMT-73" d="M 2050 2947 
L 2050 1972 
L 1947 1972 
Q 1828 2431 1642 2597 
Q 1456 2763 1169 2763 
Q 950 2763 815 2647 
Q 681 2531 681 2391 
Q 681 2216 781 2091 
Q 878 1963 1175 1819 
L 1631 1597 
Q 2266 1288 2266 781 
Q 2266 391 1970 151 
Q 1675 -88 1309 -88 
Q 1047 -88 709 6 
Q 606 38 541 38 
Q 469 38 428 -44 
L 325 -44 
L 325 978 
L 428 978 
Q 516 541 762 319 
Q 1009 97 1316 97 
Q 1531 97 1667 223 
Q 1803 350 1803 528 
Q 1803 744 1651 891 
Q 1500 1038 1047 1263 
Q 594 1488 453 1669 
Q 313 1847 313 2119 
Q 313 2472 555 2709 
Q 797 2947 1181 2947 
Q 1350 2947 1591 2875 
Q 1750 2828 1803 2828 
Q 1853 2828 1881 2850 
Q 1909 2872 1947 2947 
L 2050 2947 
z
" transform="scale(0.015625)"/>
       <path id="TimesNewRomanPSMT-61" d="M 1822 413 
Q 1381 72 1269 19 
Q 1100 -59 909 -59 
Q 613 -59 420 144 
Q 228 347 228 678 
Q 228 888 322 1041 
Q 450 1253 767 1440 
Q 1084 1628 1822 1897 
L 1822 2009 
Q 1822 2438 1686 2597 
Q 1550 2756 1291 2756 
Q 1094 2756 978 2650 
Q 859 2544 859 2406 
L 866 2225 
Q 866 2081 792 2003 
Q 719 1925 600 1925 
Q 484 1925 411 2006 
Q 338 2088 338 2228 
Q 338 2497 613 2722 
Q 888 2947 1384 2947 
Q 1766 2947 2009 2819 
Q 2194 2722 2281 2516 
Q 2338 2381 2338 1966 
L 2338 994 
Q 2338 584 2353 492 
Q 2369 400 2405 369 
Q 2441 338 2488 338 
Q 2538 338 2575 359 
Q 2641 400 2828 588 
L 2828 413 
Q 2478 -56 2159 -56 
Q 2006 -56 1915 50 
Q 1825 156 1822 413 
z
M 1822 616 
L 1822 1706 
Q 1350 1519 1213 1441 
Q 966 1303 859 1153 
Q 753 1003 753 825 
Q 753 600 887 451 
Q 1022 303 1197 303 
Q 1434 303 1822 616 
z
" transform="scale(0.015625)"/>
       <path id="TimesNewRomanPSMT-74" d="M 1031 3803 
L 1031 2863 
L 1700 2863 
L 1700 2644 
L 1031 2644 
L 1031 788 
Q 1031 509 1111 412 
Q 1191 316 1316 316 
Q 1419 316 1516 380 
Q 1613 444 1666 569 
L 1788 569 
Q 1678 263 1478 108 
Q 1278 -47 1066 -47 
Q 922 -47 784 33 
Q 647 113 581 261 
Q 516 409 516 719 
L 516 2644 
L 63 2644 
L 63 2747 
Q 234 2816 414 2980 
Q 594 3144 734 3369 
Q 806 3488 934 3803 
L 1031 3803 
z
" transform="scale(0.015625)"/>
       <path id="TimesNewRomanPSMT-69" d="M 928 4444 
Q 1059 4444 1151 4351 
Q 1244 4259 1244 4128 
Q 1244 3997 1151 3903 
Q 1059 3809 928 3809 
Q 797 3809 703 3903 
Q 609 3997 609 4128 
Q 609 4259 701 4351 
Q 794 4444 928 4444 
z
M 1188 2947 
L 1188 647 
Q 1188 378 1227 289 
Q 1266 200 1342 156 
Q 1419 113 1622 113 
L 1622 0 
L 231 0 
L 231 113 
Q 441 113 512 153 
Q 584 194 626 287 
Q 669 381 669 647 
L 669 1750 
Q 669 2216 641 2353 
Q 619 2453 572 2492 
Q 525 2531 444 2531 
Q 356 2531 231 2484 
L 188 2597 
L 1050 2947 
L 1188 2947 
z
" transform="scale(0.015625)"/>
       <path id="TimesNewRomanPSMT-66" d="M 1319 2638 
L 1319 756 
Q 1319 356 1406 250 
Q 1522 113 1716 113 
L 1975 113 
L 1975 0 
L 266 0 
L 266 113 
L 394 113 
Q 519 113 622 175 
Q 725 238 764 344 
Q 803 450 803 756 
L 803 2638 
L 247 2638 
L 247 2863 
L 803 2863 
L 803 3050 
Q 803 3478 940 3775 
Q 1078 4072 1361 4255 
Q 1644 4438 1997 4438 
Q 2325 4438 2600 4225 
Q 2781 4084 2781 3909 
Q 2781 3816 2700 3733 
Q 2619 3650 2525 3650 
Q 2453 3650 2373 3701 
Q 2294 3753 2178 3923 
Q 2063 4094 1966 4153 
Q 1869 4213 1750 4213 
Q 1606 4213 1506 4136 
Q 1406 4059 1362 3898 
Q 1319 3738 1319 3069 
L 1319 2863 
L 2056 2863 
L 2056 2638 
L 1319 2638 
z
" transform="scale(0.015625)"/>
       <path id="TimesNewRomanPSMT-63" d="M 2631 1088 
Q 2516 522 2178 217 
Q 1841 -88 1431 -88 
Q 944 -88 581 321 
Q 219 731 219 1428 
Q 219 2103 620 2525 
Q 1022 2947 1584 2947 
Q 2006 2947 2278 2723 
Q 2550 2500 2550 2259 
Q 2550 2141 2473 2067 
Q 2397 1994 2259 1994 
Q 2075 1994 1981 2113 
Q 1928 2178 1911 2362 
Q 1894 2547 1784 2644 
Q 1675 2738 1481 2738 
Q 1169 2738 978 2506 
Q 725 2200 725 1697 
Q 725 1184 976 792 
Q 1228 400 1656 400 
Q 1963 400 2206 609 
Q 2378 753 2541 1131 
L 2631 1088 
z
" transform="scale(0.015625)"/>
       <path id="TimesNewRomanPSMT-6e" d="M 1034 2341 
Q 1538 2947 1994 2947 
Q 2228 2947 2397 2830 
Q 2566 2713 2666 2444 
Q 2734 2256 2734 1869 
L 2734 647 
Q 2734 375 2778 278 
Q 2813 200 2889 156 
Q 2966 113 3172 113 
L 3172 0 
L 1756 0 
L 1756 113 
L 1816 113 
Q 2016 113 2095 173 
Q 2175 234 2206 353 
Q 2219 400 2219 647 
L 2219 1819 
Q 2219 2209 2117 2386 
Q 2016 2563 1775 2563 
Q 1403 2563 1034 2156 
L 1034 647 
Q 1034 356 1069 288 
Q 1113 197 1189 155 
Q 1266 113 1500 113 
L 1500 0 
L 84 0 
L 84 113 
L 147 113 
Q 366 113 442 223 
Q 519 334 519 647 
L 519 1709 
Q 519 2225 495 2337 
Q 472 2450 423 2490 
Q 375 2531 294 2531 
Q 206 2531 84 2484 
L 38 2597 
L 900 2947 
L 1034 2947 
L 1034 2341 
z
" transform="scale(0.015625)"/>
       <path id="TimesNewRomanPSMT-70" d="M -6 2578 
L 875 2934 
L 994 2934 
L 994 2266 
Q 1216 2644 1439 2795 
Q 1663 2947 1909 2947 
Q 2341 2947 2628 2609 
Q 2981 2197 2981 1534 
Q 2981 794 2556 309 
Q 2206 -88 1675 -88 
Q 1444 -88 1275 -22 
Q 1150 25 994 166 
L 994 -706 
Q 994 -1000 1030 -1079 
Q 1066 -1159 1155 -1206 
Q 1244 -1253 1478 -1253 
L 1478 -1369 
L -22 -1369 
L -22 -1253 
L 56 -1253 
Q 228 -1256 350 -1188 
Q 409 -1153 442 -1076 
Q 475 -1000 475 -688 
L 475 2019 
Q 475 2297 450 2372 
Q 425 2447 370 2484 
Q 316 2522 222 2522 
Q 147 2522 31 2478 
L -6 2578 
z
M 994 2081 
L 994 1013 
Q 994 666 1022 556 
Q 1066 375 1236 237 
Q 1406 100 1666 100 
Q 1978 100 2172 344 
Q 2425 663 2425 1241 
Q 2425 1897 2138 2250 
Q 1938 2494 1663 2494 
Q 1513 2494 1366 2419 
Q 1253 2363 994 2081 
z
" transform="scale(0.015625)"/>
       <path id="TimesNewRomanPSMT-72" d="M 1038 2947 
L 1038 2303 
Q 1397 2947 1775 2947 
Q 1947 2947 2059 2842 
Q 2172 2738 2172 2600 
Q 2172 2478 2090 2393 
Q 2009 2309 1897 2309 
Q 1788 2309 1652 2417 
Q 1516 2525 1450 2525 
Q 1394 2525 1328 2463 
Q 1188 2334 1038 2041 
L 1038 669 
Q 1038 431 1097 309 
Q 1138 225 1241 169 
Q 1344 113 1538 113 
L 1538 0 
L 72 0 
L 72 113 
Q 291 113 397 181 
Q 475 231 506 341 
Q 522 394 522 644 
L 522 1753 
Q 522 2253 501 2348 
Q 481 2444 426 2487 
Q 372 2531 291 2531 
Q 194 2531 72 2484 
L 41 2597 
L 906 2947 
L 1038 2947 
z
" transform="scale(0.015625)"/>
       <path id="TimesNewRomanPSMT-62" d="M 984 2369 
Q 1400 2947 1881 2947 
Q 2322 2947 2650 2570 
Q 2978 2194 2978 1541 
Q 2978 778 2472 313 
Q 2038 -88 1503 -88 
Q 1253 -88 995 3 
Q 738 94 469 275 
L 469 3241 
Q 469 3728 445 3840 
Q 422 3953 372 3993 
Q 322 4034 247 4034 
Q 159 4034 28 3984 
L -16 4094 
L 844 4444 
L 984 4444 
L 984 2369 
z
M 984 2169 
L 984 456 
Q 1144 300 1314 220 
Q 1484 141 1663 141 
Q 1947 141 2192 453 
Q 2438 766 2438 1363 
Q 2438 1913 2192 2208 
Q 1947 2503 1634 2503 
Q 1469 2503 1303 2419 
Q 1178 2356 984 2169 
z
" transform="scale(0.015625)"/>
       <path id="TimesNewRomanPSMT-6c" d="M 1184 4444 
L 1184 647 
Q 1184 378 1223 290 
Q 1263 203 1344 158 
Q 1425 113 1647 113 
L 1647 0 
L 244 0 
L 244 113 
Q 441 113 512 153 
Q 584 194 625 287 
Q 666 381 666 647 
L 666 3247 
Q 666 3731 644 3842 
Q 622 3953 573 3993 
Q 525 4034 450 4034 
Q 369 4034 244 3984 
L 191 4094 
L 1044 4444 
L 1184 4444 
z
" transform="scale(0.015625)"/>
       <path id="TimesNewRomanPSMT-79" d="M 38 2863 
L 1372 2863 
L 1372 2747 
L 1306 2747 
Q 1166 2747 1095 2686 
Q 1025 2625 1025 2534 
Q 1025 2413 1128 2197 
L 1825 753 
L 2466 2334 
Q 2519 2463 2519 2588 
Q 2519 2644 2497 2672 
Q 2472 2706 2419 2726 
Q 2366 2747 2231 2747 
L 2231 2863 
L 3163 2863 
L 3163 2747 
Q 3047 2734 2984 2696 
Q 2922 2659 2847 2556 
Q 2819 2513 2741 2316 
L 1575 -541 
Q 1406 -956 1132 -1168 
Q 859 -1381 606 -1381 
Q 422 -1381 303 -1275 
Q 184 -1169 184 -1031 
Q 184 -900 270 -820 
Q 356 -741 506 -741 
Q 609 -741 788 -809 
Q 913 -856 944 -856 
Q 1038 -856 1148 -759 
Q 1259 -663 1372 -384 
L 1575 113 
L 547 2272 
Q 500 2369 397 2513 
Q 319 2622 269 2659 
Q 197 2709 38 2747 
L 38 2863 
z
" transform="scale(0.015625)"/>
      </defs>
      <use xlink:href="#TimesNewRomanPSMT-51"/>
      <use xlink:href="#TimesNewRomanPSMT-6f" transform="translate(72.216797 0)"/>
      <use xlink:href="#TimesNewRomanPSMT-53" transform="translate(122.216797 0)"/>
      <use xlink:href="#TimesNewRomanPSMT-20" transform="translate(177.832031 0)"/>
      <use xlink:href="#TimesNewRomanPSMT-73" transform="translate(202.832031 0)"/>
      <use xlink:href="#TimesNewRomanPSMT-61" transform="translate(241.748047 0)"/>
      <use xlink:href="#TimesNewRomanPSMT-74" transform="translate(286.132812 0)"/>
      <use xlink:href="#TimesNewRomanPSMT-69" transform="translate(313.916016 0)"/>
      <use xlink:href="#TimesNewRomanPSMT-73" transform="translate(341.699219 0)"/>
      <use xlink:href="#TimesNewRomanPSMT-66" transform="translate(380.615234 0)"/>
      <use xlink:href="#TimesNewRomanPSMT-61" transform="translate(413.916016 0)"/>
      <use xlink:href="#TimesNewRomanPSMT-63" transform="translate(458.300781 0)"/>
      <use xlink:href="#TimesNewRomanPSMT-74" transform="translate(502.685547 0)"/>
      <use xlink:href="#TimesNewRomanPSMT-69" transform="translate(530.46875 0)"/>
      <use xlink:href="#TimesNewRomanPSMT-6f" transform="translate(558.251953 0)"/>
      <use xlink:href="#TimesNewRomanPSMT-6e" transform="translate(608.251953 0)"/>
      <use xlink:href="#TimesNewRomanPSMT-20" transform="translate(658.251953 0)"/>
      <use xlink:href="#TimesNewRomanPSMT-70" transform="translate(683.251953 0)"/>
      <use xlink:href="#TimesNewRomanPSMT-72" transform="translate(733.251953 0)"/>
      <use xlink:href="#TimesNewRomanPSMT-6f" transform="translate(766.552734 0)"/>
      <use xlink:href="#TimesNewRomanPSMT-62" transform="translate(816.552734 0)"/>
      <use xlink:href="#TimesNewRomanPSMT-61" transform="translate(866.552734 0)"/>
      <use xlink:href="#TimesNewRomanPSMT-62" transform="translate(910.9375 0)"/>
      <use xlink:href="#TimesNewRomanPSMT-69" transform="translate(960.9375 0)"/>
      <use xlink:href="#TimesNewRomanPSMT-6c" transform="translate(988.720703 0)"/>
      <use xlink:href="#TimesNewRomanPSMT-69" transform="translate(1016.503906 0)"/>
      <use xlink:href="#TimesNewRomanPSMT-74" transform="translate(1044.287109 0)"/>
      <use xlink:href="#TimesNewRomanPSMT-79" transform="translate(1072.070312 0)"/>
     </g>
    </g>
   </g>
   <g id="LineCollection_1">
    <path d="M 57.966875 205.163688 
L 57.966875 205.163688 
" clip-path="url(#p799e776ed7)" style="fill: none; stroke: #0072b2; stroke-width: 1.8"/>
    <path d="M 123.346875 205.163688 
L 123.346875 205.163688 
" clip-path="url(#p799e776ed7)" style="fill: none; stroke: #0072b2; stroke-width: 1.8"/>
    <path d="M 188.726875 206.690318 
L 188.726875 199.06391 
" clip-path="url(#p799e776ed7)" style="fill: none; stroke: #0072b2; stroke-width: 1.8"/>
    <path d="M 254.106875 171.552296 
L 254.106875 138.919633 
" clip-path="url(#p799e776ed7)" style="fill: none; stroke: #0072b2; stroke-width: 1.8"/>
    <path d="M 319.486875 91.248774 
L 319.486875 70.62096 
" clip-path="url(#p799e776ed7)" style="fill: none; stroke: #0072b2; stroke-width: 1.8"/>
    <path d="M 384.866875 68.094324 
L 384.866875 40.50577 
" clip-path="url(#p799e776ed7)" style="fill: none; stroke: #0072b2; stroke-width: 1.8"/>
   </g>
   <g id="line2d_25">
    <defs>
     <path id="m99b88db2f7" d="M 3 0 
L -3 -0 
" style="stroke: #0072b2"/>
    </defs>
    <g clip-path="url(#p799e776ed7)">
     <use xlink:href="#m99b88db2f7" x="57.966875" y="205.163688" style="fill: #0072b2; stroke: #0072b2"/>
     <use xlink:href="#m99b88db2f7" x="123.346875" y="205.163688" style="fill: #0072b2; stroke: #0072b2"/>
     <use xlink:href="#m99b88db2f7" x="188.726875" y="206.690318" style="fill: #0072b2; stroke: #0072b2"/>
     <use xlink:href="#m99b88db2f7" x="254.106875" y="171.552296" style="fill: #0072b2; stroke: #0072b2"/>
     <use xlink:href="#m99b88db2f7" x="319.486875" y="91.248774" style="fill: #0072b2; stroke: #0072b2"/>
     <use xlink:href="#m99b88db2f7" x="384.866875" y="68.094324" style="fill: #0072b2; stroke: #0072b2"/>
    </g>
   </g>
   <g id="line2d_26">
    <g clip-path="url(#p799e776ed7)">
     <use xlink:href="#m99b88db2f7" x="57.966875" y="205.163688" style="fill: #0072b2; stroke: #0072b2"/>
     <use xlink:href="#m99b88db2f7" x="123.346875" y="205.163688" style="fill: #0072b2; stroke: #0072b2"/>
     <use xlink:href="#m99b88db2f7" x="188.726875" y="199.06391" style="fill: #0072b2; stroke: #0072b2"/>
     <use xlink:href="#m99b88db2f7" x="254.106875" y="138.919633" style="fill: #0072b2; stroke: #0072b2"/>
     <use xlink:href="#m99b88db2f7" x="319.486875" y="70.62096" style="fill: #0072b2; stroke: #0072b2"/>
     <use xlink:href="#m99b88db2f7" x="384.866875" y="40.50577" style="fill: #0072b2; stroke: #0072b2"/>
    </g>
   </g>
   <g id="LineCollection_2">
    <path d="M 57.966875 205.163688 
L 57.966875 205.163688 
" clip-path="url(#p799e776ed7)" style="fill: none; stroke: #d55e00; stroke-width: 1.8"/>
    <path d="M 123.346875 205.163688 
L 123.346875 205.163688 
" clip-path="url(#p799e776ed7)" style="fill: none; stroke: #d55e00; stroke-width: 1.8"/>
    <path d="M 188.726875 206.88728 
L 188.726875 198.515167 
" clip-path="url(#p799e776ed7)" style="fill: none; stroke: #d55e00; stroke-width: 1.8"/>
    <path d="M 254.106875 181.244085 
L 254.106875 148.877305 
" clip-path="url(#p799e776ed7)" style="fill: none; stroke: #d55e00; stroke-width: 1.8"/>
    <path d="M 319.486875 88.535412 
L 319.486875 48.860441 
" clip-path="url(#p799e776ed7)" style="fill: none; stroke: #d55e00; stroke-width: 1.8"/>
    <path d="M 384.866875 50.767328 
L 384.866875 30.695403 
" clip-path="url(#p799e776ed7)" style="fill: none; stroke: #d55e00; stroke-width: 1.8"/>
   </g>
   <g id="line2d_27">
    <defs>
     <path id="m940b5337e8" d="M 3 0 
L -3 -0 
" style="stroke: #d55e00"/>
    </defs>
    <g clip-path="url(#p799e776ed7)">
     <use xlink:href="#m940b5337e8" x="57.966875" y="205.163688" style="fill: #d55e00; stroke: #d55e00"/>
     <use xlink:href="#m940b5337e8" x="123.346875" y="205.163688" style="fill: #d55e00; stroke: #d55e00"/>
     <use xlink:href="#m940b5337e8" x="188.726875" y="206.88728" style="fill: #d55e00; stroke: #d55e00"/>
     <use xlink:href="#m940b5337e8" x="254.106875" y="181.244085" style="fill: #d55e00; stroke: #d55e00"/>
     <use xlink:href="#m940b5337e8" x="319.486875" y="88.535412" style="fill: #d55e00; stroke: #d55e00"/>
     <use xlink:href="#m940b5337e8" x="384.866875" y="50.767328" style="fill: #d55e00; stroke: #d55e00"/>
    </g>
   </g>
   <g id="line2d_28">
    <g clip-path="url(#p799e776ed7)">
     <use xlink:href="#m940b5337e8" x="57.966875" y="205.163688" style="fill: #d55e00; stroke: #d55e00"/>
     <use xlink:href="#m940b5337e8" x="123.346875" y="205.163688" style="fill: #d55e00; stroke: #d55e00"/>
     <use xlink:href="#m940b5337e8" x="188.726875" y="198.515167" style="fill: #d55e00; stroke: #d55e00"/>
     <use xlink:href="#m940b5337e8" x="254.106875" y="148.877305" style="fill: #d55e00; stroke: #d55e00"/>
     <use xlink:href="#m940b5337e8" x="319.486875" y="48.860441" style="fill: #d55e00; stroke: #d55e00"/>
     <use xlink:href="#m940b5337e8" x="384.866875" y="30.695403" style="fill: #d55e00; stroke: #d55e00"/>
    </g>
   </g>
   <g id="LineCollection_3">
    <path d="M 57.966875 205.163688 
L 57.966875 205.163688 
" clip-path="url(#p799e776ed7)" style="fill: none; stroke: #009e73; stroke-width: 1.8"/>
    <path d="M 123.346875 205.163688 
L 123.346875 205.163688 
" clip-path="url(#p799e776ed7)" style="fill: none; stroke: #009e73; stroke-width: 1.8"/>
    <path d="M 188.726875 206.645278 
L 188.726875 190.967741 
" clip-path="url(#p799e776ed7)" style="fill: none; stroke: #009e73; stroke-width: 1.8"/>
    <path d="M 254.106875 179.393088 
L 254.106875 149.321179 
" clip-path="url(#p799e776ed7)" style="fill: none; stroke: #009e73; stroke-width: 1.8"/>
    <path d="M 319.486875 155.601073 
L 319.486875 114.16481 
" clip-path="url(#p799e776ed7)" style="fill: none; stroke: #009e73; stroke-width: 1.8"/>
    <path d="M 384.866875 140.911467 
L 384.866875 106.139437 
" clip-path="url(#p799e776ed7)" style="fill: none; stroke: #009e73; stroke-width: 1.8"/>
   </g>
   <g id="line2d_29">
    <defs>
     <path id="md780af9594" d="M 3 0 
L -3 -0 
" style="stroke: #009e73"/>
    </defs>
    <g clip-path="url(#p799e776ed7)">
     <use xlink:href="#md780af9594" x="57.966875" y="205.163688" style="fill: #009e73; stroke: #009e73"/>
     <use xlink:href="#md780af9594" x="123.346875" y="205.163688" style="fill: #009e73; stroke: #009e73"/>
     <use xlink:href="#md780af9594" x="188.726875" y="206.645278" style="fill: #009e73; stroke: #009e73"/>
     <use xlink:href="#md780af9594" x="254.106875" y="179.393088" style="fill: #009e73; stroke: #009e73"/>
     <use xlink:href="#md780af9594" x="319.486875" y="155.601073" style="fill: #009e73; stroke: #009e73"/>
     <use xlink:href="#md780af9594" x="384.866875" y="140.911467" style="fill: #009e73; stroke: #009e73"/>
    </g>
   </g>
   <g id="line2d_30">
    <g clip-path="url(#p799e776ed7)">
     <use xlink:href="#md780af9594" x="57.966875" y="205.163688" style="fill: #009e73; stroke: #009e73"/>
     <use xlink:href="#md780af9594" x="123.346875" y="205.163688" style="fill: #009e73; stroke: #009e73"/>
     <use xlink:href="#md780af9594" x="188.726875" y="190.967741" style="fill: #009e73; stroke: #009e73"/>
     <use xlink:href="#md780af9594" x="254.106875" y="149.321179" style="fill: #009e73; stroke: #009e73"/>
     <use xlink:href="#md780af9594" x="319.486875" y="114.16481" style="fill: #009e73; stroke: #009e73"/>
     <use xlink:href="#md780af9594" x="384.866875" y="106.139437" style="fill: #009e73; stroke: #009e73"/>
    </g>
   </g>
   <g id="LineCollection_4">
    <path d="M 57.966875 205.163688 
L 57.966875 205.163688 
" clip-path="url(#p799e776ed7)" style="fill: none; stroke: #cc79a7; stroke-width: 1.8"/>
    <path d="M 123.346875 206.905227 
L 123.346875 198.446966 
" clip-path="url(#p799e776ed7)" style="fill: none; stroke: #cc79a7; stroke-width: 1.8"/>
    <path d="M 188.726875 101.380567 
L 188.726875 37.472663 
" clip-path="url(#p799e776ed7)" style="fill: none; stroke: #cc79a7; stroke-width: 1.8"/>
    <path d="M 254.106875 16.709773 
L 254.106875 16.709773 
" clip-path="url(#p799e776ed7)" style="fill: none; stroke: #cc79a7; stroke-width: 1.8"/>
    <path d="M 319.486875 16.709773 
L 319.486875 16.709773 
" clip-path="url(#p799e776ed7)" style="fill: none; stroke: #cc79a7; stroke-width: 1.8"/>
    <path d="M 384.866875 16.709773 
L 384.866875 16.709773 
" clip-path="url(#p799e776ed7)" style="fill: none; stroke: #cc79a7; stroke-width: 1.8"/>
   </g>
   <g id="line2d_31">
    <defs>
     <path id="m1672c3edf3" d="M 3 0 
L -3 -0 
" style="stroke: #cc79a7"/>
    </defs>
    <g clip-path="url(#p799e776ed7)">
     <use xlink:href="#m1672c3edf3" x="57.966875" y="205.163688" style="fill: #cc79a7; stroke: #cc79a7"/>
     <use xlink:href="#m1672c3edf3" x="123.346875" y="206.905227" style="fill: #cc79a7; stroke: #cc79a7"/>
     <use xlink:href="#m1672c3edf3" x="188.726875" y="101.380567" style="fill: #cc79a7; stroke: #cc79a7"/>
     <use xlink:href="#m1672c3edf3" x="254.106875" y="16.709773" style="fill: #cc79a7; stroke: #cc79a7"/>
     <use xlink:href="#m1672c3edf3" x="319.486875" y="16.709773" style="fill: #cc79a7; stroke: #cc79a7"/>
     <use xlink:href="#m1672c3edf3" x="384.866875" y="16.709773" style="fill: #cc79a7; stroke: #cc79a7"/>
    </g>
   </g>
   <g id="line2d_32">
    <g clip-path="url(#p799e776ed7)">
     <use xlink:href="#m1672c3edf3" x="57.966875" y="205.163688" style="fill: #cc79a7; stroke: #cc79a7"/>
     <use xlink:href="#m1672c3edf3" x="123.346875" y="198.446966" style="fill: #cc79a7; stroke: #cc79a7"/>
     <use xlink:href="#m1672c3edf3" x="188.726875" y="37.472663" style="fill: #cc79a7; stroke: #cc79a7"/>
     <use xlink:href="#m1672c3edf3" x="254.106875" y="16.709773" style="fill: #cc79a7; stroke: #cc79a7"/>
     <use xlink:href="#m1672c3edf3" x="319.486875" y="16.709773" style="fill: #cc79a7; stroke: #cc79a7"/>
     <use xlink:href="#m1672c3edf3" x="384.866875" y="16.709773" style="fill: #cc79a7; stroke: #cc79a7"/>
    </g>
   </g>
   <g id="LineCollection_5">
    <path d="M 57.966875 205.163688 
L 57.966875 205.163688 
" clip-path="url(#p799e776ed7)" style="fill: none; stroke: #e69f00; stroke-width: 1.8"/>
    <path d="M 123.346875 205.163688 
L 123.346875 205.163688 
" clip-path="url(#p799e776ed7)" style="fill: none; stroke: #e69f00; stroke-width: 1.8"/>
    <path d="M 188.726875 205.792725 
L 188.726875 203.730581 
" clip-path="url(#p799e776ed7)" style="fill: none; stroke: #e69f00; stroke-width: 1.8"/>
    <path d="M 254.106875 183.225929 
L 254.106875 170.816545 
" clip-path="url(#p799e776ed7)" style="fill: none; stroke: #e69f00; stroke-width: 1.8"/>
    <path d="M 319.486875 142.106139 
L 319.486875 112.784448 
" clip-path="url(#p799e776ed7)" style="fill: none; stroke: #e69f00; stroke-width: 1.8"/>
    <path d="M 384.866875 105.896825 
L 384.866875 71.099477 
" clip-path="url(#p799e776ed7)" style="fill: none; stroke: #e69f00; stroke-width: 1.8"/>
   </g>
   <g id="line2d_33">
    <defs>
     <path id="m26c4d7108d" d="M 3 0 
L -3 -0 
" style="stroke: #e69f00"/>
    </defs>
    <g clip-path="url(#p799e776ed7)">
     <use xlink:href="#m26c4d7108d" x="57.966875" y="205.163688" style="fill: #e69f00; stroke: #e69f00"/>
     <use xlink:href="#m26c4d7108d" x="123.346875" y="205.163688" style="fill: #e69f00; stroke: #e69f00"/>
     <use xlink:href="#m26c4d7108d" x="188.726875" y="205.792725" style="fill: #e69f00; stroke: #e69f00"/>
     <use xlink:href="#m26c4d7108d" x="254.106875" y="183.225929" style="fill: #e69f00; stroke: #e69f00"/>
     <use xlink:href="#m26c4d7108d" x="319.486875" y="142.106139" style="fill: #e69f00; stroke: #e69f00"/>
     <use xlink:href="#m26c4d7108d" x="384.866875" y="105.896825" style="fill: #e69f00; stroke: #e69f00"/>
    </g>
   </g>
   <g id="line2d_34">
    <g clip-path="url(#p799e776ed7)">
     <use xlink:href="#m26c4d7108d" x="57.966875" y="205.163688" style="fill: #e69f00; stroke: #e69f00"/>
     <use xlink:href="#m26c4d7108d" x="123.346875" y="205.163688" style="fill: #e69f00; stroke: #e69f00"/>
     <use xlink:href="#m26c4d7108d" x="188.726875" y="203.730581" style="fill: #e69f00; stroke: #e69f00"/>
     <use xlink:href="#m26c4d7108d" x="254.106875" y="170.816545" style="fill: #e69f00; stroke: #e69f00"/>
     <use xlink:href="#m26c4d7108d" x="319.486875" y="112.784448" style="fill: #e69f00; stroke: #e69f00"/>
     <use xlink:href="#m26c4d7108d" x="384.866875" y="71.099477" style="fill: #e69f00; stroke: #e69f00"/>
    </g>
   </g>
   <g id="line2d_35">
    <path d="M 57.966875 205.163688 
L 123.346875 205.163688 
L 188.726875 202.877114 
L 254.106875 155.235964 
L 319.486875 80.934867 
L 384.866875 54.300047 
" clip-path="url(#p799e776ed7)" style="fill: none; stroke: #0072b2; stroke-width: 1.8; stroke-linecap: square"/>
    <defs>
     <path id="me7c82fcd88" d="M 0 3 
C 0.795609 3 1.55874 2.683901 2.12132 2.12132 
C 2.683901 1.55874 3 0.795609 3 0 
C 3 -0.795609 2.683901 -1.55874 2.12132 -2.12132 
C 1.55874 -2.683901 0.795609 -3 0 -3 
C -0.795609 -3 -1.55874 -2.683901 -2.12132 -2.12132 
C -2.683901 -1.55874 -3 -0.795609 -3 0 
C -3 0.795609 -2.683901 1.55874 -2.12132 2.12132 
C -1.55874 2.683901 -0.795609 3 0 3 
z
" style="stroke: #0072b2"/>
    </defs>
    <g clip-path="url(#p799e776ed7)">
     <use xlink:href="#me7c82fcd88" x="57.966875" y="205.163688" style="fill: #0072b2; stroke: #0072b2"/>
     <use xlink:href="#me7c82fcd88" x="123.346875" y="205.163688" style="fill: #0072b2; stroke: #0072b2"/>
     <use xlink:href="#me7c82fcd88" x="188.726875" y="202.877114" style="fill: #0072b2; stroke: #0072b2"/>
     <use xlink:href="#me7c82fcd88" x="254.106875" y="155.235964" style="fill: #0072b2; stroke: #0072b2"/>
     <use xlink:href="#me7c82fcd88" x="319.486875" y="80.934867" style="fill: #0072b2; stroke: #0072b2"/>
     <use xlink:href="#me7c82fcd88" x="384.866875" y="54.300047" style="fill: #0072b2; stroke: #0072b2"/>
    </g>
   </g>
   <g id="line2d_36">
    <path d="M 57.966875 205.163688 
L 123.346875 205.163688 
L 188.726875 202.701224 
L 254.106875 165.060695 
L 319.486875 68.697926 
L 384.866875 40.731365 
" clip-path="url(#p799e776ed7)" style="fill: none; stroke: #d55e00; stroke-width: 1.8; stroke-linecap: square"/>
    <defs>
     <path id="m563f0f3477" d="M -3 3 
L 3 3 
L 3 -3 
L -3 -3 
z
" style="stroke: #d55e00; stroke-linejoin: miter"/>
    </defs>
    <g clip-path="url(#p799e776ed7)">
     <use xlink:href="#m563f0f3477" x="57.966875" y="205.163688" style="fill: #d55e00; stroke: #d55e00; stroke-linejoin: miter"/>
     <use xlink:href="#m563f0f3477" x="123.346875" y="205.163688" style="fill: #d55e00; stroke: #d55e00; stroke-linejoin: miter"/>
     <use xlink:href="#m563f0f3477" x="188.726875" y="202.701224" style="fill: #d55e00; stroke: #d55e00; stroke-linejoin: miter"/>
     <use xlink:href="#m563f0f3477" x="254.106875" y="165.060695" style="fill: #d55e00; stroke: #d55e00; stroke-linejoin: miter"/>
     <use xlink:href="#m563f0f3477" x="319.486875" y="68.697926" style="fill: #d55e00; stroke: #d55e00; stroke-linejoin: miter"/>
     <use xlink:href="#m563f0f3477" x="384.866875" y="40.731365" style="fill: #d55e00; stroke: #d55e00; stroke-linejoin: miter"/>
    </g>
   </g>
   <g id="line2d_37">
    <path d="M 57.966875 205.163688 
L 123.346875 205.163688 
L 188.726875 198.806509 
L 254.106875 164.357134 
L 319.486875 134.882941 
L 384.866875 123.525452 
" clip-path="url(#p799e776ed7)" style="fill: none; stroke: #009e73; stroke-width: 1.8; stroke-linecap: square"/>
    <defs>
     <path id="ma2298246f2" d="M 0 4.242641 
L 4.242641 0 
L 0 -4.242641 
L -4.242641 0 
z
" style="stroke: #009e73; stroke-linejoin: miter"/>
    </defs>
    <g clip-path="url(#p799e776ed7)">
     <use xlink:href="#ma2298246f2" x="57.966875" y="205.163688" style="fill: #009e73; stroke: #009e73; stroke-linejoin: miter"/>
     <use xlink:href="#ma2298246f2" x="123.346875" y="205.163688" style="fill: #009e73; stroke: #009e73; stroke-linejoin: miter"/>
     <use xlink:href="#ma2298246f2" x="188.726875" y="198.806509" style="fill: #009e73; stroke: #009e73; stroke-linejoin: miter"/>
     <use xlink:href="#ma2298246f2" x="254.106875" y="164.357134" style="fill: #009e73; stroke: #009e73; stroke-linejoin: miter"/>
     <use xlink:href="#ma2298246f2" x="319.486875" y="134.882941" style="fill: #009e73; stroke: #009e73; stroke-linejoin: miter"/>
     <use xlink:href="#ma2298246f2" x="384.866875" y="123.525452" style="fill: #009e73; stroke: #009e73; stroke-linejoin: miter"/>
    </g>
   </g>
   <g id="line2d_38">
    <path d="M 57.966875 205.163688 
L 123.346875 202.676096 
L 188.726875 69.426615 
L 254.106875 16.709773 
L 319.486875 16.709773 
L 384.866875 16.709773 
" clip-path="url(#p799e776ed7)" style="fill: none; stroke: #cc79a7; stroke-width: 1.8; stroke-linecap: square"/>
    <defs>
     <path id="mba303476e5" d="M 0 -3 
L -3 3 
L 3 3 
z
" style="stroke: #cc79a7; stroke-linejoin: miter"/>
    </defs>
    <g clip-path="url(#p799e776ed7)">
     <use xlink:href="#mba303476e5" x="57.966875" y="205.163688" style="fill: #cc79a7; stroke: #cc79a7; stroke-linejoin: miter"/>
     <use xlink:href="#mba303476e5" x="123.346875" y="202.676096" style="fill: #cc79a7; stroke: #cc79a7; stroke-linejoin: miter"/>
     <use xlink:href="#mba303476e5" x="188.726875" y="69.426615" style="fill: #cc79a7; stroke: #cc79a7; stroke-linejoin: miter"/>
     <use xlink:href="#mba303476e5" x="254.106875" y="16.709773" style="fill: #cc79a7; stroke: #cc79a7; stroke-linejoin: miter"/>
     <use xlink:href="#mba303476e5" x="319.486875" y="16.709773" style="fill: #cc79a7; stroke: #cc79a7; stroke-linejoin: miter"/>
     <use xlink:href="#mba303476e5" x="384.866875" y="16.709773" style="fill: #cc79a7; stroke: #cc79a7; stroke-linejoin: miter"/>
    </g>
   </g>
   <g id="line2d_39">
    <path d="M 57.966875 205.163688 
L 123.346875 205.163688 
L 188.726875 204.761653 
L 254.106875 177.021237 
L 319.486875 127.445293 
L 384.866875 88.498151 
" clip-path="url(#p799e776ed7)" style="fill: none; stroke: #e69f00; stroke-width: 1.8; stroke-linecap: square"/>
    <defs>
     <path id="m46139bffbf" d="M -3 3 
L 3 -3 
M -3 -3 
L 3 3 
" style="stroke: #e69f00"/>
    </defs>
    <g clip-path="url(#p799e776ed7)">
     <use xlink:href="#m46139bffbf" x="57.966875" y="205.163688" style="fill: #e69f00; stroke: #e69f00"/>
     <use xlink:href="#m46139bffbf" x="123.346875" y="205.163688" style="fill: #e69f00; stroke: #e69f00"/>
     <use xlink:href="#m46139bffbf" x="188.726875" y="204.761653" style="fill: #e69f00; stroke: #e69f00"/>
     <use xlink:href="#m46139bffbf" x="254.106875" y="177.021237" style="fill: #e69f00; stroke: #e69f00"/>
     <use xlink:href="#m46139bffbf" x="319.486875" y="127.445293" style="fill: #e69f00; stroke: #e69f00"/>
     <use xlink:href="#m46139bffbf" x="384.866875" y="88.498151" style="fill: #e69f00; stroke: #e69f00"/>
    </g>
   </g>
   <g id="patch_3">
    <path d="M 41.621875 216.415 
L 41.621875 7.2 
" style="fill: none; stroke: #000000; stroke-width: 0.8; stroke-linejoin: miter; stroke-linecap: square"/>
   </g>
   <g id="patch_4">
    <path d="M 401.211875 216.415 
L 401.211875 7.2 
" style="fill: none; stroke: #000000; stroke-width: 0.8; stroke-linejoin: miter; stroke-linecap: square"/>
   </g>
   <g id="patch_5">
    <path d="M 41.621875 216.415 
L 401.211875 216.415 
" style="fill: none; stroke: #000000; stroke-width: 0.8; stroke-linejoin: miter; stroke-linecap: square"/>
   </g>
   <g id="patch_6">
    <path d="M 41.621875 7.2 
L 401.211875 7.2 
" style="fill: none; stroke: #000000; stroke-width: 0.8; stroke-linejoin: miter; stroke-linecap: square"/>
   </g>
   <g id="legend_1">
    <g id="patch_7">
     <path d="M 48.621875 85.895313 
L 123.9625 85.895313 
Q 125.9625 85.895313 125.9625 83.895313 
L 125.9625 14.2 
Q 125.9625 12.2 123.9625 12.2 
L 48.621875 12.2 
Q 46.621875 12.2 46.621875 14.2 
L 46.621875 83.895313 
Q 46.621875 85.895313 48.621875 85.895313 
z
" style="fill: #ffffff; opacity: 0.8; stroke: #cccccc; stroke-linejoin: miter"/>
    </g>
    <g id="LineCollection_6">
     <path d="M 60.621875 24.7 
L 60.621875 14.7 
" style="fill: none; stroke: #0072b2; stroke-width: 1.8"/>
    </g>
    <g id="line2d_40">
     <g>
      <use xlink:href="#m99b88db2f7" x="60.621875" y="24.7" style="fill: #0072b2; stroke: #0072b2"/>
     </g>
    </g>
    <g id="line2d_41">
     <g>
      <use xlink:href="#m99b88db2f7" x="60.621875" y="14.7" style="fill: #0072b2; stroke: #0072b2"/>
     </g>
    </g>
    <g id="line2d_42">
     <path d="M 50.621875 19.7 
L 70.621875 19.7 
" style="fill: none; stroke: #0072b2; stroke-width: 1.8; stroke-linecap: square"/>
    </g>
    <g id="line2d_43">
     <g>
      <use xlink:href="#me7c82fcd88" x="60.621875" y="19.7" style="fill: #0072b2; stroke: #0072b2"/>
     </g>
    </g>
    <g id="text_15">
     <!-- MADDPG -->
     <g transform="translate(78.621875 23.2) scale(0.1 -0.1)">
      <defs>
       <path id="TimesNewRomanPSMT-4d" d="M 2619 0 
L 981 3566 
L 981 734 
Q 981 344 1066 247 
Q 1181 116 1431 116 
L 1581 116 
L 1581 0 
L 106 0 
L 106 116 
L 256 116 
Q 525 116 638 278 
Q 706 378 706 734 
L 706 3503 
Q 706 3784 644 3909 
Q 600 4000 483 4061 
Q 366 4122 106 4122 
L 106 4238 
L 1306 4238 
L 2844 922 
L 4356 4238 
L 5556 4238 
L 5556 4122 
L 5409 4122 
Q 5138 4122 5025 3959 
Q 4956 3859 4956 3503 
L 4956 734 
Q 4956 344 5044 247 
Q 5159 116 5409 116 
L 5556 116 
L 5556 0 
L 3756 0 
L 3756 116 
L 3906 116 
Q 4178 116 4288 278 
Q 4356 378 4356 734 
L 4356 3566 
L 2722 0 
L 2619 0 
z
" transform="scale(0.015625)"/>
       <path id="TimesNewRomanPSMT-41" d="M 2928 1419 
L 1288 1419 
L 1000 750 
Q 894 503 894 381 
Q 894 284 986 211 
Q 1078 138 1384 116 
L 1384 0 
L 50 0 
L 50 116 
Q 316 163 394 238 
Q 553 388 747 847 
L 2238 4334 
L 2347 4334 
L 3822 809 
Q 4000 384 4145 257 
Q 4291 131 4550 116 
L 4550 0 
L 2878 0 
L 2878 116 
Q 3131 128 3220 200 
Q 3309 272 3309 375 
Q 3309 513 3184 809 
L 2928 1419 
z
M 2841 1650 
L 2122 3363 
L 1384 1650 
L 2841 1650 
z
" transform="scale(0.015625)"/>
       <path id="TimesNewRomanPSMT-44" d="M 109 0 
L 109 116 
L 269 116 
Q 538 116 650 288 
Q 719 391 719 750 
L 719 3488 
Q 719 3884 631 3984 
Q 509 4122 269 4122 
L 109 4122 
L 109 4238 
L 1834 4238 
Q 2784 4238 3279 4022 
Q 3775 3806 4076 3303 
Q 4378 2800 4378 2141 
Q 4378 1256 3841 663 
Q 3238 0 2003 0 
L 109 0 
z
M 1319 306 
Q 1716 219 1984 219 
Q 2709 219 3187 728 
Q 3666 1238 3666 2109 
Q 3666 2988 3187 3494 
Q 2709 4000 1959 4000 
Q 1678 4000 1319 3909 
L 1319 306 
z
" transform="scale(0.015625)"/>
       <path id="TimesNewRomanPSMT-50" d="M 1313 1984 
L 1313 750 
Q 1313 350 1400 253 
Q 1519 116 1759 116 
L 1922 116 
L 1922 0 
L 106 0 
L 106 116 
L 266 116 
Q 534 116 650 291 
Q 713 388 713 750 
L 713 3488 
Q 713 3888 628 3984 
Q 506 4122 266 4122 
L 106 4122 
L 106 4238 
L 1659 4238 
Q 2228 4238 2556 4120 
Q 2884 4003 3109 3725 
Q 3334 3447 3334 3066 
Q 3334 2547 2992 2222 
Q 2650 1897 2025 1897 
Q 1872 1897 1694 1919 
Q 1516 1941 1313 1984 
z
M 1313 2163 
Q 1478 2131 1606 2115 
Q 1734 2100 1825 2100 
Q 2150 2100 2386 2351 
Q 2622 2603 2622 3003 
Q 2622 3278 2509 3514 
Q 2397 3750 2190 3867 
Q 1984 3984 1722 3984 
Q 1563 3984 1313 3925 
L 1313 2163 
z
" transform="scale(0.015625)"/>
       <path id="TimesNewRomanPSMT-47" d="M 3928 4334 
L 4038 2997 
L 3928 2997 
Q 3763 3497 3500 3750 
Q 3122 4116 2528 4116 
Q 1719 4116 1297 3475 
Q 944 2934 944 2188 
Q 944 1581 1178 1081 
Q 1413 581 1792 348 
Q 2172 116 2572 116 
Q 2806 116 3025 175 
Q 3244 234 3447 350 
L 3447 1575 
Q 3447 1894 3398 1992 
Q 3350 2091 3248 2142 
Q 3147 2194 2891 2194 
L 2891 2313 
L 4531 2313 
L 4531 2194 
L 4453 2194 
Q 4209 2194 4119 2031 
Q 4056 1916 4056 1575 
L 4056 278 
Q 3697 84 3347 -6 
Q 2997 -97 2569 -97 
Q 1341 -97 703 691 
Q 225 1281 225 2053 
Q 225 2613 494 3125 
Q 813 3734 1369 4063 
Q 1834 4334 2469 4334 
Q 2700 4334 2889 4296 
Q 3078 4259 3425 4131 
Q 3600 4066 3659 4066 
Q 3719 4066 3761 4120 
Q 3803 4175 3813 4334 
L 3928 4334 
z
" transform="scale(0.015625)"/>
      </defs>
      <use xlink:href="#TimesNewRomanPSMT-4d"/>
      <use xlink:href="#TimesNewRomanPSMT-41" transform="translate(88.916016 0)"/>
      <use xlink:href="#TimesNewRomanPSMT-44" transform="translate(161.132812 0)"/>
      <use xlink:href="#TimesNewRomanPSMT-44" transform="translate(233.349609 0)"/>
      <use xlink:href="#TimesNewRomanPSMT-50" transform="translate(305.566406 0)"/>
      <use xlink:href="#TimesNewRomanPSMT-47" transform="translate(361.181641 0)"/>
     </g>
    </g>
    <g id="LineCollection_7">
     <path d="M 60.621875 38.839063 
L 60.621875 28.839063 
" style="fill: none; stroke: #d55e00; stroke-width: 1.8"/>
    </g>
    <g id="line2d_44">
     <g>
      <use xlink:href="#m940b5337e8" x="60.621875" y="38.839063" style="fill: #d55e00; stroke: #d55e00"/>
     </g>
    </g>
    <g id="line2d_45">
     <g>
      <use xlink:href="#m940b5337e8" x="60.621875" y="28.839063" style="fill: #d55e00; stroke: #d55e00"/>
     </g>
    </g>
    <g id="line2d_46">
     <path d="M 50.621875 33.839063 
L 70.621875 33.839063 
" style="fill: none; stroke: #d55e00; stroke-width: 1.8; stroke-linecap: square"/>
    </g>
    <g id="line2d_47">
     <g>
      <use xlink:href="#m563f0f3477" x="60.621875" y="33.839063" style="fill: #d55e00; stroke: #d55e00; stroke-linejoin: miter"/>
     </g>
    </g>
    <g id="text_16">
     <!-- DDPG -->
     <g transform="translate(78.621875 37.339063) scale(0.1 -0.1)">
      <use xlink:href="#TimesNewRomanPSMT-44"/>
      <use xlink:href="#TimesNewRomanPSMT-44" transform="translate(72.216797 0)"/>
      <use xlink:href="#TimesNewRomanPSMT-50" transform="translate(144.433594 0)"/>
      <use xlink:href="#TimesNewRomanPSMT-47" transform="translate(200.048828 0)"/>
     </g>
    </g>
    <g id="LineCollection_8">
     <path d="M 60.621875 52.978125 
L 60.621875 42.978125 
" style="fill: none; stroke: #009e73; stroke-width: 1.8"/>
    </g>
    <g id="line2d_48">
     <g>
      <use xlink:href="#md780af9594" x="60.621875" y="52.978125" style="fill: #009e73; stroke: #009e73"/>
     </g>
    </g>
    <g id="line2d_49">
     <g>
      <use xlink:href="#md780af9594" x="60.621875" y="42.978125" style="fill: #009e73; stroke: #009e73"/>
     </g>
    </g>
    <g id="line2d_50">
     <path d="M 50.621875 47.978125 
L 70.621875 47.978125 
" style="fill: none; stroke: #009e73; stroke-width: 1.8; stroke-linecap: square"/>
    </g>
    <g id="line2d_51">
     <g>
      <use xlink:href="#ma2298246f2" x="60.621875" y="47.978125" style="fill: #009e73; stroke: #009e73; stroke-linejoin: miter"/>
     </g>
    </g>
    <g id="text_17">
     <!-- TD3 -->
     <g transform="translate(78.621875 51.478125) scale(0.1 -0.1)">
      <defs>
       <path id="TimesNewRomanPSMT-54" d="M 3703 4238 
L 3750 3244 
L 3631 3244 
Q 3597 3506 3538 3619 
Q 3441 3800 3280 3886 
Q 3119 3972 2856 3972 
L 2259 3972 
L 2259 734 
Q 2259 344 2344 247 
Q 2463 116 2709 116 
L 2856 116 
L 2856 0 
L 1059 0 
L 1059 116 
L 1209 116 
Q 1478 116 1591 278 
Q 1659 378 1659 734 
L 1659 3972 
L 1150 3972 
Q 853 3972 728 3928 
Q 566 3869 450 3700 
Q 334 3531 313 3244 
L 194 3244 
L 244 4238 
L 3703 4238 
z
" transform="scale(0.015625)"/>
      </defs>
      <use xlink:href="#TimesNewRomanPSMT-54"/>
      <use xlink:href="#TimesNewRomanPSMT-44" transform="translate(61.083984 0)"/>
      <use xlink:href="#TimesNewRomanPSMT-33" transform="translate(133.300781 0)"/>
     </g>
    </g>
    <g id="LineCollection_9">
     <path d="M 60.621875 67.117188 
L 60.621875 57.117188 
" style="fill: none; stroke: #cc79a7; stroke-width: 1.8"/>
    </g>
    <g id="line2d_52">
     <g>
      <use xlink:href="#m1672c3edf3" x="60.621875" y="67.117188" style="fill: #cc79a7; stroke: #cc79a7"/>
     </g>
    </g>
    <g id="line2d_53">
     <g>
      <use xlink:href="#m1672c3edf3" x="60.621875" y="57.117188" style="fill: #cc79a7; stroke: #cc79a7"/>
     </g>
    </g>
    <g id="line2d_54">
     <path d="M 50.621875 62.117188 
L 70.621875 62.117188 
" style="fill: none; stroke: #cc79a7; stroke-width: 1.8; stroke-linecap: square"/>
    </g>
    <g id="line2d_55">
     <g>
      <use xlink:href="#mba303476e5" x="60.621875" y="62.117188" style="fill: #cc79a7; stroke: #cc79a7; stroke-linejoin: miter"/>
     </g>
    </g>
    <g id="text_18">
     <!-- PPO -->
     <g transform="translate(78.621875 65.617188) scale(0.1 -0.1)">
      <defs>
       <path id="TimesNewRomanPSMT-4f" d="M 2341 4334 
Q 3166 4334 3770 3707 
Q 4375 3081 4375 2144 
Q 4375 1178 3765 540 
Q 3156 -97 2291 -97 
Q 1416 -97 820 525 
Q 225 1147 225 2134 
Q 225 3144 913 3781 
Q 1509 4334 2341 4334 
z
M 2281 4106 
Q 1713 4106 1369 3684 
Q 941 3159 941 2147 
Q 941 1109 1384 550 
Q 1725 125 2284 125 
Q 2881 125 3270 590 
Q 3659 1056 3659 2059 
Q 3659 3147 3231 3681 
Q 2888 4106 2281 4106 
z
" transform="scale(0.015625)"/>
      </defs>
      <use xlink:href="#TimesNewRomanPSMT-50"/>
      <use xlink:href="#TimesNewRomanPSMT-50" transform="translate(55.615234 0)"/>
      <use xlink:href="#TimesNewRomanPSMT-4f" transform="translate(111.230469 0)"/>
     </g>
    </g>
    <g id="LineCollection_10">
     <path d="M 60.621875 81.25625 
L 60.621875 71.25625 
" style="fill: none; stroke: #e69f00; stroke-width: 1.8"/>
    </g>
    <g id="line2d_56">
     <g>
      <use xlink:href="#m26c4d7108d" x="60.621875" y="81.25625" style="fill: #e69f00; stroke: #e69f00"/>
     </g>
    </g>
    <g id="line2d_57">
     <g>
      <use xlink:href="#m26c4d7108d" x="60.621875" y="71.25625" style="fill: #e69f00; stroke: #e69f00"/>
     </g>
    </g>
    <g id="line2d_58">
     <path d="M 50.621875 76.25625 
L 70.621875 76.25625 
" style="fill: none; stroke: #e69f00; stroke-width: 1.8; stroke-linecap: square"/>
    </g>
    <g id="line2d_59">
     <g>
      <use xlink:href="#m46139bffbf" x="60.621875" y="76.25625" style="fill: #e69f00; stroke: #e69f00"/>
     </g>
    </g>
    <g id="text_19">
     <!-- FixedRIS -->
     <g transform="translate(78.621875 79.75625) scale(0.1 -0.1)">
      <defs>
       <path id="TimesNewRomanPSMT-46" d="M 1309 4006 
L 1309 2341 
L 2081 2341 
Q 2347 2341 2470 2458 
Q 2594 2575 2634 2922 
L 2750 2922 
L 2750 1488 
L 2634 1488 
Q 2631 1734 2570 1850 
Q 2509 1966 2401 2023 
Q 2294 2081 2081 2081 
L 1309 2081 
L 1309 750 
Q 1309 428 1350 325 
Q 1381 247 1481 191 
Q 1619 116 1769 116 
L 1922 116 
L 1922 0 
L 103 0 
L 103 116 
L 253 116 
Q 516 116 634 269 
Q 709 369 709 750 
L 709 3488 
Q 709 3809 669 3913 
Q 638 3991 541 4047 
Q 406 4122 253 4122 
L 103 4122 
L 103 4238 
L 3256 4238 
L 3297 3306 
L 3188 3306 
Q 3106 3603 2998 3742 
Q 2891 3881 2733 3943 
Q 2575 4006 2244 4006 
L 1309 4006 
z
" transform="scale(0.015625)"/>
       <path id="TimesNewRomanPSMT-78" d="M 84 2863 
L 1431 2863 
L 1431 2747 
Q 1303 2747 1251 2703 
Q 1200 2659 1200 2588 
Q 1200 2513 1309 2356 
Q 1344 2306 1413 2200 
L 1616 1875 
L 1850 2200 
Q 2075 2509 2075 2591 
Q 2075 2656 2022 2701 
Q 1969 2747 1850 2747 
L 1850 2863 
L 2819 2863 
L 2819 2747 
Q 2666 2738 2553 2663 
Q 2400 2556 2134 2200 
L 1744 1678 
L 2456 653 
Q 2719 275 2831 198 
Q 2944 122 3122 113 
L 3122 0 
L 1772 0 
L 1772 113 
Q 1913 113 1991 175 
Q 2050 219 2050 291 
Q 2050 363 1850 653 
L 1431 1266 
L 972 653 
Q 759 369 759 316 
Q 759 241 829 180 
Q 900 119 1041 113 
L 1041 0 
L 106 0 
L 106 113 
Q 219 128 303 191 
Q 422 281 703 653 
L 1303 1450 
L 759 2238 
Q 528 2575 401 2661 
Q 275 2747 84 2747 
L 84 2863 
z
" transform="scale(0.015625)"/>
       <path id="TimesNewRomanPSMT-65" d="M 681 1784 
Q 678 1147 991 784 
Q 1303 422 1725 422 
Q 2006 422 2214 576 
Q 2422 731 2563 1106 
L 2659 1044 
Q 2594 616 2278 264 
Q 1963 -88 1488 -88 
Q 972 -88 605 314 
Q 238 716 238 1394 
Q 238 2128 614 2539 
Q 991 2950 1559 2950 
Q 2041 2950 2350 2633 
Q 2659 2316 2659 1784 
L 681 1784 
z
M 681 1966 
L 2006 1966 
Q 1991 2241 1941 2353 
Q 1863 2528 1708 2628 
Q 1553 2728 1384 2728 
Q 1125 2728 920 2526 
Q 716 2325 681 1966 
z
" transform="scale(0.015625)"/>
       <path id="TimesNewRomanPSMT-52" d="M 4325 0 
L 3194 0 
L 1759 1981 
Q 1600 1975 1500 1975 
Q 1459 1975 1412 1976 
Q 1366 1978 1316 1981 
L 1316 750 
Q 1316 350 1403 253 
Q 1522 116 1759 116 
L 1925 116 
L 1925 0 
L 109 0 
L 109 116 
L 269 116 
Q 538 116 653 291 
Q 719 388 719 750 
L 719 3488 
Q 719 3888 631 3984 
Q 509 4122 269 4122 
L 109 4122 
L 109 4238 
L 1653 4238 
Q 2328 4238 2648 4139 
Q 2969 4041 3192 3777 
Q 3416 3513 3416 3147 
Q 3416 2756 3161 2468 
Q 2906 2181 2372 2063 
L 3247 847 
Q 3547 428 3762 290 
Q 3978 153 4325 116 
L 4325 0 
z
M 1316 2178 
Q 1375 2178 1419 2176 
Q 1463 2175 1491 2175 
Q 2097 2175 2405 2437 
Q 2713 2700 2713 3106 
Q 2713 3503 2464 3751 
Q 2216 4000 1806 4000 
Q 1625 4000 1316 3941 
L 1316 2178 
z
" transform="scale(0.015625)"/>
       <path id="TimesNewRomanPSMT-49" d="M 1975 116 
L 1975 0 
L 159 0 
L 159 116 
L 309 116 
Q 572 116 691 269 
Q 766 369 766 750 
L 766 3488 
Q 766 3809 725 3913 
Q 694 3991 597 4047 
Q 459 4122 309 4122 
L 159 4122 
L 159 4238 
L 1975 4238 
L 1975 4122 
L 1822 4122 
Q 1563 4122 1444 3969 
Q 1366 3869 1366 3488 
L 1366 750 
Q 1366 428 1406 325 
Q 1438 247 1538 191 
Q 1672 116 1822 116 
L 1975 116 
z
" transform="scale(0.015625)"/>
      </defs>
      <use xlink:href="#TimesNewRomanPSMT-46"/>
      <use xlink:href="#TimesNewRomanPSMT-69" transform="translate(55.615234 0)"/>
      <use xlink:href="#TimesNewRomanPSMT-78" transform="translate(83.398438 0)"/>
      <use xlink:href="#TimesNewRomanPSMT-65" transform="translate(133.398438 0)"/>
      <use xlink:href="#TimesNewRomanPSMT-64" transform="translate(177.783203 0)"/>
      <use xlink:href="#TimesNewRomanPSMT-52" transform="translate(227.783203 0)"/>
      <use xlink:href="#TimesNewRomanPSMT-49" transform="translate(294.482422 0)"/>
      <use xlink:href="#TimesNewRomanPSMT-53" transform="translate(327.783203 0)"/>
     </g>
    </g>
   </g>
  </g>
 </g>
 <defs>
  <clipPath id="p799e776ed7">
   <rect x="41.621875" y="7.2" width="359.59" height="209.215"/>
  </clipPath>
 </defs>
</svg>
